<?xml version="1.0" encoding="utf-8"?>
<!-- Generator: Adobe Illustrator 15.1.0, SVG Export Plug-In . SVG Version: 6.00 Build 0)  -->
<!DOCTYPE svg PUBLIC "-//W3C//DTD SVG 1.1//EN" "http://www.w3.org/Graphics/SVG/1.1/DTD/svg11.dtd">
<svg version="1.1" xmlns="http://www.w3.org/2000/svg" xmlns:xlink="http://www.w3.org/1999/xlink" x="0px" y="0px" width="56.69px"
	 height="34.02px" viewBox="0 0 56.69 34.02" enable-background="new 0 0 56.69 34.02" xml:space="preserve">
<g id="Ebene_1">
	<g>
		
			<rect x="19.403" y="1.288" fill="none" stroke="#000000" stroke-width="0.5" stroke-miterlimit="10" width="17.5" height="31.375"/>
		<g>
			<polygon fill="none" stroke="#000000" stroke-width="0.5" stroke-miterlimit="10" points="12.536,1.288 1.841,12.336 
				1.841,16.93 16.982,1.288 			"/>
			<polygon fill="none" stroke="#000000" stroke-width="0.5" stroke-miterlimit="10" points="7.616,1.288 1.841,7.253 1.841,12.336 
				12.536,1.288 			"/>
			<polygon fill="none" stroke="#000000" stroke-width="0.5" stroke-miterlimit="10" points="19.341,1.288 16.982,1.288 
				1.841,16.93 1.841,20.439 19.341,2.36 			"/>
			<polygon fill="none" stroke="#000000" stroke-width="0.5" stroke-miterlimit="10" points="19.341,2.36 1.841,20.439 
				1.841,25.646 19.341,7.566 			"/>
			<polygon fill="none" stroke="#000000" stroke-width="0.5" stroke-miterlimit="10" points="3.211,1.288 1.841,2.704 1.841,7.253 
				7.616,1.288 			"/>
			<polygon fill="none" stroke="#000000" stroke-width="0.5" stroke-miterlimit="10" points="1.841,1.288 1.841,2.704 3.211,1.288 
							"/>
			<polygon fill="none" stroke="#000000" stroke-width="0.5" stroke-miterlimit="10" points="19.341,22.746 9.744,32.662 
				14.315,32.662 19.341,27.469 			"/>
			<polygon fill="none" stroke="#000000" stroke-width="0.5" stroke-miterlimit="10" points="19.341,32.047 19.341,27.469 
				14.315,32.662 18.745,32.662 			"/>
			<polygon fill="none" stroke="#000000" stroke-width="0.5" stroke-miterlimit="10" points="19.341,32.662 19.341,32.047 
				18.745,32.662 			"/>
			<polygon fill="none" stroke="#000000" stroke-width="0.5" stroke-miterlimit="10" points="19.341,12.788 1.841,30.867 
				1.841,32.662 5.346,32.662 19.341,18.203 			"/>
			<polygon fill="none" stroke="#000000" stroke-width="0.5" stroke-miterlimit="10" points="19.341,18.203 5.346,32.662 
				9.744,32.662 19.341,22.746 			"/>
			<polygon fill="none" stroke="#000000" stroke-width="0.5" stroke-miterlimit="10" points="19.341,7.566 1.841,25.646 
				1.841,30.867 19.341,12.788 			"/>
		</g>
		<g>
			<polygon fill="none" stroke="#000000" stroke-width="0.5" stroke-miterlimit="10" points="48.113,1.288 36.986,12.783 
				36.986,16.285 51.502,1.288 			"/>
			<polygon fill="none" stroke="#000000" stroke-width="0.5" stroke-linejoin="round" stroke-miterlimit="10" points="51.502,1.288 
				36.986,16.285 36.986,19.223 54.344,1.288 			"/>
			<polygon fill="none" stroke="#000000" stroke-width="0.5" stroke-linecap="square" stroke-miterlimit="10" points="54.486,1.288 
				54.344,1.288 36.986,19.223 36.986,22.275 54.486,4.196 			"/>
			<polygon fill="none" stroke="#000000" stroke-width="0.5" stroke-miterlimit="10" points="44.844,1.288 36.986,9.407 
				36.986,12.783 48.113,1.288 			"/>
			<polygon fill="none" stroke="#000000" stroke-width="0.5" stroke-miterlimit="10" points="39.391,1.288 36.986,3.771 
				36.986,6.041 41.586,1.288 			"/>
			<polygon fill="none" stroke="#000000" stroke-width="0.5" stroke-miterlimit="10" points="54.486,4.196 36.986,22.275 
				36.986,25.234 54.486,7.155 			"/>
			<polygon fill="none" stroke="#000000" stroke-width="0.5" stroke-miterlimit="10" points="36.986,1.288 36.986,3.771 
				39.391,1.288 			"/>
			<polygon fill="none" stroke="#000000" stroke-width="0.5" stroke-miterlimit="10" points="41.586,1.288 36.986,6.041 
				36.986,9.407 44.844,1.288 			"/>
			<polygon fill="none" stroke="#000000" stroke-width="0.5" stroke-miterlimit="10" points="54.486,16.237 38.588,32.662 
				40.85,32.662 54.486,18.574 			"/>
			<polygon fill="none" stroke="#000000" stroke-width="0.5" stroke-miterlimit="10" points="54.486,24.125 46.221,32.662 
				49.068,32.662 54.486,27.066 			"/>
			<polygon fill="none" stroke="#000000" stroke-width="0.5" stroke-miterlimit="10" points="54.486,32.662 54.486,30.354 
				52.25,32.662 			"/>
			<polygon fill="none" stroke="#000000" stroke-width="0.5" stroke-miterlimit="10" points="54.486,7.155 36.986,25.234 
				36.986,28.213 54.486,10.133 			"/>
			<polygon fill="none" stroke="#000000" stroke-width="0.5" stroke-miterlimit="10" points="54.486,21.451 43.635,32.662 
				46.221,32.662 54.486,24.125 			"/>
			<polygon fill="none" stroke="#000000" stroke-width="0.5" stroke-miterlimit="10" points="54.486,30.354 54.486,27.066 
				49.068,32.662 52.25,32.662 			"/>
			<polygon fill="none" stroke="#000000" stroke-width="0.5" stroke-miterlimit="10" points="54.486,10.133 36.986,28.213 
				36.986,31.762 54.486,13.681 			"/>
			<polygon fill="none" stroke="#000000" stroke-width="0.5" stroke-miterlimit="10" points="54.486,18.574 40.85,32.662 
				43.635,32.662 54.486,21.451 			"/>
			<polygon fill="none" stroke="#000000" stroke-width="0.5" stroke-miterlimit="10" points="54.486,13.681 36.986,31.762 
				36.986,32.662 38.588,32.662 54.486,16.237 			"/>
		</g>
	</g>
</g>
<g id="Ebene_2" display="none">
	<g display="inline">
		<rect x="19.403" y="1.288" fill="none" stroke="#000000" stroke-miterlimit="10" width="17.5" height="31.375"/>
		<g>
			<polygon fill="#008D36" stroke="#000000" stroke-miterlimit="10" points="12.536,1.288 1.841,12.336 1.841,16.93 16.982,1.288 
							"/>
			<polygon fill="#008D36" stroke="#000000" stroke-miterlimit="10" points="7.616,1.288 1.841,7.253 1.841,12.336 12.536,1.288 			
				"/>
			<polygon fill="#008D36" stroke="#000000" stroke-miterlimit="10" points="19.341,1.288 16.982,1.288 1.841,16.93 1.841,20.439 
				19.341,2.36 			"/>
			<polygon fill="#008D36" stroke="#000000" stroke-miterlimit="10" points="19.341,2.36 1.841,20.439 1.841,25.646 19.341,7.566 
							"/>
			<polygon fill="#008D36" stroke="#000000" stroke-miterlimit="10" points="3.211,1.288 1.841,2.704 1.841,7.253 7.616,1.288 			
				"/>
			<polygon fill="#008D36" stroke="#000000" stroke-miterlimit="10" points="1.841,1.288 1.841,2.704 3.211,1.288 			"/>
			<polygon fill="#008D36" stroke="#000000" stroke-miterlimit="10" points="19.341,22.746 9.744,32.662 14.315,32.662 
				19.341,27.469 			"/>
			<polygon fill="#008D36" stroke="#000000" stroke-miterlimit="10" points="19.341,32.047 19.341,27.469 14.315,32.662 
				18.745,32.662 			"/>
			<polygon fill="#008D36" stroke="#000000" stroke-miterlimit="10" points="19.341,32.662 19.341,32.047 18.745,32.662 			"/>
			<polygon fill="#008D36" stroke="#000000" stroke-miterlimit="10" points="19.341,12.788 1.841,30.867 1.841,32.662 5.346,32.662 
				19.341,18.203 			"/>
			<polygon fill="#008D36" stroke="#000000" stroke-miterlimit="10" points="19.341,18.203 5.346,32.662 9.744,32.662 
				19.341,22.746 			"/>
			<polygon fill="#008D36" stroke="#000000" stroke-miterlimit="10" points="19.341,7.566 1.841,25.646 1.841,30.867 19.341,12.788 
							"/>
		</g>
		<g>
			<polygon fill="#E30613" stroke="#000000" stroke-miterlimit="10" points="48.113,1.288 36.986,12.783 36.986,16.285 
				51.502,1.288 			"/>
			<polygon fill="#E30613" stroke="#000000" stroke-linecap="square" stroke-linejoin="round" stroke-miterlimit="10" points="
				51.502,1.288 36.986,16.285 36.986,19.223 54.344,1.288 			"/>
			<polygon fill="#E30613" stroke="#000000" stroke-miterlimit="10" points="54.486,1.288 54.344,1.288 36.986,19.223 
				36.986,22.275 54.486,4.196 			"/>
			<polygon fill="#E30613" stroke="#000000" stroke-miterlimit="10" points="44.844,1.288 36.986,9.407 36.986,12.783 48.113,1.288 
							"/>
			<polygon fill="#E30613" stroke="#000000" stroke-miterlimit="10" points="39.391,1.288 36.986,3.771 36.986,6.041 41.586,1.288 
							"/>
			<polygon fill="#E30613" stroke="#000000" stroke-miterlimit="10" points="36.986,1.288 36.986,3.771 39.391,1.288 			"/>
			<polygon fill="#E30613" stroke="#000000" stroke-miterlimit="10" points="54.486,4.196 36.986,22.275 36.986,25.234 
				54.486,7.155 			"/>
			<polygon fill="#E30613" stroke="#000000" stroke-miterlimit="10" points="41.586,1.288 36.986,6.041 36.986,9.407 44.844,1.288 
							"/>
			<polygon fill="#E30613" stroke="#000000" stroke-miterlimit="10" points="54.486,16.237 38.588,32.662 40.85,32.662 
				54.486,18.574 			"/>
			<polygon fill="#E30613" stroke="#000000" stroke-miterlimit="10" points="54.486,24.125 46.221,32.662 49.068,32.662 
				54.486,27.066 			"/>
			<polygon fill="#E30613" stroke="#000000" stroke-miterlimit="10" points="54.486,32.662 54.486,30.354 52.25,32.662 			"/>
			<polygon fill="#E30613" stroke="#000000" stroke-miterlimit="10" points="54.486,7.155 36.986,25.234 36.986,28.213 
				54.486,10.133 			"/>
			<polygon fill="#E30613" stroke="#000000" stroke-miterlimit="10" points="54.486,21.451 43.635,32.662 46.221,32.662 
				54.486,24.125 			"/>
			<polygon fill="#E30613" stroke="#000000" stroke-miterlimit="10" points="54.486,30.354 54.486,27.066 49.068,32.662 
				52.25,32.662 			"/>
			<polygon fill="#E30613" stroke="#000000" stroke-miterlimit="10" points="54.486,10.133 36.986,28.213 36.986,31.762 
				54.486,13.681 			"/>
			<polygon fill="#E30613" stroke="#000000" stroke-miterlimit="10" points="54.486,18.574 40.85,32.662 43.635,32.662 
				54.486,21.451 			"/>
			<polygon fill="#E30613" stroke="#000000" stroke-miterlimit="10" points="54.486,13.681 36.986,31.762 36.986,32.662 
				38.588,32.662 54.486,16.237 			"/>
		</g>
	</g>
</g>
<g id="Ebene_4" display="none">
	<g display="inline">
		<g>
			<polygon fill="none" stroke="#000000" stroke-width="0.5" stroke-miterlimit="10" points="27.794,1.24 1.585,28.317 
				1.585,31.009 30.399,1.24 			"/>
			<polygon fill="none" stroke="#000000" stroke-width="0.5" stroke-miterlimit="10" points="1.585,26.058 1.585,28.317 
				27.794,1.24 25.607,1.24 			"/>
			<polygon fill="none" stroke="#000000" stroke-width="0.5" stroke-miterlimit="10" points="23.434,1.24 1.585,23.812 
				1.585,26.058 25.607,1.24 			"/>
			<polygon fill="none" stroke="#000000" stroke-width="0.5" stroke-miterlimit="10" points="32.278,1.24 1.909,32.614 
				3.626,32.614 33.995,1.24 			"/>
			<path fill="none" stroke="#000000" stroke-width="0.5" stroke-miterlimit="10" d="M36.107,1.24L5.739,32.614h1.963l13.136-13.571
				c-0.26-0.002-0.511-0.002-0.746-0.002c0.235,0,0.486,0,0.746,0.002L38.07,1.24H36.107z"/>
			<polygon fill="none" stroke="#000000" stroke-width="0.5" stroke-miterlimit="10" points="33.995,1.24 3.626,32.614 
				5.739,32.614 36.107,1.24 			"/>
			<path fill="none" stroke="#000000" stroke-width="0.5" stroke-miterlimit="10" d="M7.702,32.614h2.161L22.93,19.115
				c-0.729-0.05-1.443-0.068-2.092-0.072L7.702,32.614z"/>
			<path fill="none" stroke="#000000" stroke-width="0.5" stroke-miterlimit="10" d="M38.07,1.24L20.838,19.043
				c0.648,0.004,1.362,0.022,2.092,0.072L40.231,1.24H38.07z"/>
			<path fill="none" stroke="#000000" stroke-width="0.5" stroke-miterlimit="10" d="M9.863,32.614h2.413l12.798-13.222
				c-0.699-0.143-1.427-0.229-2.145-0.277L9.863,32.614z"/>
			<path fill="none" stroke="#000000" stroke-width="0.5" stroke-miterlimit="10" d="M40.231,1.24L22.93,19.115
				c0.718,0.049,1.445,0.135,2.145,0.277l4.632-4.785c-0.578-0.14-1.126-0.322-1.614-0.566v1v-1
				c0.488,0.244,1.036,0.427,1.614,0.566L42.645,1.24H40.231z"/>
			<polygon fill="none" stroke="#000000" stroke-width="0.5" stroke-miterlimit="10" points="21.19,1.24 1.585,21.495 1.585,23.812 
				23.434,1.24 			"/>
			<polygon fill="none" stroke="#000000" stroke-width="0.5" stroke-miterlimit="10" points="11.509,1.24 1.585,11.492 
				1.585,14.046 13.981,1.24 			"/>
			<polygon fill="none" stroke="#000000" stroke-width="0.5" stroke-miterlimit="10" points="19.033,1.24 1.585,19.265 
				1.585,21.495 21.19,1.24 			"/>
			<polygon fill="none" stroke="#000000" stroke-width="0.5" stroke-miterlimit="10" points="5.247,1.24 1.585,5.023 1.585,7.517 
				7.661,1.24 			"/>
			<polygon fill="none" stroke="#000000" stroke-width="0.5" stroke-miterlimit="10" points="1.585,1.24 1.585,2.791 3.086,1.24 			
				"/>
			<polygon fill="none" stroke="#000000" stroke-width="0.5" stroke-miterlimit="10" points="7.661,1.24 1.585,7.517 1.585,9.771 
				9.843,1.24 			"/>
			<polygon fill="none" stroke="#000000" stroke-width="0.5" stroke-miterlimit="10" points="3.086,1.24 1.585,2.791 1.585,5.023 
				5.247,1.24 			"/>
			<polygon fill="none" stroke="#000000" stroke-width="0.5" stroke-miterlimit="10" points="9.843,1.24 1.585,9.771 1.585,11.492 
				11.509,1.24 			"/>
			<polygon fill="none" stroke="#000000" stroke-width="0.5" stroke-miterlimit="10" points="13.981,1.24 1.585,14.046 
				1.585,16.609 16.461,1.24 			"/>
			<polygon fill="none" stroke="#000000" stroke-width="0.5" stroke-miterlimit="10" points="1.585,16.609 1.585,19.265 
				19.033,1.24 16.461,1.24 			"/>
			<path fill="none" stroke="#000000" stroke-width="0.5" stroke-miterlimit="10" d="M12.276,32.614h2.182l12.304-12.711
				c-0.52-0.223-1.089-0.39-1.688-0.511L12.276,32.614z"/>
			<path fill="none" stroke="#000000" stroke-width="0.5" stroke-miterlimit="10" d="M25.074,19.393
				c0.599,0.121,1.168,0.288,1.688,0.511l0.33-0.341v-0.521v0.521l4.498-4.646c-0.64-0.064-1.278-0.163-1.884-0.309L25.074,19.393z"
				/>
			<path fill="none" stroke="#000000" stroke-width="0.5" stroke-miterlimit="10" d="M42.645,1.24L29.706,14.608
				c0.605,0.146,1.244,0.244,1.884,0.309L44.827,1.24H42.645z"/>
			<polygon fill="none" stroke="#000000" stroke-width="0.5" stroke-miterlimit="10" points="30.399,1.24 1.585,31.009 
				1.585,32.614 1.909,32.614 32.278,1.24 			"/>
			<polygon fill="none" stroke="#000000" stroke-width="0.5" stroke-miterlimit="10" points="54.293,18.519 40.65,32.614 
				42.613,32.614 54.293,20.548 			"/>
			<polygon fill="none" stroke="#000000" stroke-width="0.5" stroke-miterlimit="10" points="54.293,20.548 42.613,32.614 
				44.774,32.614 54.293,22.78 			"/>
			<polygon fill="none" stroke="#000000" stroke-width="0.5" stroke-miterlimit="10" points="54.293,16.337 38.538,32.614 
				40.65,32.614 54.293,18.519 			"/>
			<path fill="none" stroke="#000000" stroke-width="0.5" stroke-miterlimit="10" d="M27.092,19.563l-0.33,0.341
				c0.109,0.047,0.226,0.086,0.33,0.138V19.563z"/>
			<path fill="none" stroke="#000000" stroke-width="0.5" stroke-miterlimit="10" d="M27.092,19.563v0.479
				c-0.104-0.052-0.221-0.091-0.33-0.138L14.458,32.614h1.667l17.035-17.6c-0.512-0.018-1.039-0.045-1.57-0.098L27.092,19.563z"/>
			<path fill="none" stroke="#000000" stroke-width="0.5" stroke-miterlimit="10" d="M44.827,1.24L31.59,14.917
				c0.531,0.053,1.059,0.08,1.57,0.098L46.493,1.24H44.827z"/>
			<polygon fill="none" stroke="#000000" stroke-width="0.5" stroke-miterlimit="10" points="54.293,22.78 44.774,32.614 
				47.188,32.614 54.293,25.272 			"/>
			<polygon fill="none" stroke="#000000" stroke-width="0.5" stroke-miterlimit="10" points="54.293,32.614 54.293,31.804 
				53.509,32.614 			"/>
			<polygon fill="none" stroke="#000000" stroke-width="0.5" stroke-miterlimit="10" points="54.293,31.804 54.293,29.249 
				51.036,32.614 53.509,32.614 			"/>
			<polygon fill="none" stroke="#000000" stroke-width="0.5" stroke-miterlimit="10" points="54.293,25.272 47.188,32.614 
				49.369,32.614 54.293,27.526 			"/>
			<polygon fill="none" stroke="#000000" stroke-width="0.5" stroke-miterlimit="10" points="54.293,27.526 49.369,32.614 
				51.036,32.614 54.293,29.249 			"/>
			<polygon fill="none" stroke="#000000" stroke-width="0.5" stroke-miterlimit="10" points="54.293,14.562 36.821,32.614 
				38.538,32.614 54.293,16.337 			"/>
			<polygon fill="none" stroke="#000000" stroke-width="0.5" stroke-miterlimit="10" points="54.293,12.699 35.016,32.614 
				36.821,32.614 54.293,14.562 			"/>
			<polygon fill="none" stroke="#000000" stroke-width="0.5" stroke-miterlimit="10" points="48.966,1.24 18.598,32.614 
				21.077,32.614 51.445,1.24 			"/>
			<path fill="none" stroke="#000000" stroke-width="0.5" stroke-miterlimit="10" d="M46.493,1.24L33.16,15.014
				c0.693,0.024,1.355,0.027,1.932,0.027c-0.576,0-1.238-0.003-1.932-0.027l-17.035,17.6h2.473L48.966,1.24H46.493z"/>
			<polygon fill="none" stroke="#000000" stroke-width="0.5" stroke-linecap="square" stroke-miterlimit="10" points="54.018,1.24 
				23.649,32.614 25.807,32.614 54.293,3.185 54.293,1.24 			"/>
			
				<polygon fill="none" stroke="#000000" stroke-width="0.5" stroke-linecap="square" stroke-linejoin="round" stroke-miterlimit="10" points="
				51.445,1.24 21.077,32.614 23.649,32.614 54.018,1.24 			"/>
			<polygon fill="none" stroke="#000000" stroke-width="0.5" stroke-miterlimit="10" points="54.293,7.748 30.224,32.614 
				32.41,32.614 54.293,10.005 			"/>
			<polygon fill="none" stroke="#000000" stroke-width="0.5" stroke-miterlimit="10" points="54.293,10.005 32.41,32.614 
				35.016,32.614 54.293,12.699 			"/>
			<polygon fill="none" stroke="#000000" stroke-width="0.5" stroke-miterlimit="10" points="25.807,32.614 28.05,32.614 
				54.293,5.501 54.293,3.185 			"/>
			<polygon fill="none" stroke="#000000" stroke-width="0.5" stroke-miterlimit="10" points="28.05,32.614 30.224,32.614 
				54.293,7.748 54.293,5.501 			"/>
		</g>
		
			<line fill="#FFFFFF" stroke="#000000" stroke-width="0.5" stroke-miterlimit="10" x1="27.939" y1="1.385" x2="27.939" y2="32.468"/>
		<g>
			<path fill="#FFFFFF" d="M23.397,1.213v17.938c1.314,0.118,2.643,0.363,3.694,0.89v-1v1c-1.052-0.526-2.38-0.771-3.694-0.89
				v13.646h9.083V1.213H23.397z"/>
			<path fill="#FFFFFF" d="M1.679,12.464v9.082h52.709v-9.082H1.679z M27.17,20.041c-2.036-1-5.09-1-7.126-1
				C22.08,19.041,25.134,19.041,27.17,20.041v-1V20.041z"/>
			<path fill="#FFFFFF" d="M7.705,1.162L1.486,1.255v4l24.038,14.233c0.56,0.139,1.093,0.315,1.567,0.553v-1v1
				c-0.475-0.237-1.008-0.414-1.567-0.553l22.774,13.485l5.594-0.156l0.5-4.031L7.705,1.162z"/>
			<path fill="#FFFFFF" d="M54.185,1.349L48.35,0.88L1.87,28.672l-0.248,3.964l6.248,0.286L54.256,5.193L54.185,1.349z
				 M27.092,20.041c-2-1-5-1-7-1C22.092,19.041,25.092,19.041,27.092,20.041v-1V20.041z"/>
		</g>
		<g>
			
				<line fill="#E30613" stroke="#000000" stroke-width="0.5" stroke-miterlimit="10" x1="1.638" y1="19.281" x2="54.158" y2="19.281"/>
			
				<line fill="#E30613" stroke="#000000" stroke-width="0.5" stroke-miterlimit="10" x1="1.638" y1="17.754" x2="54.158" y2="17.754"/>
			
				<line fill="#E30613" stroke="#000000" stroke-width="0.5" stroke-miterlimit="10" x1="1.638" y1="14.699" x2="54.158" y2="14.699"/>
			
				<line fill="#E30613" stroke="#000000" stroke-width="0.5" stroke-miterlimit="10" x1="1.638" y1="16.226" x2="54.158" y2="16.226"/>
		</g>
		<rect x="25.467" y="1.167" fill="#FFFFFF" width="4.625" height="31.625"/>
		<g>
			
				<line fill="#E30613" stroke="#000000" stroke-width="0.5" stroke-miterlimit="10" x1="25.67" y1="1.396" x2="25.67" y2="32.416"/>
			
				<line fill="#E30613" stroke="#000000" stroke-width="0.5" stroke-miterlimit="10" x1="27.197" y1="1.396" x2="27.197" y2="32.416"/>
			
				<line fill="#E30613" stroke="#000000" stroke-width="0.5" stroke-miterlimit="10" x1="30.253" y1="1.396" x2="30.253" y2="32.416"/>
			
				<line fill="#E30613" stroke="#000000" stroke-width="0.5" stroke-miterlimit="10" x1="28.726" y1="1.396" x2="28.726" y2="32.416"/>
		</g>
		
			<rect x="1.585" y="1.24" fill="none" stroke="#000000" stroke-width="0.5" stroke-miterlimit="10" width="52.708" height="31.375"/>
		<g>
			
				<line fill="none" stroke="#000000" stroke-width="0.5" stroke-miterlimit="10" x1="30.978" y1="19.265" x2="53.842" y2="32.666"/>
			<line fill="none" stroke="#000000" stroke-width="0.5" stroke-miterlimit="10" x1="1.592" y1="2.042" x2="22.98" y2="14.578"/>
			<path fill="none" stroke="#000000" stroke-width="0.5" stroke-miterlimit="10" d="M54.779,31.479"/>
			
				<line fill="none" stroke="#000000" stroke-width="0.5" stroke-miterlimit="10" x1="34.335" y1="19.495" x2="54.039" y2="31.044"/>
			<line fill="none" stroke="#000000" stroke-width="0.5" stroke-miterlimit="10" x1="34.104" y1="19.36" x2="34.335" y2="19.495"/>
			<line fill="none" stroke="#000000" stroke-width="0.5" stroke-miterlimit="10" x1="3.414" y1="1.373" x2="25.62" y2="14.387"/>
			<line fill="none" stroke="#000000" stroke-width="0.5" stroke-miterlimit="10" x1="33.352" y1="14.633" x2="54.505" y2="2.173"/>
			<path fill="none" stroke="#000000" stroke-width="0.5" stroke-miterlimit="10" d="M33.352,14.633"/>
			<line fill="none" stroke="#000000" stroke-width="0.5" stroke-miterlimit="10" x1="2.914" y1="32.56" x2="25.352" y2="19.344"/>
			<line fill="none" stroke="#000000" stroke-width="0.5" stroke-miterlimit="10" x1="30.581" y1="14.524" x2="52.97" y2="1.317"/>
			<path fill="none" stroke="#000000" stroke-width="0.5" stroke-miterlimit="10" d="M30.581,14.524"/>
			<line fill="none" stroke="#000000" stroke-width="0.5" stroke-miterlimit="10" x1="1.75" y1="31.529" x2="22.547" y2="19.263"/>
		</g>
	</g>
</g>
<g id="Ebene_5" display="none">
	<g display="inline">
		<polygon fill="#2D2E83" stroke="#000000" stroke-width="0.5" stroke-miterlimit="10" points="27.794,1.24 1.585,28.317 
			1.585,31.009 30.399,1.24 		"/>
		<polygon fill="#2D2E83" stroke="#000000" stroke-width="0.5" stroke-miterlimit="10" points="1.585,26.058 1.585,28.317 
			27.794,1.24 25.607,1.24 		"/>
		<polygon fill="#2D2E83" stroke="#000000" stroke-width="0.5" stroke-miterlimit="10" points="23.434,1.24 1.585,23.812 
			1.585,26.058 25.607,1.24 		"/>
		<polygon fill="#2D2E83" stroke="#000000" stroke-width="0.5" stroke-miterlimit="10" points="32.278,1.24 1.909,32.614 
			3.626,32.614 33.995,1.24 		"/>
		<path fill="#2D2E83" stroke="#000000" stroke-width="0.5" stroke-miterlimit="10" d="M36.107,1.24L5.739,32.614h1.963
			l13.136-13.571c-0.26-0.002-0.511-0.002-0.746-0.002c0.235,0,0.486,0,0.746,0.002L38.07,1.24H36.107z"/>
		<polygon fill="#2D2E83" stroke="#000000" stroke-width="0.5" stroke-miterlimit="10" points="33.995,1.24 3.626,32.614 
			5.739,32.614 36.107,1.24 		"/>
		<path fill="#2D2E83" stroke="#000000" stroke-width="0.5" stroke-miterlimit="10" d="M7.702,32.614h2.161L22.93,19.115
			c-0.729-0.05-1.443-0.068-2.092-0.072L7.702,32.614z"/>
		<path fill="#2D2E83" stroke="#000000" stroke-width="0.5" stroke-miterlimit="10" d="M38.07,1.24L20.838,19.043
			c0.648,0.004,1.362,0.022,2.092,0.072L40.231,1.24H38.07z"/>
		<path fill="#2D2E83" stroke="#000000" stroke-width="0.5" stroke-miterlimit="10" d="M9.863,32.614h2.413l12.798-13.222
			c-0.699-0.143-1.427-0.229-2.145-0.277L9.863,32.614z"/>
		<path fill="#2D2E83" stroke="#000000" stroke-width="0.5" stroke-miterlimit="10" d="M40.231,1.24L22.93,19.115
			c0.718,0.049,1.445,0.135,2.145,0.277l4.632-4.785c-0.578-0.14-1.126-0.322-1.614-0.566v1v-1c0.488,0.244,1.036,0.427,1.614,0.566
			L42.645,1.24H40.231z"/>
		<polygon fill="#2D2E83" stroke="#000000" stroke-width="0.5" stroke-miterlimit="10" points="21.19,1.24 1.585,21.495 
			1.585,23.812 23.434,1.24 		"/>
		<polygon fill="#2D2E83" stroke="#000000" stroke-width="0.5" stroke-miterlimit="10" points="11.509,1.24 1.585,11.492 
			1.585,14.046 13.981,1.24 		"/>
		<polygon fill="#2D2E83" stroke="#000000" stroke-width="0.5" stroke-miterlimit="10" points="19.033,1.24 1.585,19.265 
			1.585,21.495 21.19,1.24 		"/>
		<polygon fill="#2D2E83" stroke="#000000" stroke-width="0.5" stroke-miterlimit="10" points="5.247,1.24 1.585,5.023 1.585,7.517 
			7.661,1.24 		"/>
		<polygon fill="#2D2E83" stroke="#000000" stroke-width="0.5" stroke-miterlimit="10" points="1.585,1.24 1.585,2.791 3.086,1.24 
					"/>
		<polygon fill="#2D2E83" stroke="#000000" stroke-width="0.5" stroke-miterlimit="10" points="7.661,1.24 1.585,7.517 1.585,9.771 
			9.843,1.24 		"/>
		<polygon fill="#2D2E83" stroke="#000000" stroke-width="0.5" stroke-miterlimit="10" points="3.086,1.24 1.585,2.791 1.585,5.023 
			5.247,1.24 		"/>
		<polygon fill="#2D2E83" stroke="#000000" stroke-width="0.5" stroke-miterlimit="10" points="9.843,1.24 1.585,9.771 
			1.585,11.492 11.509,1.24 		"/>
		<polygon fill="#2D2E83" stroke="#000000" stroke-width="0.5" stroke-miterlimit="10" points="13.981,1.24 1.585,14.046 
			1.585,16.609 16.461,1.24 		"/>
		<polygon fill="#2D2E83" stroke="#000000" stroke-width="0.5" stroke-miterlimit="10" points="1.585,16.609 1.585,19.265 
			19.033,1.24 16.461,1.24 		"/>
		<path fill="#2D2E83" stroke="#000000" stroke-width="0.5" stroke-miterlimit="10" d="M12.276,32.614h2.182l12.304-12.711
			c-0.52-0.223-1.089-0.39-1.688-0.511L12.276,32.614z"/>
		<path fill="#2D2E83" stroke="#000000" stroke-width="0.5" stroke-miterlimit="10" d="M25.074,19.393
			c0.599,0.121,1.168,0.288,1.688,0.511l0.33-0.341v-0.521v0.521l4.498-4.646c-0.64-0.064-1.278-0.163-1.884-0.309L25.074,19.393z"
			/>
		<path fill="#2D2E83" stroke="#000000" stroke-width="0.5" stroke-miterlimit="10" d="M42.645,1.24L29.706,14.608
			c0.605,0.146,1.244,0.244,1.884,0.309L44.827,1.24H42.645z"/>
		<polygon fill="#2D2E83" stroke="#000000" stroke-width="0.5" stroke-miterlimit="10" points="30.399,1.24 1.585,31.009 
			1.585,32.614 1.909,32.614 32.278,1.24 		"/>
		<polygon fill="#2D2E83" stroke="#000000" stroke-width="0.5" stroke-miterlimit="10" points="54.293,18.519 40.65,32.614 
			42.613,32.614 54.293,20.548 		"/>
		<polygon fill="#2D2E83" stroke="#000000" stroke-width="0.5" stroke-miterlimit="10" points="54.293,20.548 42.613,32.614 
			44.774,32.614 54.293,22.78 		"/>
		<polygon fill="#2D2E83" stroke="#000000" stroke-width="0.5" stroke-miterlimit="10" points="54.293,16.337 38.538,32.614 
			40.65,32.614 54.293,18.519 		"/>
		<path fill="#2D2E83" stroke="#000000" stroke-width="0.5" stroke-miterlimit="10" d="M27.092,19.563l-0.33,0.341
			c0.109,0.047,0.226,0.086,0.33,0.138V19.563z"/>
		<path fill="#2D2E83" stroke="#000000" stroke-width="0.5" stroke-miterlimit="10" d="M27.092,19.563v0.479
			c-0.104-0.052-0.221-0.091-0.33-0.138L14.458,32.614h1.667l17.035-17.6c-0.512-0.018-1.039-0.045-1.57-0.098L27.092,19.563z"/>
		<path fill="#2D2E83" stroke="#000000" stroke-width="0.5" stroke-miterlimit="10" d="M44.827,1.24L31.59,14.917
			c0.531,0.053,1.059,0.08,1.57,0.098L46.493,1.24H44.827z"/>
		<polygon fill="#2D2E83" stroke="#000000" stroke-width="0.5" stroke-miterlimit="10" points="54.293,22.78 44.774,32.614 
			47.188,32.614 54.293,25.272 		"/>
		<polygon fill="#2D2E83" stroke="#000000" stroke-width="0.5" stroke-miterlimit="10" points="54.293,32.614 54.293,31.804 
			53.509,32.614 		"/>
		<polygon fill="#2D2E83" stroke="#000000" stroke-width="0.5" stroke-miterlimit="10" points="54.293,31.804 54.293,29.249 
			51.036,32.614 53.509,32.614 		"/>
		<polygon fill="#2D2E83" stroke="#000000" stroke-width="0.5" stroke-miterlimit="10" points="54.293,25.272 47.188,32.614 
			49.369,32.614 54.293,27.526 		"/>
		<polygon fill="#2D2E83" stroke="#000000" stroke-width="0.5" stroke-miterlimit="10" points="54.293,27.526 49.369,32.614 
			51.036,32.614 54.293,29.249 		"/>
		<polygon fill="#2D2E83" stroke="#000000" stroke-width="0.5" stroke-miterlimit="10" points="54.293,14.562 36.821,32.614 
			38.538,32.614 54.293,16.337 		"/>
		<polygon fill="#2D2E83" stroke="#000000" stroke-width="0.5" stroke-miterlimit="10" points="54.293,12.699 35.016,32.614 
			36.821,32.614 54.293,14.562 		"/>
		<polygon fill="#2D2E83" stroke="#000000" stroke-width="0.5" stroke-miterlimit="10" points="48.966,1.24 18.598,32.614 
			21.077,32.614 51.445,1.24 		"/>
		<path fill="#2D2E83" stroke="#000000" stroke-width="0.5" stroke-miterlimit="10" d="M46.493,1.24L33.16,15.014
			c0.693,0.024,1.355,0.027,1.932,0.027c-0.576,0-1.238-0.003-1.932-0.027l-17.035,17.6h2.473L48.966,1.24H46.493z"/>
		<polygon fill="#2D2E83" stroke="#000000" stroke-width="0.5" stroke-linecap="square" stroke-miterlimit="10" points="
			54.018,1.24 23.649,32.614 25.807,32.614 54.293,3.185 54.293,1.24 		"/>
		
			<polygon fill="#2D2E83" stroke="#000000" stroke-width="0.5" stroke-linecap="square" stroke-linejoin="round" stroke-miterlimit="10" points="
			51.445,1.24 21.077,32.614 23.649,32.614 54.018,1.24 		"/>
		<polygon fill="#2D2E83" stroke="#000000" stroke-width="0.5" stroke-miterlimit="10" points="54.293,7.748 30.224,32.614 
			32.41,32.614 54.293,10.005 		"/>
		<polygon fill="#2D2E83" stroke="#000000" stroke-width="0.5" stroke-miterlimit="10" points="54.293,10.005 32.41,32.614 
			35.016,32.614 54.293,12.699 		"/>
		<polygon fill="#2D2E83" stroke="#000000" stroke-width="0.5" stroke-miterlimit="10" points="25.807,32.614 28.05,32.614 
			54.293,5.501 54.293,3.185 		"/>
		<polygon fill="#2D2E83" stroke="#000000" stroke-width="0.5" stroke-miterlimit="10" points="28.05,32.614 30.224,32.614 
			54.293,7.748 54.293,5.501 		"/>
	</g>
	
		<line display="inline" fill="#FFFFFF" stroke="#000000" stroke-width="0.5" stroke-miterlimit="10" x1="27.939" y1="1.385" x2="27.939" y2="32.468"/>
	<g display="inline">
		<path fill="#FFFFFF" d="M23.397,1.213v17.938c1.314,0.118,2.643,0.363,3.694,0.89v-1v1c-1.052-0.526-2.38-0.771-3.694-0.89v13.646
			h9.083V1.213H23.397z"/>
		<path fill="#FFFFFF" d="M2.054,12.464v9.082h51.771v-9.082H2.054z M27.092,20.041c-2-1-5-1-7-1
			C22.092,19.041,25.092,19.041,27.092,20.041v-1V20.041z"/>
		<path fill="#FFFFFF" d="M7.705,1.162L1.486,1.255v4l24.038,14.233c0.56,0.139,1.093,0.315,1.567,0.553v-1v1
			c-0.475-0.237-1.008-0.414-1.567-0.553l22.774,13.485l5.594-0.156l0.5-4.031L7.705,1.162z"/>
		<path fill="#FFFFFF" d="M54.185,1.349L48.35,0.88L1.87,28.672l-0.248,3.964l6.248,0.286L54.256,5.193L54.185,1.349z
			 M27.092,20.041c-2-1-5-1-7-1C22.092,19.041,25.092,19.041,27.092,20.041v-1V20.041z"/>
	</g>
	<g display="inline">
		<line fill="none" stroke="#E30613" stroke-width="1.5" stroke-miterlimit="10" x1="2.063" y1="1.76" x2="53.813" y2="32.093"/>
		<line fill="none" stroke="#E30613" stroke-width="2" stroke-miterlimit="10" x1="2.022" y1="32.177" x2="53.855" y2="1.677"/>
		<line fill="none" stroke="#E30613" stroke-width="5" stroke-miterlimit="10" x1="27.938" y1="1.135" x2="27.938" y2="32.718"/>
		<line fill="none" stroke="#E30613" stroke-width="5" stroke-miterlimit="10" x1="1.522" y1="16.927" x2="54.355" y2="16.927"/>
	</g>
	<g display="inline">
		
			<line fill="#E30613" stroke="#000000" stroke-width="0.5" stroke-miterlimit="10" x1="1.519" y1="19.281" x2="54.262" y2="19.281"/>
		
			<line fill="#E30613" stroke="#000000" stroke-width="0.5" stroke-miterlimit="10" x1="1.519" y1="17.754" x2="54.262" y2="17.754"/>
		
			<line fill="#E30613" stroke="#000000" stroke-width="0.5" stroke-miterlimit="10" x1="1.519" y1="14.699" x2="54.262" y2="14.699"/>
		
			<line fill="#E30613" stroke="#000000" stroke-width="0.5" stroke-miterlimit="10" x1="1.519" y1="16.226" x2="54.262" y2="16.226"/>
	</g>
	<rect x="25.467" y="1.167" display="inline" fill="#E30613" width="4.625" height="31.625"/>
	<g display="inline">
		<line fill="#E30613" stroke="#000000" stroke-width="0.5" stroke-miterlimit="10" x1="25.67" y1="1.396" x2="25.67" y2="32.416"/>
		
			<line fill="#E30613" stroke="#000000" stroke-width="0.5" stroke-miterlimit="10" x1="27.197" y1="1.396" x2="27.197" y2="32.416"/>
		
			<line fill="#E30613" stroke="#000000" stroke-width="0.5" stroke-miterlimit="10" x1="30.253" y1="1.396" x2="30.253" y2="32.416"/>
		
			<line fill="#E30613" stroke="#000000" stroke-width="0.5" stroke-miterlimit="10" x1="28.726" y1="1.396" x2="28.726" y2="32.416"/>
	</g>
	
		<rect x="1.585" y="1.24" display="inline" fill="none" stroke="#000000" stroke-width="0.5" stroke-miterlimit="10" width="52.708" height="31.375"/>
	<g display="inline">
		<line fill="none" stroke="#000000" stroke-width="0.5" stroke-miterlimit="10" x1="30.978" y1="19.265" x2="53.842" y2="32.666"/>
		<line fill="none" stroke="#000000" stroke-width="0.5" stroke-miterlimit="10" x1="1.592" y1="2.042" x2="22.98" y2="14.578"/>
		<path fill="none" stroke="#000000" stroke-width="0.5" stroke-miterlimit="10" d="M54.779,31.479"/>
		<line fill="none" stroke="#000000" stroke-width="0.5" stroke-miterlimit="10" x1="34.335" y1="19.495" x2="54.039" y2="31.044"/>
		<line fill="none" stroke="#000000" stroke-width="0.5" stroke-miterlimit="10" x1="34.104" y1="19.36" x2="34.335" y2="19.495"/>
		<line fill="none" stroke="#000000" stroke-width="0.5" stroke-miterlimit="10" x1="3.414" y1="1.373" x2="25.62" y2="14.387"/>
		<line fill="none" stroke="#000000" stroke-width="0.5" stroke-miterlimit="10" x1="33.352" y1="14.633" x2="54.505" y2="2.173"/>
		<path fill="none" stroke="#000000" stroke-width="0.5" stroke-miterlimit="10" d="M33.352,14.633"/>
		<line fill="none" stroke="#000000" stroke-width="0.5" stroke-miterlimit="10" x1="2.914" y1="32.56" x2="25.352" y2="19.344"/>
		<line fill="none" stroke="#000000" stroke-width="0.5" stroke-miterlimit="10" x1="30.581" y1="14.524" x2="52.97" y2="1.317"/>
		<path fill="none" stroke="#000000" stroke-width="0.5" stroke-miterlimit="10" d="M30.581,14.524"/>
		<line fill="none" stroke="#000000" stroke-width="0.5" stroke-miterlimit="10" x1="1.75" y1="31.529" x2="22.547" y2="19.263"/>
	</g>
</g>
<g id="Ebene_3" display="none">
	
		<rect x="-0.212" y="-0.083" display="inline" fill="none" stroke="#000000" stroke-miterlimit="10" width="56.69" height="34.019"/>
</g>
</svg>
