<?xml version="1.0" encoding="utf-8"?>
<!-- Generator: Adobe Illustrator 25.0.0, SVG Export Plug-In . SVG Version: 6.00 Build 0)  -->
<svg version="1.1" id="icon" xmlns="http://www.w3.org/2000/svg" xmlns:xlink="http://www.w3.org/1999/xlink" x="0px" y="0px"
	 viewBox="0 0 240.9 240.9" style="enable-background:new 0 0 240.9 240.9;" xml:space="preserve">
<style type="text/css">
	.st0{enable-background:new    ;}
	.st1{fill:#FFFFFF;}
</style>
<g id="officina" class="st0">
	<path class="st1" d="M56.8,171.7c-1.9,0-3.5-0.4-5-1.2c-1.5-0.8-2.7-1.9-3.8-3.3s-1.8-3.1-2.4-5s-0.8-3.9-0.8-6.1
		c0-2.4,0.3-4.6,0.8-6.6s1.4-3.7,2.4-5.1c1.1-1.4,2.4-2.5,3.9-3.3c1.5-0.8,3.3-1.2,5.3-1.2c1.8,0,3.4,0.4,4.9,1.2
		c1.4,0.8,2.7,1.9,3.7,3.2c1,1.4,1.8,3,2.3,4.9c0.5,1.9,0.8,4,0.8,6.2c0,2.3-0.3,4.5-0.8,6.5s-1.3,3.7-2.3,5.2
		c-1,1.5-2.3,2.6-3.8,3.4S58.8,171.7,56.8,171.7z M57,142.4c-1.6,0-2.9,0.4-4.1,1.1c-1.2,0.7-2.2,1.7-3,2.9
		c-0.8,1.2-1.4,2.6-1.9,4.3c-0.4,1.6-0.6,3.4-0.7,5.2c0,1.8,0.2,3.4,0.6,5c0.4,1.6,1,3,1.8,4.2c0.8,1.2,1.8,2.2,3,2.9
		s2.6,1.1,4.2,1.1c1.6,0,3-0.3,4.2-1c1.2-0.7,2.2-1.6,3-2.8c0.8-1.2,1.4-2.6,1.8-4.2c0.4-1.6,0.6-3.4,0.6-5.4c0-1.8-0.2-3.5-0.5-5.1
		c-0.4-1.6-0.9-3-1.7-4.2c-0.8-1.2-1.8-2.2-2.9-2.9C60.1,142.7,58.7,142.4,57,142.4z"/>
	<path class="st1" d="M76.5,142.9v11.6h9.4v2.6h-9.4v14h-2.4v-30.8h12.5v2.6H76.5z"/>
	<path class="st1" d="M94,142.9v11.6h9.4v2.6H94v14h-2.4v-30.8h12.5v2.6H94z"/>
	<path class="st1" d="M111.5,171.1h-2.4v-30.8h2.4V171.1z"/>
	<path class="st1" d="M135.5,170c-2,1.1-4.2,1.7-6.8,1.7c-1.8,0-3.5-0.4-4.9-1.1c-1.5-0.8-2.7-1.8-3.8-3.2s-1.9-3-2.4-4.9
		c-0.6-1.9-0.9-3.9-0.9-6.2c0-2.3,0.3-4.5,0.9-6.5c0.6-2,1.5-3.8,2.6-5.2c1.1-1.5,2.5-2.6,4.1-3.5c1.6-0.8,3.4-1.3,5.4-1.3
		c2.2,0,4.1,0.4,5.9,1.2v3.1c-1.8-1.1-3.8-1.7-5.9-1.7c-1.7,0-3.1,0.3-4.4,1c-1.3,0.7-2.4,1.6-3.3,2.9s-1.6,2.7-2,4.3
		c-0.5,1.7-0.7,3.5-0.7,5.5c0,1.8,0.2,3.5,0.6,5s1,2.9,1.9,4.1c0.8,1.2,1.8,2.1,3.1,2.8c1.2,0.7,2.6,1,4.2,1c2.5,0,4.6-0.6,6.5-1.9
		L135.5,170L135.5,170z"/>
	<path class="st1" d="M143.4,171.1H141v-30.8h2.4V171.1z"/>
	<path class="st1" d="M167.7,171.1l-14.3-24.8c-0.2-0.3-0.4-0.6-0.5-1c-0.2-0.3-0.3-0.7-0.4-1h-0.1c0,0.3,0,0.6,0.1,1.1
		c0,0.5,0,1,0,1.7v23.9h-2.4v-30.8h2.6l14,24.5c0.2,0.4,0.4,0.8,0.6,1.1c0.2,0.3,0.3,0.6,0.5,0.9h0.1c0-0.5-0.1-1-0.1-1.6s0-1.2,0-2
		v-22.9h2.4v30.8L167.7,171.1L167.7,171.1z"/>
	<path class="st1" d="M193.5,171.1l-2.8-9.1h-11l-2.8,9.1h-2.7l9.8-30.8h2.4l9.7,30.8L193.5,171.1L193.5,171.1z M185.6,145.7
		c-0.1-0.3-0.2-0.6-0.3-0.9c-0.1-0.4-0.2-0.8-0.2-1.2h-0.1c-0.1,0.5-0.2,0.9-0.2,1.2c-0.1,0.4-0.2,0.7-0.3,0.9l-4.2,13.7h9.4
		L185.6,145.7z"/>
</g>
<g id="alimentare" class="st0">
	<path class="st1" d="M36.6,215.2l-2.8-9.1h-11l-2.8,9.1h-2.7l9.8-30.8h2.4l9.7,30.8H36.6z M28.8,189.7c-0.1-0.3-0.2-0.6-0.3-0.9
		s-0.2-0.8-0.2-1.2h-0.1c-0.1,0.5-0.2,0.9-0.2,1.2c-0.1,0.4-0.2,0.7-0.3,0.9l-4.2,13.7H33L28.8,189.7z"/>
	<path class="st1" d="M43.3,215.2v-30.8h2.4v28.2H56v2.6H43.3z"/>
	<path class="st1" d="M62.7,215.2h-2.4v-30.8h2.4V215.2z"/>
	<path class="st1" d="M92.2,215.2v-21.3c0-1.1,0.1-2.8,0.2-5.3h-0.1c-0.2,0.6-0.3,1.2-0.5,1.7s-0.3,0.9-0.4,1.2l-9,23.7h-1l-9-23.6
		c-0.3-0.7-0.5-1.7-0.8-3h-0.1c0,0.7,0.1,1.4,0.1,2.3s0,1.8,0,2.8v21.5h-2.3v-30.8h2.8l8.7,23.2c0.2,0.5,0.4,1,0.5,1.5
		c0.2,0.5,0.3,1.1,0.5,1.6h0.1c0.2-0.6,0.3-1.1,0.5-1.6c0.1-0.5,0.3-1,0.5-1.5l8.8-23.2h2.7v30.8L92.2,215.2L92.2,215.2z"/>
	<path class="st1" d="M101.2,215.2v-30.8h12.5v2.6h-10.1v11.3h9.4v2.6h-9.4v11.7h10.7v2.6H101.2z"/>
	<path class="st1" d="M137.3,215.2L123,190.4c-0.2-0.3-0.4-0.6-0.5-1c-0.2-0.3-0.3-0.7-0.4-1H122c0,0.3,0,0.6,0.1,1.1s0,1,0,1.7
		v23.9h-2.4v-30.8h2.6l14,24.5c0.2,0.4,0.4,0.7,0.6,1.1c0.2,0.3,0.3,0.6,0.5,0.9h0.1c0-0.5-0.1-1-0.1-1.6c0-0.6,0-1.2,0-2v-22.9h2.4
		v30.8L137.3,215.2L137.3,215.2z"/>
	<path class="st1" d="M153.8,186.9v28.2h-2.4v-28.2H144v-2.6h17.2v2.6H153.8z"/>
	<path class="st1" d="M179.3,215.2l-2.8-9.1h-11l-2.8,9.1H160l9.8-30.8h2.4l9.7,30.8H179.3z M171.5,189.7c-0.1-0.3-0.2-0.6-0.3-0.9
		c-0.1-0.4-0.2-0.8-0.2-1.2h-0.1c-0.1,0.5-0.2,0.9-0.2,1.2c-0.1,0.4-0.2,0.7-0.3,0.9l-4.2,13.7h9.4L171.5,189.7z"/>
	<path class="st1" d="M200,215.2l-3.9-8.8c-0.4-0.9-0.8-1.6-1.1-2.2c-0.4-0.6-0.7-1.1-1.1-1.4c-0.4-0.4-0.8-0.6-1.2-0.8
		c-0.4-0.1-0.9-0.2-1.5-0.2h-2.8v13.4H186v-30.8h7.4c1,0,1.9,0.2,2.8,0.5s1.7,0.9,2.4,1.5s1.3,1.5,1.7,2.5s0.6,2.2,0.6,3.5
		c0,1.1-0.1,2.1-0.4,3s-0.7,1.7-1.2,2.4c-0.5,0.7-1.1,1.3-1.8,1.8c-0.7,0.5-1.5,0.9-2.4,1.1v0.1c0.3,0.2,0.7,0.4,1,0.7
		c0.3,0.3,0.6,0.6,0.8,1s0.5,0.8,0.8,1.3c0.3,0.5,0.5,1.1,0.8,1.7l4.3,9.6L200,215.2L200,215.2z M188.4,186.9v12.2h4.3
		c0.9,0,1.6-0.1,2.4-0.5c0.7-0.3,1.3-0.7,1.8-1.3c0.5-0.6,0.9-1.2,1.2-2s0.4-1.7,0.4-2.7c0-1.8-0.5-3.2-1.4-4.2s-2.4-1.5-4.2-1.5
		H188.4z"/>
	<path class="st1" d="M207.2,215.2v-30.8h12.5v2.6h-10.1v11.3h9.4v2.6h-9.4v11.7h10.7v2.6H207.2z"/>
</g>
<g id="arrow">
	<path class="st1" d="M17.8,101.3c0,0,2.5,1.2,7.2,3l1.3-1.3C23.4,102.5,20.6,101.9,17.8,101.3z"/>
	<path class="st1" d="M223.6,101.3c0,0-1.1,0.2-3.1,0.5l-1.5,1.5C220.6,102.7,222.1,102,223.6,101.3z"/>
	<path class="st1" d="M189.3,105.9c-3.7,0.4-7.6,0.8-11.8,1.2c-3.6,0.3-7.3,0.6-11.2,0.9c-3.5,0.3-7.2,0.5-11,0.8
		c-2.4,0.1-4.8,0.3-7.3,0.4c-3.1,0.2-6.2,0.3-9.5,0.4c-3.4,0.1-6.8,0.2-10.3,0.3c-3,0.1-6,0.1-9.1,0.2c-2.7,0-5.4,0-8.2,0
		c-2.9,0-5.8,0-8.7-0.1c-2.3,0-4.6-0.1-7-0.2c-2.5-0.1-5-0.2-7.5-0.3c-3.4-0.1-6.8-0.3-10.3-0.5c-2.8-0.2-5.7-0.4-8.5-0.6
		c-2.8-0.2-5.5-0.5-8.3-0.7c-2.8-0.3-5.6-0.6-8.4-0.9c-2.7-0.3-5.3-0.6-8-1c-3.1-0.4-6.2-0.9-9.3-1.4c-2.9-0.5-5.9-1-8.8-1.5
		l-1.3,1.3c2.1,0.8,4.6,1.8,7.6,2.8c2.4,0.8,5.1,1.7,8.1,2.7c2.2,0.7,4.5,1.4,6.9,2.1c2.3,0.7,4.8,1.3,7.4,2
		c2.3,0.6,4.8,1.2,7.3,1.8c2.4,0.6,4.9,1.1,7.5,1.6c3,0.6,6,1.1,9.2,1.7c2.2,0.4,4.5,0.7,6.8,1c2.1,0.3,4.2,0.6,6.3,0.8
		c2.6,0.3,5.3,0.6,8,0.8c2.5,0.2,5,0.4,7.6,0.6c2.8,0.2,5.7,0.3,8.6,0.4c3.3,0.1,6.6,0.1,9.9,0.1c3.1,0,6.2-0.1,9.3-0.3
		c2.4-0.1,4.9-0.2,7.3-0.4c3.7-0.3,7.5-0.6,11.3-1.1c3.9-0.5,7.9-1,11.9-1.7c4.4-0.7,8.8-1.6,13.2-2.7c3.9-0.9,7.9-1.9,11.9-3.1
		c4.5-1.3,8.9-2.7,13.4-4.3c4.8-1.7,9.7-3.6,14.5-5.7l1.5-1.5c-2.3,0.4-5.9,0.9-10.5,1.6c-3.1,0.4-6.6,0.9-10.6,1.4
		C196.3,105.2,192.9,105.5,189.3,105.9z"/>
	<polygon class="st1" points="145.4,57.5 146,57.5 148.3,55.2 	"/>
	<path class="st1" d="M123.6,102c1.1,0.1,2.1,0.2,3.2,0.2l1.1-1.1C125.3,101.7,123.6,102,123.6,102z"/>
	<path class="st1" d="M208.6,46.6l-5.1-4.1l-5.6-4.5l-5-4l-4.6-3.7l-4.4-3.5l-4.2,3.4l-31.3,25l-2.3,2.4h7.1h8.8h7.1
		c-0.1,0.5-0.2,0.9-0.2,1.4c-0.9,5.1-2.3,9.6-4.2,13.6c-5.4,11.7-14.3,18.8-22.4,23.1c-5.6,3-10.8,4.6-14.2,5.5l-1.1,1.1
		c3,0.2,5.8,0.4,8.5,0.4c3.6,0.1,7,0,10.3-0.3c3.7-0.3,7.1-0.7,10.3-1.3c3.3-0.6,6.4-1.4,9.2-2.4c21.9-7.3,29.1-22.9,31.5-32.6
		c1.2-4.9,1.2-8.3,1.2-8.3h6.8h10.2h7.8l-4.4-3.5l-5.8-4.6L208.6,46.6z"/>
</g>
</svg>
