<?xml version="1.0" encoding="UTF-8"?>
<!DOCTYPE svg  PUBLIC '-//W3C//DTD SVG 1.1//EN'  'http://www.w3.org/Graphics/SVG/1.1/DTD/svg11.dtd'>
<svg enable-background="new 0 0 240.94 240.94" version="1.1" viewBox="0 0 240.94 240.94" xml:space="preserve" xmlns="http://www.w3.org/2000/svg" xmlns:xlink="http://www.w3.org/1999/xlink">
	<circle cx="121.15" cy="120.66" r="116"/>
	<g fill="#fff">
		<path d="m44.871 107.82s61.109 15.218 152.19 0.468c0 0-62.282 35.824-152.19-0.468z"/>
		<path d="m123.78 109.46s30.438-5.386 32.779-33.95h-17.327l27.863-23.18 30.334 23.15-18.16 0.03s-9.909 33.33-34.739 33.833c-5.106 0.103-20.75 0.117-20.75 0.117z"/>
	</g>
	<g fill="#fff" stroke="#fff" stroke-miterlimit="10">
		<path d="m80.947 157.89c-2.375 0-4.268-0.789-5.678-2.367s-2.115-3.629-2.115-6.152c0-2.68 0.725-4.826 2.174-6.439s3.428-2.42 5.936-2.42c2.266 0 4.1 0.775 5.502 2.326s2.104 3.584 2.104 6.1c0 2.781-0.719 4.969-2.156 6.563s-3.361 2.389-5.767 2.389zm0.117-16.325c-1.953 0-3.561 0.707-4.822 2.121s-1.893 3.266-1.893 5.555c0 2.313 0.598 4.154 1.793 5.525s2.789 2.057 4.781 2.057c2.078 0 3.723-0.678 4.934-2.033s1.816-3.244 1.816-5.666c0-2.375-0.592-4.229-1.775-5.561s-2.795-1.998-4.834-1.998z"/>
		<path d="m93.462 141.86v6.855h6.211v1.055h-6.211v7.828h-1.16v-16.804h7.852v1.066h-6.692z"/>
		<path d="m104.62 141.86v6.855h6.211v1.055h-6.211v7.828h-1.16v-16.804h7.852v1.066h-6.692z"/>
		<path d="m114.62 157.6v-16.805h1.16v16.805h-1.16z"/>
		<path d="m131.26 157.04c-1.359 0.563-2.777 0.844-4.254 0.844-2.297 0-4.17-0.771-5.619-2.314-1.45-1.543-2.174-3.557-2.174-6.041 0-2.727 0.785-4.912 2.356-6.557 1.57-1.645 3.566-2.467 5.988-2.467 1.289 0 2.523 0.207 3.703 0.621v1.23c-1.18-0.531-2.422-0.797-3.727-0.797-2.109 0-3.824 0.715-5.145 2.145s-1.981 3.332-1.981 5.707c0 2.289 0.631 4.096 1.893 5.42s2.861 1.986 4.799 1.986c1.547 0 2.934-0.301 4.16-0.902v1.125z"/>
		<path d="m134.99 157.6v-16.805h1.16v16.805h-1.16z"/>
		<path d="m152.35 157.6-10.008-13.582c-0.203-0.273-0.383-0.547-0.539-0.82l-0.152-0.234h-0.047c0.016 0.203 0.023 0.449 0.023 0.738v13.898h-1.16v-16.805h0.891l9.938 13.465c0.219 0.297 0.457 0.656 0.715 1.078h0.059c-0.039-0.547-0.059-1.016-0.059-1.406v-13.137h1.16v16.805h-0.821z"/>
		<path d="m168.43 157.6-1.922-5.227h-7.289l-1.922 5.227h-1.277l6.34-16.805h1.102l6.27 16.805h-1.302zm-5.157-14.063c-0.086-0.234-0.156-0.465-0.211-0.691-0.055-0.195-0.113-0.391-0.176-0.586h-0.047c-0.133 0.516-0.262 0.934-0.387 1.254l-2.824 7.793h6.48l-2.835-7.77z"/>
		<path d="m68.044 186.4-1.922-5.227h-7.289l-1.922 5.227h-1.277l6.34-16.805h1.102l6.27 16.805h-1.302zm-5.156-14.063c-0.086-0.234-0.156-0.465-0.211-0.691-0.055-0.195-0.113-0.391-0.176-0.586h-0.047c-0.133 0.516-0.262 0.934-0.387 1.254l-2.824 7.793h6.48l-2.835-7.77z"/>
		<path d="m72.193 186.4v-16.805h1.16v15.75h6.738v1.055h-7.898z"/>
		<path d="m83.185 186.4v-16.805h1.16v16.805h-1.16z"/>
		<path d="m103.22 186.4v-11.93c0-0.289 0.043-1.113 0.129-2.473h-0.047c-0.242 0.633-0.445 1.121-0.609 1.465l-5.977 12.938h-0.375l-6-12.867c-0.195-0.414-0.379-0.941-0.551-1.582h-0.059c0.055 0.75 0.082 1.496 0.082 2.238v12.211h-1.16v-16.805h1.078l6.27 13.535c0.039 0.078 0.082 0.184 0.129 0.316s0.098 0.266 0.152 0.398c0.078 0.203 0.16 0.43 0.246 0.68h0.07l0.129-0.375c8e-3 -0.031 0.141-0.402 0.398-1.113l6.176-13.441h1.031v16.805h-1.112z"/>
		<path d="m108.65 186.4v-16.805h7.852v1.066h-6.691v6.738h6.211v1.055h-6.211v6.891h7.078v1.055h-8.239z"/>
		<path d="m132.53 186.4-10.008-13.582c-0.203-0.273-0.383-0.547-0.539-0.82l-0.152-0.234h-0.047c0.016 0.203 0.023 0.449 0.023 0.738v13.898h-1.161v-16.805h0.891l9.938 13.465c0.219 0.297 0.457 0.656 0.715 1.078h0.059c-0.039-0.547-0.059-1.016-0.059-1.406v-13.137h1.16v16.805h-0.82z"/>
		<path d="m142.22 170.66v15.738h-1.148v-15.738h-4.852v-1.066h10.852v1.066h-4.852z"/>
		<path d="m160.04 186.4-1.922-5.227h-7.289l-1.922 5.227h-1.277l6.34-16.805h1.102l6.27 16.805h-1.302zm-5.156-14.063c-0.086-0.234-0.156-0.465-0.211-0.691-0.055-0.195-0.113-0.391-0.176-0.586h-0.047c-0.133 0.516-0.262 0.934-0.387 1.254l-2.824 7.793h6.48l-2.835-7.77z"/>
		<path d="m172.79 186.4-2.238-4.922c-0.461-1.016-0.922-1.697-1.383-2.045s-1.039-0.521-1.734-0.521h-2.086v7.488h-1.16v-16.805h4.664c1.484 0 2.65 0.4 3.498 1.201s1.271 1.857 1.271 3.17c0 1.211-0.348 2.223-1.043 3.035s-1.668 1.336-2.918 1.57v0.047c0.664 0.266 1.313 1.074 1.945 2.426l2.496 5.355h-1.312zm-7.441-15.739v7.195h2.895c1.281 0 2.299-0.336 3.053-1.008s1.131-1.594 1.131-2.766c0-1.07-0.34-1.908-1.02-2.514s-1.652-0.908-2.918-0.908h-3.141z"/>
		<path d="m177.51 186.4v-16.805h7.852v1.066h-6.691v6.738h6.211v1.055h-6.211v6.891h7.078v1.055h-8.239z"/>
	</g>
</svg>
