<?xml version="1.0" encoding="utf-8"?>
<!-- Generator: Adobe Illustrator 15.1.0, SVG Export Plug-In . SVG Version: 6.00 Build 0)  -->
<!DOCTYPE svg PUBLIC "-//W3C//DTD SVG 1.1//EN" "http://www.w3.org/Graphics/SVG/1.1/DTD/svg11.dtd">
<svg version="1.1" id="Ebene_1" xmlns="http://www.w3.org/2000/svg" xmlns:xlink="http://www.w3.org/1999/xlink" x="0px" y="0px"
	 width="240.939px" height="240.939px" viewBox="0 0 240.939 240.939" enable-background="new 0 0 240.939 240.939"
	 xml:space="preserve">
<g id="Ebene_1_1_" display="none">
	<circle display="inline" fill="none" stroke="#FFFFFF" stroke-miterlimit="10" cx="121.057" cy="120.527" r="116.994"/>
	<g display="inline">
		<g>
			<g>
				<path fill="none" stroke="#000000" stroke-width="4" stroke-miterlimit="10" d="M173.014,164.861
					c-0.904-1.672-4.848-8.373-12.226-11.898l0.07,0.04c-4.26-2.276-9.126-3.571-14.296-3.571
					c-16.785,0-30.392,13.606-30.392,30.393c0,16.785,13.605,30.392,30.392,30.392c16.784,0,30.393-13.606,30.393-30.392
					C176.955,174.381,175.519,169.279,173.014,164.861z"/>
				<circle fill="none" stroke="#000000" stroke-width="4" stroke-miterlimit="10" cx="146.563" cy="179.822" r="8.283"/>
			</g>
		</g>
		<g>
			<path fill="none" stroke="#000000" stroke-width="4" stroke-miterlimit="10" d="M114.624,73.794
				c-2.679-0.918-5.4-1.361-8.082-1.387c3.001-12.706-4.072-25.857-16.682-30.182c-13.423-4.6-28.032,2.552-32.633,15.976
				c-2.461,7.175-1.56,14.688,1.861,20.832c-7.107,2.538-13.036,8.168-15.673,15.861c-4.602,13.423,2.551,28.033,15.974,32.633
				c1.608,0.554,3.236,0.931,4.861,1.153l37.597,81.45l12.846-87.763c7.208-2.5,13.236-8.166,15.902-15.942
				C135.197,93.004,128.046,78.395,114.624,73.794z"/>
		</g>
		<g>
			<polygon fill="#FFFFFF" stroke="#000000" stroke-width="4" stroke-miterlimit="10" points="210.394,97.684 181.98,97.684 
				181.98,69.271 168.831,69.271 168.831,97.684 140.418,97.684 140.418,110.834 168.831,110.834 168.831,139.246 181.98,139.246 
				181.98,110.834 210.394,110.834 			"/>
			<g>
				<path fill="none" stroke="#000000" stroke-miterlimit="10" d="M181.217,91.051c-6.956,6.614-13.816,13.328-20.571,20.146"/>
				<path fill="none" stroke="#000000" stroke-miterlimit="10" d="M180.922,88.059c-7.333,7.852-15.023,15.355-22.707,22.861"/>
				<path fill="none" stroke="#000000" stroke-miterlimit="10" d="M181.536,84.156c-8.751,9.002-17.592,17.914-26.523,26.735"/>
				<path fill="none" stroke="#000000" stroke-miterlimit="10" d="M163.576,98.359c-4.012,4.013-8.022,8.022-12.035,12.034"/>
				<path fill="none" stroke="#000000" stroke-miterlimit="10" d="M181.459,80.476c-4.125,4.126-8.252,8.253-12.377,12.378"/>
				<path fill="none" stroke="#000000" stroke-miterlimit="10" d="M159.558,98.855c-3.872,3.871-7.742,7.742-11.611,11.612"/>
				<path fill="none" stroke="#000000" stroke-miterlimit="10" d="M181.993,76.42c-4.274,4.273-8.55,8.549-12.823,12.823"/>
				<path fill="none" stroke="#000000" stroke-miterlimit="10" d="M156.844,98.282c-4.127,4.126-8.255,8.254-12.381,12.381"/>
				<path fill="none" stroke="#000000" stroke-miterlimit="10" d="M182.175,72.951c-4.313,4.312-8.625,8.625-12.938,12.937"/>
				<path fill="none" stroke="#000000" stroke-miterlimit="10" d="M153.746,97.623c-4.539,4.538-9.076,9.076-13.616,13.614"/>
				<path fill="none" stroke="#000000" stroke-miterlimit="10" d="M181.554,69.815c-4.011,4.012-8.021,8.021-12.029,12.029"/>
				<path fill="none" stroke="#000000" stroke-miterlimit="10" d="M150.114,97.849c-3.234,3.235-6.473,6.473-9.707,9.709"/>
				<path fill="none" stroke="#000000" stroke-miterlimit="10" d="M178.6,69.365c-3.057,3.055-6.114,6.111-9.171,9.17"/>
				<path fill="none" stroke="#000000" stroke-miterlimit="10" d="M146.955,98.075c-2.12,2.117-4.239,4.236-6.358,6.355"/>
				<path fill="none" stroke="#000000" stroke-miterlimit="10" d="M175.562,69.467c-2.321,2.323-4.645,4.646-6.967,6.968"/>
				<path fill="none" stroke="#000000" stroke-miterlimit="10" d="M144.46,97.75c-1.237,1.237-2.477,2.477-3.714,3.715"/>
				<path fill="none" stroke="#000000" stroke-miterlimit="10" d="M173.317,68.893c-1.688,1.689-3.378,3.378-5.066,5.067"/>
				<path fill="none" stroke="#000000" stroke-miterlimit="10" d="M182.017,123.008c-4.173,4.173-8.345,8.345-12.518,12.518"/>
				<path fill="none" stroke="#000000" stroke-miterlimit="10" d="M206.588,98.438c-4.172,4.172-8.346,8.345-12.519,12.519"/>
				<path fill="none" stroke="#000000" stroke-miterlimit="10" d="M182.339,119.398c-4.151,4.151-8.302,8.304-12.454,12.454"/>
				<path fill="none" stroke="#000000" stroke-miterlimit="10" d="M203.555,98.183c-4.151,4.151-8.303,8.302-12.453,12.452"/>
				<path fill="none" stroke="#000000" stroke-miterlimit="10" d="M181.735,116.707c-4.119,4.061-8.237,8.124-12.334,12.209"/>
				<path fill="none" stroke="#000000" stroke-miterlimit="10" d="M200.434,98.137c-4.225,4.26-8.481,8.486-12.75,12.701"/>
				<path fill="none" stroke="#000000" stroke-miterlimit="10" d="M197.598,97.094c-9.42,9.421-18.839,18.839-28.259,28.26"/>
				<path fill="none" stroke="#000000" stroke-miterlimit="10" d="M193.305,97.865c-7.786,7.93-15.956,15.468-23.891,23.244"/>
				<path fill="none" stroke="#000000" stroke-miterlimit="10" d="M190.37,97.513c-6.303,7.122-13.178,13.698-20.077,20.23"/>
				<path fill="none" stroke="#000000" stroke-miterlimit="10" d="M185.575,98.551c-4.864,5.159-9.958,10.097-15.069,15.013"/>
				<path fill="none" stroke="#000000" stroke-miterlimit="10" d="M183.241,97.479c-4.98,4.397-9.656,9.124-14.238,13.933"/>
				<path fill="none" stroke="#000000" stroke-miterlimit="10" d="M181.965,95.82c-4.625,4.812-9.287,9.583-13.985,14.321"/>
				<path fill="none" stroke="#000000" stroke-miterlimit="10" d="M181.4,93.566c-5.818,5.193-11.233,10.816-16.594,16.477"/>
				<path fill="none" stroke="#000000" stroke-miterlimit="10" d="M181.857,134.907c-1.227,1.227-2.452,2.452-3.679,3.68"/>
				<path fill="none" stroke="#000000" stroke-miterlimit="10" d="M210.834,105.932c-1.84,1.841-3.681,3.679-5.52,5.52"/>
				<path fill="none" stroke="#000000" stroke-miterlimit="10" d="M182.034,131.672c-2.287,2.245-4.579,4.484-6.88,6.718"/>
				<path fill="none" stroke="#000000" stroke-miterlimit="10" d="M210.51,103.046c-2.68,2.759-5.37,5.507-8.067,8.246"/>
				<path fill="none" stroke="#000000" stroke-miterlimit="10" d="M181.879,128.975c-3.344,3.279-6.705,6.542-10.082,9.789"/>
				<path fill="none" stroke="#000000" stroke-miterlimit="10" d="M210.668,99.955c-3.548,3.679-7.114,7.336-10.701,10.977"/>
				<path fill="none" stroke="#000000" stroke-miterlimit="10" d="M181.863,126.19c-3.959,3.895-7.938,7.769-11.938,11.618"/>
				<path fill="none" stroke="#000000" stroke-miterlimit="10" d="M209.395,98.45c-4.012,4.141-8.047,8.261-12.103,12.359"/>
			</g>
		</g>
	</g>
</g>
<g id="Ebene_2" display="none">
	<g display="inline">
		<polyline fill="none" stroke="#000000" stroke-width="4" stroke-miterlimit="10" points="42.929,190.213 68.949,164.165 
			87.371,178.208 197.616,84.147 		"/>
		<polyline fill="none" stroke="#000000" stroke-width="4" stroke-miterlimit="10" points="189.012,82.173 202.739,77.454 
			201.661,91.829 		"/>
	</g>
	<circle display="inline" fill="none" stroke="#FFFFFF" stroke-miterlimit="10" cx="120.683" cy="120.194" r="116.994"/>
	<g display="inline">
		<path fill="#FFFFFF" stroke="#000000" stroke-width="4" stroke-miterlimit="10" d="M169.875,122.613
			c0-26.742-21.681-48.424-48.424-48.424c-26.742,0-48.425,21.682-48.425,48.424c0,13.198,5.283,25.161,13.847,33.896
			c6.063,8.65,15.455,26.367,16.033,53.68h17.688h15.969c0,0,1.922-32.159,17.929-52.177
			C163.955,149.173,169.875,136.585,169.875,122.613z"/>
		
			<line fill="none" stroke="#000000" stroke-width="2" stroke-miterlimit="10" x1="151.814" y1="128.655" x2="169.705" y2="128.623"/>
		
			<line fill="none" stroke="#000000" stroke-width="2" stroke-miterlimit="10" x1="104.881" y1="128.623" x2="137.615" y2="128.623"/>
		<line fill="none" stroke="#000000" stroke-width="2" stroke-miterlimit="10" x1="73.543" y1="128.623" x2="92.088" y2="128.623"/>
		
			<line fill="none" stroke="#000000" stroke-width="2" stroke-miterlimit="10" x1="121.451" y1="153.607" x2="121.451" y2="182.874"/>
		
			<line fill="none" stroke="#000000" stroke-width="2" stroke-miterlimit="10" x1="121.451" y1="107.416" x2="121.451" y2="140.214"/>
		<line fill="none" stroke="#000000" stroke-width="2" stroke-miterlimit="10" x1="121.451" y1="74.189" x2="121.451" y2="94.301"/>
		<path fill="#FFFFFF" stroke="#000000" stroke-width="2" stroke-miterlimit="10" d="M91.961,128.623
			c1.373,0,2.762,2.216,0.471,6.01c-1.91,3.167-6.635,13.195,5.494,13.737c3.277,0.146,11.283-0.593,7.9-10.476
			c-0.755-2.199-5.002-9.271-0.709-9.271"/>
		<path fill="#FFFFFF" stroke="#000000" stroke-width="2" stroke-miterlimit="10" d="M121.469,93.673c0,0,0.418,4.202-5.297,1.979
			c0,0-12.912-6.719-13.781,6.312c-0.19,2.89,0.545,9.022,8.629,7.728c2.808-0.449,10.449-5.377,10.449-2.222"/>
		<path fill="#FFFFFF" stroke="#000000" stroke-width="2" stroke-miterlimit="10" d="M137.471,128.623
			c1.207-0.032,2.533-1.872,1.754-3.735c0,0-7.213-12.621,4.187-14.359c0,0,8.205-0.47,8.178,4.895
			c-0.012,2.214-0.465,4.912-1.996,8.629c-0.486,1.182-0.773,4.572,2.223,4.604"/>
		<path fill="#FFFFFF" stroke="#000000" stroke-width="2" stroke-miterlimit="10" d="M121.451,140.125c0,0,0.032,2.486,2.575,0.99
			c0,0,9.531-6.954,14.554,1.932c0,0,5.075,11.469-7.47,11.591c-1.668,0.018-2.641-0.193-6.182-2.512c0,0-3.541-2.006-3.477,1.985"
			/>
		
			<line fill="none" stroke="#000000" stroke-width="4" stroke-miterlimit="10" x1="98.914" y1="182.843" x2="141.543" y2="182.843"/>
		<line fill="none" stroke="#000000" stroke-miterlimit="10" x1="101.195" y1="187.021" x2="123.361" y2="187.021"/>
		<line fill="none" stroke="#000000" stroke-miterlimit="10" x1="101.195" y1="200.188" x2="123.361" y2="200.188"/>
		<line fill="none" stroke="#000000" stroke-miterlimit="10" x1="100.695" y1="203.188" x2="116.195" y2="203.188"/>
		<line fill="none" stroke="#000000" stroke-miterlimit="10" x1="101.195" y1="189.521" x2="130.695" y2="189.521"/>
		<path fill="none" stroke="#000000" stroke-width="0.5" stroke-miterlimit="10" d="M129.07,80.063c0,0,17.938,3.75,26.25,15.75
			c0,0,11.875,14.125,7.875,39.876"/>
		<path fill="none" stroke="#000000" stroke-width="0.5" stroke-miterlimit="10" d="M137.32,87.688c0,0,11.25,4,19.375,18.625"/>
		<line fill="none" stroke="#000000" stroke-width="4" stroke-miterlimit="10" x1="44.445" y1="83.688" x2="60.945" y2="95.938"/>
		<line fill="none" stroke="#000000" stroke-width="4" stroke-miterlimit="10" x1="65.445" y1="57.188" x2="79.195" y2="73.938"/>
		<line fill="none" stroke="#000000" stroke-width="4" stroke-miterlimit="10" x1="103.945" y1="63.188" x2="100.695" y2="41.188"/>
		<line fill="none" stroke="#000000" stroke-width="4" stroke-miterlimit="10" x1="133.945" y1="63.688" x2="146.445" y2="40.688"/>
		<line fill="none" stroke="#000000" stroke-width="4" stroke-miterlimit="10" x1="164.445" y1="79.188" x2="176.945" y2="62.688"/>
	</g>
</g>
<g id="Ebene_3" display="none">
	<circle display="inline" fill="none" stroke="#FFFFFF" stroke-miterlimit="10" cx="120.683" cy="120.194" r="116.994"/>
	<g display="inline">
		<polygon fill="none" stroke="#000000" stroke-width="4" stroke-miterlimit="10" points="84.94,84.967 122.079,128.115 
			159.94,84.87 143.146,62.96 102.315,62.96 		"/>
		<line fill="none" stroke="#000000" stroke-width="4" stroke-miterlimit="10" x1="85.23" y1="84.87" x2="159.651" y2="84.87"/>
		<polyline fill="none" stroke="#000000" stroke-width="4" stroke-miterlimit="10" points="118.156,62.887 106.888,84.967 
			122.355,125.291 137.993,84.967 127.966,62.996 		"/>
		<g>
			<g>
				<path fill="none" stroke="#000000" stroke-width="4" stroke-miterlimit="10" d="M75.069,179.659c0,0-18.202-17.203-21.62-25.483
					c-3.453-8.365-3.572-35.907-3.572-35.907s-0.65-4.995,2.823-8.978c3.725-4.268,17.302-5.141,17.062,6.95
					c0,0-1.62,17.284,0.53,22.974c0.827,2.188,4.422,6.697,6.226,8.204c0.761,0.635,3.746,2.977,3.09,0.579
					c-1.38-5.03-7.734-17.141-0.676-19.885c0,0,3.959-2.413,10.617,3.766c0,0,11.522,13.89,14.188,19.546
					c3.309,7.014,5.792,28.234,5.792,28.234H75.069z"/>
				
					<rect x="69.567" y="179.948" fill="none" stroke="#000000" stroke-width="4" stroke-miterlimit="10" width="46.912" height="21.043"/>
			</g>
			<g>
				<path fill="none" stroke="#000000" stroke-width="4" stroke-miterlimit="10" d="M169.811,179.852
					c0,0,18.202-17.202,21.622-25.482c3.453-8.364,3.57-35.907,3.57-35.907s0.651-4.995-2.823-8.978
					c-3.724-4.267-17.302-5.14-17.062,6.95c0,0,1.619,17.284-0.53,22.974c-0.826,2.188-4.422,6.696-6.227,8.203
					c-0.76,0.637-3.745,2.979-3.088,0.579c1.379-5.028,7.735-17.138,0.676-19.883c0,0-3.958-2.414-10.618,3.764
					c0,0-11.521,13.892-14.189,19.548c-3.307,7.014-5.791,28.232-5.791,28.232H169.811z"/>
				
					<rect x="128.4" y="180.141" fill="none" stroke="#000000" stroke-width="4" stroke-miterlimit="10" width="46.912" height="21.043"/>
			</g>
		</g>
	</g>
	<path display="inline" fill="none" stroke="#000000" stroke-miterlimit="10" d="M180.125,112.75c0,0,7.875-1.625,9.875,5.25
		c0,0-0.5,24.5-1.25,29.75c0,0-1.25,7.75-15,20.25"/>
	<path display="inline" fill="none" stroke="#000000" stroke-width="2" stroke-miterlimit="10" d="M153.751,58.917l-0.334,1.916
		l-2.75,0.25l2.5,1.917l-0.5,3.333l2-2.5c0,0,2.501,1.666,2.834,1.75s-0.917-2.25-0.917-2.25l1.667-1.416l-2.917-1.084
		L153.751,58.917z"/>
	<polyline display="inline" fill="none" stroke="#000000" stroke-width="0.5" stroke-miterlimit="10" points="133.084,66.333 
		141.251,66.25 151.917,81.25 	"/>
	<polyline display="inline" fill="none" stroke="#000000" stroke-width="0.5" stroke-miterlimit="10" points="120.001,65.834 
		126.084,65.917 132.917,81.334 	"/>
	<polyline display="inline" fill="none" stroke="#000000" stroke-width="0.5" stroke-miterlimit="10" points="103.667,65.584 
		113.751,65.501 105.167,81.917 	"/>
	
		<line display="inline" fill="none" stroke="#000000" stroke-width="0.5" stroke-miterlimit="10" x1="153.584" y1="87.417" x2="129.251" y2="115.5"/>
	
		<line display="inline" fill="none" stroke="#000000" stroke-width="0.5" stroke-miterlimit="10" x1="132.917" y1="88" x2="122.501" y2="116.25"/>
	
		<line display="inline" fill="none" stroke="#000000" stroke-width="0.5" stroke-miterlimit="10" x1="104.334" y1="88.333" x2="115.584" y2="115.583"/>
	<path display="inline" fill="none" stroke="#000000" stroke-miterlimit="10" d="M55.833,112.334c0,0,7.075-2.64,8.167,0.854
		c1.042,3.333,0.684,4.524,0.375,15.938c-0.25,9.25,0.008,18.302,11.125,24.5"/>
	<path display="inline" fill="none" stroke="#000000" stroke-miterlimit="10" d="M79.292,133.251c0,0,4.389-2.438,8.625,3.041
		c3.416,4.417,10.386,13.508,12.208,17.958c2.143,5.229,4.5,12.625,4.5,21.5"/>
	<path display="inline" fill="none" stroke="#000000" stroke-miterlimit="10" d="M159.167,133.75c0,0,6.417-4.583,5.333,2.667
		c-0.522,3.491-4.167,12.833-4.167,12.833"/>
</g>
<image display="none" overflow="visible" enable-background="new    " width="700" height="117" xlink:href="B18E1888.jpeg"  transform="matrix(1 0 0 1 -152.9998 -134.9998)">
</image>
<path d="M2.322,216.064V26.929c0,0,0.655-15.078,17.7-15.734h201.594c0,0,16.389-1.311,17.699,17.374V212.46
	c0,0,1.64,16.062-15.733,18.027H17.4C17.4,230.487,5.928,228.849,2.322,216.064z"/>
<rect x="2.381" y="143.948" fill="none" width="236.917" height="81.304"/>
<g enable-background="new    ">
	<path fill="#FFFFFF" d="M57.741,171.652c-1.853,0-3.52-0.405-5.001-1.215c-1.482-0.811-2.74-1.918-3.773-3.323
		s-1.829-3.059-2.384-4.959c-0.556-1.899-0.833-3.939-0.833-6.12c0-2.409,0.278-4.614,0.833-6.614
		c0.556-2.001,1.365-3.714,2.429-5.142c1.063-1.427,2.366-2.538,3.908-3.334s3.298-1.194,5.271-1.194
		c1.816,0,3.447,0.392,4.894,1.173c1.446,0.782,2.677,1.864,3.693,3.248c1.016,1.384,1.795,3.022,2.339,4.915
		c0.543,1.894,0.815,3.951,0.815,6.174c0,2.338-0.266,4.507-0.797,6.508c-0.532,2-1.315,3.732-2.349,5.194
		c-1.034,1.463-2.307,2.61-3.818,3.442C61.454,171.236,59.713,171.652,57.741,171.652z M57.938,142.354
		c-1.554,0-2.931,0.354-4.132,1.064c-1.201,0.71-2.214,1.671-3.038,2.883c-0.825,1.212-1.449,2.632-1.874,4.259
		c-0.424,1.628-0.643,3.359-0.654,5.195c-0.012,1.75,0.176,3.424,0.564,5.022c0.389,1.6,0.974,3.012,1.757,4.238
		c0.783,1.226,1.772,2.205,2.967,2.937s2.593,1.097,4.195,1.097s3.008-0.333,4.222-1c1.213-0.667,2.226-1.592,3.039-2.775
		c0.813-1.183,1.425-2.592,1.837-4.227c0.412-1.635,0.618-3.421,0.618-5.356c0-1.807-0.182-3.521-0.546-5.142
		c-0.365-1.62-0.932-3.036-1.703-4.248s-1.754-2.173-2.949-2.883C61.045,142.708,59.611,142.354,57.938,142.354z"/>
	<path fill="#FFFFFF" d="M77.459,142.892v11.615h9.394v2.604h-9.394v14.004h-2.384v-30.848h12.53v2.625H77.459z"/>
	<path fill="#FFFFFF" d="M94.955,142.892v11.615h9.394v2.604h-9.394v14.004h-2.384v-30.848h12.53v2.625H94.955z"/>
	<path fill="#FFFFFF" d="M112.451,171.115h-2.384v-30.848h2.384V171.115z"/>
	<path fill="#FFFFFF" d="M136.419,169.974c-1.984,1.119-4.249,1.678-6.795,1.678c-1.816,0-3.466-0.384-4.947-1.15
		c-1.482-0.767-2.746-1.832-3.792-3.194c-1.046-1.362-1.853-2.982-2.42-4.861c-0.568-1.879-0.852-3.93-0.852-6.152
		c0-2.338,0.302-4.514,0.905-6.529c0.604-2.015,1.467-3.764,2.59-5.248c1.123-1.484,2.483-2.649,4.078-3.496
		c1.596-0.846,3.385-1.27,5.369-1.27c2.187,0,4.141,0.402,5.862,1.205v3.055c-1.842-1.104-3.807-1.656-5.898-1.656
		c-1.661,0-3.137,0.344-4.428,1.032s-2.379,1.646-3.263,2.872c-0.884,1.226-1.56,2.675-2.025,4.345
		c-0.466,1.671-0.699,3.496-0.699,5.475c0,1.779,0.209,3.453,0.627,5.023s1.037,2.943,1.856,4.119
		c0.818,1.176,1.837,2.108,3.056,2.797c1.22,0.688,2.636,1.032,4.249,1.032c2.474,0,4.648-0.624,6.525-1.871V169.974z"/>
	<path fill="#FFFFFF" d="M144.288,171.115h-2.385v-30.848h2.385V171.115z"/>
	<path fill="#FFFFFF" d="M168.577,171.115l-14.269-24.76c-0.179-0.315-0.355-0.638-0.528-0.968c-0.174-0.33-0.314-0.652-0.422-0.969
		h-0.09c0.024,0.259,0.045,0.617,0.063,1.076c0.019,0.459,0.027,1.032,0.027,1.721v23.899h-2.384v-30.848h2.635l14.036,24.459
		c0.215,0.387,0.409,0.749,0.583,1.086c0.173,0.337,0.331,0.649,0.475,0.936h0.09c-0.048-0.473-0.084-1.004-0.107-1.592
		c-0.024-0.588-0.036-1.24-0.036-1.957v-22.932h2.402v30.848H168.577z"/>
	<path fill="#FFFFFF" d="M194.374,171.115l-2.833-9.121h-11.024l-2.761,9.121h-2.653l9.788-30.848h2.401l9.734,30.848H194.374z
		 M186.54,145.666c-0.084-0.272-0.171-0.588-0.26-0.946c-0.09-0.358-0.165-0.768-0.225-1.227h-0.072
		c-0.071,0.459-0.152,0.868-0.242,1.227c-0.089,0.358-0.176,0.674-0.26,0.946l-4.158,13.725h9.411L186.54,145.666z"/>
</g>
<g enable-background="new    ">
	<path fill="#FFFFFF" d="M36.606,215.17l-2.833-9.12H22.749l-2.761,9.12h-2.653l9.788-30.847h2.402l9.734,30.847H36.606z
		 M28.772,189.723c-0.083-0.272-0.17-0.588-0.26-0.947c-0.09-0.358-0.165-0.767-0.224-1.226h-0.072
		c-0.072,0.459-0.152,0.867-0.242,1.226c-0.089,0.359-0.176,0.675-0.26,0.947l-4.159,13.724h9.411L28.772,189.723z"/>
	<path fill="#FFFFFF" d="M43.311,215.17v-30.847h2.384v28.244H56.02v2.603H43.311z"/>
	<path fill="#FFFFFF" d="M62.742,215.17h-2.384v-30.847h2.384V215.17z"/>
	<path fill="#FFFFFF" d="M92.177,215.17v-21.296c0-1.09,0.072-2.847,0.215-5.271h-0.072c-0.167,0.646-0.32,1.205-0.457,1.678
		c-0.138,0.474-0.266,0.86-0.386,1.162l-8.963,23.727h-1.022l-8.981-23.576c-0.263-0.717-0.532-1.728-0.807-3.033h-0.072
		c0.048,0.66,0.081,1.413,0.099,2.259c0.018,0.847,0.027,1.785,0.027,2.818v21.532h-2.33v-30.847h2.814l8.73,23.188
		c0.179,0.488,0.355,0.986,0.529,1.495c0.173,0.51,0.332,1.051,0.475,1.624h0.108c0.167-0.573,0.319-1.097,0.457-1.57
		c0.137-0.473,0.308-0.981,0.511-1.527l8.802-23.21h2.671v30.847H92.177z"/>
	<path fill="#FFFFFF" d="M101.194,215.17v-30.847h12.53v2.624h-10.146v11.315h9.394v2.581h-9.394v11.724h10.72v2.603H101.194z"/>
	<path fill="#FFFFFF" d="M137.261,215.17l-14.27-24.76c-0.179-0.314-0.355-0.638-0.528-0.968c-0.173-0.329-0.313-0.652-0.421-0.968
		h-0.09c0.023,0.258,0.045,0.617,0.063,1.075c0.018,0.46,0.027,1.033,0.027,1.722v23.898h-2.384v-30.847h2.634l14.037,24.458
		c0.215,0.388,0.408,0.75,0.582,1.086c0.174,0.338,0.332,0.649,0.475,0.937h0.09c-0.047-0.474-0.084-1.004-0.107-1.592
		s-0.035-1.24-0.035-1.958v-22.931h2.402v30.847H137.261z"/>
	<path fill="#FFFFFF" d="M153.753,186.948v28.223h-2.385v-28.223h-7.402v-2.624h17.209v2.624H153.753z"/>
	<path fill="#FFFFFF" d="M179.298,215.17l-2.832-9.12h-11.025l-2.76,9.12h-2.653l9.788-30.847h2.401l9.733,30.847H179.298z
		 M171.464,189.723c-0.084-0.272-0.17-0.588-0.26-0.947c-0.09-0.358-0.164-0.767-0.225-1.226h-0.071
		c-0.071,0.459-0.152,0.867-0.242,1.226c-0.089,0.359-0.177,0.675-0.26,0.947l-4.159,13.724h9.412L171.464,189.723z"/>
	<path fill="#FFFFFF" d="M200.003,215.17l-3.873-8.841c-0.382-0.875-0.752-1.606-1.111-2.194c-0.357-0.588-0.729-1.058-1.111-1.409
		c-0.383-0.351-0.791-0.603-1.228-0.753s-0.923-0.226-1.461-0.226h-2.833v13.423h-2.383v-30.847h7.402
		c0.969,0,1.903,0.172,2.806,0.516c0.902,0.345,1.706,0.854,2.411,1.527c0.705,0.675,1.27,1.521,1.694,2.539
		c0.424,1.018,0.636,2.201,0.636,3.549c0,1.09-0.137,2.094-0.412,3.012s-0.666,1.731-1.174,2.441s-1.123,1.313-1.847,1.807
		c-0.724,0.495-1.538,0.864-2.446,1.108v0.086c0.346,0.172,0.663,0.395,0.949,0.667c0.287,0.272,0.564,0.603,0.834,0.989
		c0.27,0.388,0.535,0.832,0.798,1.334s0.538,1.075,0.825,1.721l4.319,9.551H200.003z M188.386,186.948v12.197h4.268
		c0.859,0,1.648-0.151,2.365-0.452c0.718-0.301,1.33-0.731,1.838-1.291c0.508-0.559,0.902-1.232,1.184-2.021
		c0.28-0.789,0.421-1.678,0.421-2.668c0-1.792-0.481-3.201-1.442-4.227c-0.963-1.025-2.352-1.538-4.168-1.538H188.386z"/>
	<path fill="#FFFFFF" d="M207.173,215.17v-30.847h12.53v2.624h-10.146v11.315h9.394v2.581h-9.394v11.724h10.72v2.603H207.173z"/>
</g>
<g>
	<path fill="none" stroke="#FFFFFF" stroke-width="2" stroke-miterlimit="10" d="M26.939,102.577l-1.272,1.315
		c2.087,0.817,4.612,1.758,7.527,2.774l2.495-2.578C32.76,103.621,29.841,103.118,26.939,102.577z"/>
	<path fill="none" stroke="#FFFFFF" stroke-width="2" stroke-miterlimit="10" d="M44.957,105.461l-3.732,3.854
		c2.169,0.677,4.469,1.362,6.904,2.052l4.755-4.917C50.24,106.146,47.596,105.82,44.957,105.461z"/>
	<path fill="none" stroke="#FFFFFF" stroke-width="2" stroke-miterlimit="10" d="M52.884,106.45l-4.755,4.917
		c2.328,0.659,4.771,1.317,7.332,1.968l5.805-5.998C58.469,107.069,55.677,106.774,52.884,106.45z"/>
	<path fill="none" stroke="#FFFFFF" stroke-width="2" stroke-miterlimit="10" d="M35.689,104.09l-2.495,2.578
		c2.414,0.841,5.097,1.731,8.03,2.647l3.732-3.854C41.858,105.042,38.768,104.584,35.689,104.09z"/>
	<path fill="none" stroke="#FFFFFF" stroke-width="2" stroke-miterlimit="10" d="M18.517,100.9c0,0,2.516,1.187,7.149,2.994
		l1.272-1.315C24.117,102.052,21.307,101.494,18.517,100.9z"/>
	<path fill="none" stroke="#FFFFFF" stroke-width="2" stroke-miterlimit="10" d="M61.265,107.338l-5.805,5.998
		c2.331,0.592,4.758,1.174,7.267,1.74l6.794-7.019C66.771,107.842,64.019,107.604,61.265,107.338z"/>
	<path fill="none" stroke="#FFFFFF" stroke-width="2" stroke-miterlimit="10" d="M77.958,108.645l-7.757,8.018
		c2.946,0.584,5.99,1.141,9.129,1.657l8.853-9.146C84.789,109.033,81.378,108.856,77.958,108.645z"/>
	<path fill="none" stroke="#FFFFFF" stroke-width="2" stroke-miterlimit="10" d="M88.183,109.174l-8.853,9.146
		c2.202,0.363,4.445,0.707,6.737,1.029l9.594-9.912C93.178,109.366,90.685,109.279,88.183,109.174z"/>
	<path fill="none" stroke="#FFFFFF" stroke-width="2" stroke-miterlimit="10" d="M69.521,108.058l-6.794,7.019
		c2.414,0.547,4.906,1.078,7.475,1.586l7.757-8.018C75.152,108.476,72.338,108.279,69.521,108.058z"/>
	<path fill="none" stroke="#FFFFFF" stroke-width="2" stroke-miterlimit="10" d="M102.58,109.596l-10.227,10.563
		c2.592,0.304,5.23,0.575,7.916,0.814l10.934-11.296C108.352,109.67,105.475,109.644,102.58,109.596z"/>
	<path fill="none" stroke="#FFFFFF" stroke-width="2" stroke-miterlimit="10" d="M95.661,109.437l-9.594,9.912
		c2.063,0.29,4.158,0.562,6.287,0.812l10.227-10.563C100.284,109.558,97.976,109.502,95.661,109.437z"/>
	<path fill="none" stroke="#FFFFFF" stroke-width="2" stroke-miterlimit="10" d="M111.204,109.679l-10.934,11.296
		c2.478,0.219,4.991,0.405,7.542,0.56l11.509-11.89C116.64,109.672,113.934,109.684,111.204,109.679z"/>
	<path fill="none" stroke="#FFFFFF" stroke-width="2" stroke-miterlimit="10" d="M155.29,108.323l-12.594,13.013
		c3.707-0.274,7.458-0.645,11.247-1.101l12.263-12.668C162.68,107.836,159.038,108.091,155.29,108.323z"/>
	<path fill="none" stroke="#FFFFFF" stroke-width="2" stroke-miterlimit="10" d="M148.024,108.74l-12.604,13.02
		c2.409-0.107,4.83-0.242,7.276-0.424l12.594-13.013C152.908,108.472,150.487,108.611,148.024,108.74z"/>
	<path fill="none" stroke="#FFFFFF" stroke-width="2" stroke-miterlimit="10" d="M128.371,109.49l-12.028,12.427
		c3.234,0.09,6.519,0.123,9.849,0.095l12.436-12.846C135.263,109.295,131.843,109.406,128.371,109.49z"/>
	<path fill="none" stroke="#FFFFFF" stroke-width="2" stroke-miterlimit="10" d="M119.322,109.644l-11.509,11.89
		c2.8,0.17,5.646,0.299,8.53,0.383l12.028-12.427C125.389,109.563,122.37,109.613,119.322,109.644z"/>
	<path fill="none" stroke="#FFFFFF" stroke-width="2" stroke-miterlimit="10" d="M138.627,109.165l-12.436,12.846
		c3.04-0.027,6.117-0.11,9.229-0.251l12.604-13.02C144.952,108.898,141.812,109.041,138.627,109.165z"/>
	<path fill="none" stroke="#FFFFFF" stroke-width="2" stroke-miterlimit="10" d="M166.206,107.568l-12.263,12.668
		c3.92-0.471,7.878-1.031,11.878-1.714l11.508-11.89C173.771,106.957,170.062,107.273,166.206,107.568z"/>
	<path fill="none" stroke="#FFFFFF" stroke-width="2" stroke-miterlimit="10" d="M223.162,100.9c0,0-1.089,0.191-3.114,0.516
		l-1.467,1.514C220.107,102.271,221.635,101.598,223.162,100.9z"/>
	<path fill="none" stroke="#FFFFFF" stroke-width="2" stroke-miterlimit="10" d="M199.043,104.324l-8.232,8.504
		c4.432-1.268,8.885-2.679,13.356-4.258l5.437-5.613C206.532,103.38,202.997,103.844,199.043,104.324z"/>
	<path fill="none" stroke="#FFFFFF" stroke-width="2" stroke-miterlimit="10" d="M220.048,101.415
		c-2.307,0.368-5.853,0.911-10.444,1.542l-5.437,5.613c4.788-1.688,9.598-3.565,14.414-5.643L220.048,101.415z"/>
	<path fill="none" stroke="#FFFFFF" stroke-width="2" stroke-miterlimit="10" d="M177.329,106.631l-11.508,11.89
		c4.342-0.742,8.727-1.622,13.144-2.637l10.085-10.419C185.375,105.861,181.457,106.253,177.329,106.631z"/>
	<path fill="none" stroke="#FFFFFF" stroke-width="2" stroke-miterlimit="10" d="M189.05,105.466l-10.085,10.419
		c3.924-0.901,7.875-1.921,11.846-3.057l8.232-8.504C195.953,104.699,192.616,105.083,189.05,105.466z"/>
	<polygon fill="none" stroke="#FFFFFF" stroke-width="2" stroke-miterlimit="10" points="145.38,57.378 146.048,57.378 
		148.324,55.024 	"/>
	<polygon fill="none" stroke="#FFFFFF" stroke-width="2" stroke-miterlimit="10" points="222.237,57.685 217.871,54.192 
		214.488,57.685 	"/>
	<path fill="none" stroke="#FFFFFF" stroke-width="2" stroke-miterlimit="10" d="M123.773,101.517
		c1.091,0.108,2.112,0.164,3.174,0.249l1.074-1.108C125.401,101.306,123.773,101.517,123.773,101.517z"/>
	<path fill="none" stroke="#FFFFFF" stroke-width="2" stroke-miterlimit="10" d="M196.349,65.907l-31.354,32.39
		C186.715,91.066,193.953,75.536,196.349,65.907z"/>
	<path fill="none" stroke="#FFFFFF" stroke-width="2" stroke-miterlimit="10" d="M142.182,95.22l-6.757,6.98
		c3.608,0.066,6.991-0.031,10.192-0.26l57.579-59.488l-5.604-4.484l-33.147,34.25C159.048,83.812,150.238,90.925,142.182,95.22z"/>
	<polygon fill="none" stroke="#FFFFFF" stroke-width="2" stroke-miterlimit="10" points="214.488,57.685 217.871,54.192 
		212.13,49.602 204.305,57.685 	"/>
	<path fill="none" stroke="#FFFFFF" stroke-width="2" stroke-miterlimit="10" d="M155.863,100.639l52.397-54.134l-5.063-4.051
		l-57.579,59.488C149.284,101.679,152.697,101.24,155.863,100.639z"/>
	<path fill="none" stroke="#FFFFFF" stroke-width="2" stroke-miterlimit="10" d="M164.445,72.218l33.147-34.25l-5.013-4.012
		l-23.986,24.778C167.718,63.797,166.283,68.27,164.445,72.218z"/>
	<polygon fill="none" stroke="#FFFFFF" stroke-width="2" stroke-miterlimit="10" points="161.826,57.378 188.022,30.312 
		183.654,26.819 179.452,30.174 153.121,57.378 	"/>
	<path fill="none" stroke="#FFFFFF" stroke-width="2" stroke-miterlimit="10" d="M126.947,101.766
		c2.94,0.233,5.776,0.385,8.479,0.436l6.757-6.98c-5.551,2.958-10.719,4.58-14.16,5.437L126.947,101.766z"/>
	<path fill="none" stroke="#FFFFFF" stroke-width="2" stroke-miterlimit="10" d="M168.839,57.378
		c-0.068,0.465-0.165,0.903-0.245,1.357l23.986-24.778l-4.559-3.646l-26.195,27.066L168.839,57.378L168.839,57.378z"/>
	<polygon fill="none" stroke="#FFFFFF" stroke-width="2" stroke-miterlimit="10" points="179.452,30.174 148.324,55.024 
		146.048,57.378 153.121,57.378 	"/>
	<path fill="none" stroke="#FFFFFF" stroke-width="2" stroke-miterlimit="10" d="M164.995,98.297l31.354-32.39
		c1.208-4.863,1.195-8.223,1.195-8.223h6.761l7.825-8.083l-3.869-3.098l-52.397,54.134
		C159.161,100.014,162.202,99.228,164.995,98.297z"/>
</g>
<g id="Ebene_6" display="none">
	<circle display="inline" cx="-184.852" cy="120.665" r="116"/>
	<g display="inline">
		<path fill="#FFFFFF" d="M-261.129,107.819c0,0,61.108,15.219,152.188,0.469C-108.94,108.287-171.222,144.111-261.129,107.819z"/>
		<path fill="#FFFFFF" d="M-182.225,109.458c0,0,30.438-5.387,32.779-33.95h-17.327l27.863-23.18l30.334,23.149l-18.16,0.03
			c0,0-9.909,33.33-34.739,33.833C-166.581,109.444-182.225,109.458-182.225,109.458z"/>
	</g>
	<g display="inline">
		<path fill="#FFFFFF" stroke="#FFFFFF" stroke-miterlimit="10" d="M-225.052,157.888c-2.375,0-4.269-0.789-5.679-2.367
			s-2.115-3.629-2.115-6.151c0-2.681,0.726-4.826,2.175-6.439c1.448-1.613,3.428-2.42,5.936-2.42c2.267,0,4.101,0.775,5.502,2.326
			c1.402,1.551,2.104,3.584,2.104,6.1c0,2.781-0.72,4.97-2.156,6.563C-220.723,157.093-222.647,157.888-225.052,157.888z
			 M-224.936,141.563c-1.953,0-3.561,0.707-4.821,2.121c-1.262,1.414-1.894,3.267-1.894,5.556c0,2.313,0.598,4.153,1.793,5.524
			s2.789,2.057,4.781,2.057c2.078,0,3.723-0.678,4.934-2.032c1.211-1.355,1.816-3.244,1.816-5.666c0-2.375-0.592-4.229-1.775-5.562
			C-221.285,142.229-222.897,141.563-224.936,141.563z"/>
		<path fill="#FFFFFF" stroke="#FFFFFF" stroke-miterlimit="10" d="M-212.538,141.856v6.855h6.211v1.055h-6.211v7.828h-1.16V140.79
			h7.852v1.065H-212.538L-212.538,141.856z"/>
		<path fill="#FFFFFF" stroke="#FFFFFF" stroke-miterlimit="10" d="M-201.381,141.856v6.855h6.211v1.055h-6.211v7.828h-1.16V140.79
			h7.852v1.065H-201.381L-201.381,141.856z"/>
		<path fill="#FFFFFF" stroke="#FFFFFF" stroke-miterlimit="10" d="M-191.385,157.595V140.79h1.159v16.805H-191.385z"/>
		<path fill="#FFFFFF" stroke="#FFFFFF" stroke-miterlimit="10" d="M-174.744,157.044c-1.359,0.563-2.777,0.844-4.254,0.844
			c-2.297,0-4.17-0.771-5.619-2.313c-1.45-1.543-2.174-3.558-2.174-6.041c0-2.728,0.785-4.912,2.355-6.558
			c1.57-1.645,3.566-2.467,5.988-2.467c1.289,0,2.523,0.207,3.703,0.621v1.229c-1.18-0.53-2.422-0.797-3.728-0.797
			c-2.108,0-3.823,0.715-5.145,2.146c-1.321,1.43-1.981,3.332-1.981,5.707c0,2.289,0.632,4.096,1.894,5.42s2.861,1.985,4.799,1.985
			c1.547,0,2.934-0.301,4.16-0.901L-174.744,157.044L-174.744,157.044z"/>
		<path fill="#FFFFFF" stroke="#FFFFFF" stroke-miterlimit="10" d="M-171.006,157.595V140.79h1.159v16.805H-171.006z"/>
		<path fill="#FFFFFF" stroke="#FFFFFF" stroke-miterlimit="10" d="M-153.65,157.595l-10.008-13.582
			c-0.203-0.272-0.383-0.547-0.539-0.82l-0.152-0.233h-0.047c0.017,0.203,0.023,0.449,0.023,0.738v13.897h-1.16V140.79h0.891
			l9.938,13.465c0.219,0.297,0.457,0.656,0.715,1.078h0.059c-0.038-0.547-0.059-1.017-0.059-1.406V140.79h1.16v16.805H-153.65z"/>
		<path fill="#FFFFFF" stroke="#FFFFFF" stroke-miterlimit="10" d="M-137.572,157.595l-1.922-5.227h-7.289l-1.922,5.227h-1.277
			l6.34-16.805h1.103l6.27,16.805H-137.572z M-142.729,143.532c-0.086-0.234-0.155-0.466-0.211-0.691
			c-0.055-0.195-0.113-0.391-0.176-0.586h-0.047c-0.133,0.516-0.262,0.934-0.387,1.254l-2.824,7.793h6.479L-142.729,143.532z"/>
		<path fill="#FFFFFF" stroke="#FFFFFF" stroke-miterlimit="10" d="M-237.956,186.395l-1.922-5.227h-7.289l-1.922,5.227h-1.277
			l6.34-16.805h1.103l6.27,16.805H-237.956L-237.956,186.395z M-243.112,172.332c-0.086-0.234-0.156-0.465-0.211-0.691
			c-0.055-0.195-0.113-0.391-0.176-0.586h-0.047c-0.134,0.516-0.263,0.935-0.388,1.254l-2.823,7.793h6.479L-243.112,172.332z"/>
		<path fill="#FFFFFF" stroke="#FFFFFF" stroke-miterlimit="10" d="M-233.807,186.395V169.59h1.16v15.75h6.738v1.055H-233.807
			L-233.807,186.395z"/>
		<path fill="#FFFFFF" stroke="#FFFFFF" stroke-miterlimit="10" d="M-222.815,186.395V169.59h1.16v16.805H-222.815L-222.815,186.395
			z"/>
		<path fill="#FFFFFF" stroke="#FFFFFF" stroke-miterlimit="10" d="M-202.776,186.395v-11.93c0-0.289,0.043-1.113,0.129-2.473
			h-0.047c-0.242,0.633-0.445,1.12-0.608,1.465l-5.978,12.938h-0.375l-6-12.867c-0.195-0.414-0.379-0.94-0.551-1.582h-0.06
			c0.056,0.75,0.082,1.496,0.082,2.238v12.211h-1.159V169.59h1.077l6.271,13.535c0.039,0.078,0.082,0.184,0.129,0.315
			c0.047,0.133,0.098,0.267,0.152,0.398c0.078,0.203,0.159,0.43,0.246,0.68h0.069l0.129-0.375c0.009-0.031,0.142-0.401,0.398-1.113
			l6.176-13.44h1.031v16.805H-202.776L-202.776,186.395z"/>
		<path fill="#FFFFFF" stroke="#FFFFFF" stroke-miterlimit="10" d="M-197.35,186.395V169.59h7.853v1.066h-6.691v6.737h6.211v1.056
			h-6.211v6.891h7.078v1.055H-197.35L-197.35,186.395z"/>
		<path fill="#FFFFFF" stroke="#FFFFFF" stroke-miterlimit="10" d="M-173.467,186.395l-10.009-13.582
			c-0.202-0.272-0.383-0.547-0.539-0.819l-0.151-0.234h-0.047c0.016,0.203,0.022,0.449,0.022,0.738v13.897h-1.161V169.59h0.892
			l9.938,13.465c0.22,0.297,0.457,0.656,0.715,1.078h0.06c-0.039-0.547-0.06-1.016-0.06-1.406V169.59h1.16v16.805H-173.467
			L-173.467,186.395z"/>
		<path fill="#FFFFFF" stroke="#FFFFFF" stroke-miterlimit="10" d="M-163.775,170.656v15.737h-1.147v-15.737h-4.853v-1.066h10.853
			v1.066H-163.775z"/>
		<path fill="#FFFFFF" stroke="#FFFFFF" stroke-miterlimit="10" d="M-145.963,186.395l-1.922-5.227h-7.289l-1.923,5.227h-1.276
			l6.34-16.805h1.102l6.271,16.805H-145.963L-145.963,186.395z M-151.119,172.332c-0.086-0.234-0.156-0.465-0.211-0.691
			c-0.055-0.195-0.113-0.391-0.176-0.586h-0.047c-0.134,0.516-0.263,0.935-0.388,1.254l-2.824,7.793h6.48L-151.119,172.332z"/>
		<path fill="#FFFFFF" stroke="#FFFFFF" stroke-miterlimit="10" d="M-133.213,186.395l-2.238-4.922
			c-0.461-1.016-0.922-1.697-1.383-2.045s-1.039-0.521-1.734-0.521h-2.086v7.487h-1.16V169.59h4.664c1.484,0,2.65,0.4,3.498,1.201
			s1.271,1.856,1.271,3.17c0,1.211-0.349,2.223-1.043,3.035c-0.695,0.812-1.668,1.336-2.918,1.569v0.047
			c0.664,0.267,1.313,1.074,1.944,2.427l2.496,5.354L-133.213,186.395L-133.213,186.395z M-140.654,170.656v7.194h2.896
			c1.28,0,2.299-0.336,3.053-1.008s1.131-1.594,1.131-2.766c0-1.07-0.34-1.908-1.021-2.515c-0.68-0.605-1.651-0.907-2.918-0.907
			L-140.654,170.656L-140.654,170.656z"/>
		<path fill="#FFFFFF" stroke="#FFFFFF" stroke-miterlimit="10" d="M-128.49,186.395V169.59h7.852v1.066h-6.69v6.737h6.211v1.056
			h-6.211v6.891h7.078v1.055H-128.49L-128.49,186.395z"/>
	</g>
</g>
<g id="Ebene_5" display="none">
	<g display="inline">
		<rect x="67.396" y="105.288" fill="none" stroke="#000000" stroke-miterlimit="10" width="17.5" height="31.375"/>
		<g>
			<polygon fill="none" stroke="#000000" stroke-miterlimit="10" points="60.528,105.288 49.834,116.336 49.834,120.93 
				64.975,105.288 			"/>
			<polygon fill="none" stroke="#000000" stroke-miterlimit="10" points="55.608,105.288 49.834,111.253 49.834,116.336 
				60.528,105.288 			"/>
			<polygon fill="none" stroke="#000000" stroke-miterlimit="10" points="67.334,105.288 64.975,105.288 49.834,120.93 
				49.834,124.439 67.334,106.36 			"/>
			<polygon fill="none" stroke="#000000" stroke-miterlimit="10" points="67.334,106.36 49.834,124.439 49.834,129.646 
				67.334,111.566 			"/>
			<polygon fill="none" stroke="#000000" stroke-miterlimit="10" points="51.204,105.288 49.834,106.704 49.834,111.253 
				55.608,105.288 			"/>
			<polygon fill="none" stroke="#000000" stroke-miterlimit="10" points="49.834,105.288 49.834,106.704 51.204,105.288 			"/>
			<polygon fill="none" stroke="#000000" stroke-miterlimit="10" points="67.334,126.746 57.736,136.662 62.308,136.662 
				67.334,131.469 			"/>
			<polygon fill="none" stroke="#000000" stroke-miterlimit="10" points="67.334,136.047 67.334,131.469 62.308,136.662 
				66.737,136.662 			"/>
			<polygon fill="none" stroke="#000000" stroke-miterlimit="10" points="67.334,136.662 67.334,136.047 66.737,136.662 			"/>
			<polygon fill="none" stroke="#000000" stroke-miterlimit="10" points="67.334,116.788 49.834,134.867 49.834,136.662 
				53.339,136.662 67.334,122.203 			"/>
			<polygon fill="none" stroke="#000000" stroke-miterlimit="10" points="67.334,122.203 53.339,136.662 57.736,136.662 
				67.334,126.746 			"/>
			<polygon fill="none" stroke="#000000" stroke-miterlimit="10" points="67.334,111.566 49.834,129.646 49.834,134.867 
				67.334,116.788 			"/>
		</g>
		<g>
			<polygon fill="none" stroke="#000000" stroke-miterlimit="10" points="96.105,105.288 84.979,116.783 84.979,120.285 
				99.495,105.288 			"/>
			<polygon fill="none" stroke="#000000" stroke-linejoin="round" stroke-miterlimit="10" points="99.495,105.288 84.979,120.285 
				84.979,123.223 102.337,105.288 			"/>
			<polygon fill="none" stroke="#000000" stroke-linecap="square" stroke-miterlimit="10" points="102.479,105.288 102.337,105.288 
				84.979,123.223 84.979,126.275 102.479,108.196 			"/>
			<polygon fill="none" stroke="#000000" stroke-miterlimit="10" points="92.837,105.288 84.979,113.407 84.979,116.783 
				96.105,105.288 			"/>
			<polygon fill="none" stroke="#000000" stroke-miterlimit="10" points="87.383,105.288 84.979,107.771 84.979,110.041 
				89.579,105.288 			"/>
			<polygon fill="none" stroke="#000000" stroke-miterlimit="10" points="102.479,108.196 84.979,126.275 84.979,129.234 
				102.479,111.155 			"/>
			<polygon fill="none" stroke="#000000" stroke-miterlimit="10" points="84.979,105.288 84.979,107.771 87.383,105.288 			"/>
			<polygon fill="none" stroke="#000000" stroke-miterlimit="10" points="89.579,105.288 84.979,110.041 84.979,113.407 
				92.837,105.288 			"/>
			<polygon fill="none" stroke="#000000" stroke-miterlimit="10" points="102.479,120.237 86.58,136.662 88.843,136.662 
				102.479,122.574 			"/>
			<polygon fill="none" stroke="#000000" stroke-miterlimit="10" points="102.479,128.125 94.214,136.662 97.062,136.662 
				102.479,131.066 			"/>
			<polygon fill="none" stroke="#000000" stroke-miterlimit="10" points="102.479,136.662 102.479,134.354 100.242,136.662 			"/>
			<polygon fill="none" stroke="#000000" stroke-miterlimit="10" points="102.479,111.155 84.979,129.234 84.979,132.213 
				102.479,114.133 			"/>
			<polygon fill="none" stroke="#000000" stroke-miterlimit="10" points="102.479,125.451 91.628,136.662 94.214,136.662 
				102.479,128.125 			"/>
			<polygon fill="none" stroke="#000000" stroke-miterlimit="10" points="102.479,134.354 102.479,131.066 97.062,136.662 
				100.242,136.662 			"/>
			<polygon fill="none" stroke="#000000" stroke-miterlimit="10" points="102.479,114.133 84.979,132.213 84.979,135.762 
				102.479,117.681 			"/>
			<polygon fill="none" stroke="#000000" stroke-miterlimit="10" points="102.479,122.574 88.843,136.662 91.628,136.662 
				102.479,125.451 			"/>
			<polygon fill="none" stroke="#000000" stroke-miterlimit="10" points="102.479,117.681 84.979,135.762 84.979,136.662 
				86.58,136.662 102.479,120.237 			"/>
		</g>
	</g>
	<g display="inline">
		<rect x="134.229" y="105.288" fill="none" stroke="#000000" stroke-miterlimit="10" width="17.5" height="31.375"/>
		<g>
			<polygon fill="#008D36" stroke="#000000" stroke-miterlimit="10" points="127.361,105.288 116.667,116.336 116.667,120.93 
				131.808,105.288 			"/>
			<polygon fill="#008D36" stroke="#000000" stroke-miterlimit="10" points="122.441,105.288 116.667,111.253 116.667,116.336 
				127.361,105.288 			"/>
			<polygon fill="#008D36" stroke="#000000" stroke-miterlimit="10" points="134.167,105.288 131.808,105.288 116.667,120.93 
				116.667,124.439 134.167,106.36 			"/>
			<polygon fill="#008D36" stroke="#000000" stroke-miterlimit="10" points="134.167,106.36 116.667,124.439 116.667,129.646 
				134.167,111.566 			"/>
			<polygon fill="#008D36" stroke="#000000" stroke-miterlimit="10" points="118.037,105.288 116.667,106.704 116.667,111.253 
				122.441,105.288 			"/>
			<polygon fill="#008D36" stroke="#000000" stroke-miterlimit="10" points="116.667,105.288 116.667,106.704 118.037,105.288 			
				"/>
			<polygon fill="#008D36" stroke="#000000" stroke-miterlimit="10" points="134.167,126.746 124.569,136.662 129.141,136.662 
				134.167,131.469 			"/>
			<polygon fill="#008D36" stroke="#000000" stroke-miterlimit="10" points="134.167,136.047 134.167,131.469 129.141,136.662 
				133.57,136.662 			"/>
			<polygon fill="#008D36" stroke="#000000" stroke-miterlimit="10" points="134.167,136.662 134.167,136.047 133.57,136.662 			"/>
			<polygon fill="#008D36" stroke="#000000" stroke-miterlimit="10" points="134.167,116.788 116.667,134.867 116.667,136.662 
				120.172,136.662 134.167,122.203 			"/>
			<polygon fill="#008D36" stroke="#000000" stroke-miterlimit="10" points="134.167,122.203 120.172,136.662 124.569,136.662 
				134.167,126.746 			"/>
			<polygon fill="#008D36" stroke="#000000" stroke-miterlimit="10" points="134.167,111.566 116.667,129.646 116.667,134.867 
				134.167,116.788 			"/>
		</g>
		<g>
			<polygon fill="#E30613" stroke="#000000" stroke-miterlimit="10" points="162.938,105.288 151.812,116.783 151.812,120.285 
				166.328,105.288 			"/>
			<polygon fill="#E30613" stroke="#000000" stroke-linecap="square" stroke-linejoin="round" stroke-miterlimit="10" points="
				166.328,105.288 151.812,120.285 151.812,123.223 169.17,105.288 			"/>
			<polygon fill="#E30613" stroke="#000000" stroke-miterlimit="10" points="169.312,105.288 169.17,105.288 151.812,123.223 
				151.812,126.275 169.312,108.196 			"/>
			<polygon fill="#E30613" stroke="#000000" stroke-miterlimit="10" points="159.67,105.288 151.812,113.407 151.812,116.783 
				162.938,105.288 			"/>
			<polygon fill="#E30613" stroke="#000000" stroke-miterlimit="10" points="154.216,105.288 151.812,107.771 151.812,110.041 
				156.412,105.288 			"/>
			<polygon fill="#E30613" stroke="#000000" stroke-miterlimit="10" points="151.812,105.288 151.812,107.771 154.216,105.288 			
				"/>
			<polygon fill="#E30613" stroke="#000000" stroke-miterlimit="10" points="169.312,108.196 151.812,126.275 151.812,129.234 
				169.312,111.155 			"/>
			<polygon fill="#E30613" stroke="#000000" stroke-miterlimit="10" points="156.412,105.288 151.812,110.041 151.812,113.407 
				159.67,105.288 			"/>
			<polygon fill="#E30613" stroke="#000000" stroke-miterlimit="10" points="169.312,120.237 153.413,136.662 155.676,136.662 
				169.312,122.574 			"/>
			<polygon fill="#E30613" stroke="#000000" stroke-miterlimit="10" points="169.312,128.125 161.047,136.662 163.895,136.662 
				169.312,131.066 			"/>
			<polygon fill="#E30613" stroke="#000000" stroke-miterlimit="10" points="169.312,136.662 169.312,134.354 167.075,136.662 			
				"/>
			<polygon fill="#E30613" stroke="#000000" stroke-miterlimit="10" points="169.312,111.155 151.812,129.234 151.812,132.213 
				169.312,114.133 			"/>
			<polygon fill="#E30613" stroke="#000000" stroke-miterlimit="10" points="169.312,125.451 158.461,136.662 161.047,136.662 
				169.312,128.125 			"/>
			<polygon fill="#E30613" stroke="#000000" stroke-miterlimit="10" points="169.312,134.354 169.312,131.066 163.895,136.662 
				167.075,136.662 			"/>
			<polygon fill="#E30613" stroke="#000000" stroke-miterlimit="10" points="169.312,114.133 151.812,132.213 151.812,135.762 
				169.312,117.681 			"/>
			<polygon fill="#E30613" stroke="#000000" stroke-miterlimit="10" points="169.312,122.574 155.676,136.662 158.461,136.662 
				169.312,125.451 			"/>
			<polygon fill="#E30613" stroke="#000000" stroke-miterlimit="10" points="169.312,117.681 151.812,135.762 151.812,136.662 
				153.413,136.662 169.312,120.237 			"/>
		</g>
	</g>
</g>
</svg>
