<?xml version="1.0" encoding="utf-8"?>
<!-- Generator: Adobe Illustrator 25.4.1, SVG Export Plug-In . SVG Version: 6.00 Build 0)  -->
<svg version="1.1" id="Ebene_1" xmlns="http://www.w3.org/2000/svg" xmlns:xlink="http://www.w3.org/1999/xlink" x="0px" y="0px"
	 viewBox="0 0 285.6 212.5" style="enable-background:new 0 0 285.6 212.5;" xml:space="preserve">
<style type="text/css">
	.st0{fill:none;}
	.st1{fill:none;stroke:#FFFFFF;stroke-miterlimit:10;}
	.st2{fill:none;stroke:#FFFFFF;stroke-linecap:round;stroke-linejoin:round;stroke-miterlimit:10;stroke-dasharray:0.5,2;}
</style>
<g>
	<g>
		<g>
			<path class="st0" d="M139.5,172.9"/>
		</g>
		<g>
			<g>
				<path class="st1" d="M131,158.3c-0.1-0.1,0.2-0.2,0.2-0.2c6.3-5.5,14.3,3.6,14.3,3.6S138.8,169,131,158.3z"/>
			</g>
		</g>
		<g>
			<g>
				<path class="st1" d="M129.4,159.6c-0.1-0.1-0.2,0.1-0.3,0.2c-6.4,5.3,1.3,14.7,1.3,14.7S138.7,169.1,129.4,159.6z"/>
			</g>
			<g>
				<line class="st1" x1="130.4" y1="176" x2="135.1" y2="189.1"/>
			</g>
		</g>
	</g>
	<g>
		<g>
			<path class="st0" d="M145.3,179.1"/>
		</g>
		<g>
			<g>
				<path class="st1" d="M138.5,167.4c-0.1-0.1,0.1-0.1,0.2-0.2c5-4.4,11.5,2.9,11.5,2.9S144.7,176,138.5,167.4z"/>
			</g>
		</g>
		<g>
			<g>
				<path class="st1" d="M137.2,168.5c-0.1-0.1-0.1,0.1-0.2,0.2c-5.2,4.2,1,11.8,1,11.8S144.6,176,137.2,168.5z"/>
			</g>
			<g>
				<line class="st1" x1="138.5" y1="182.6" x2="142.4" y2="192.2"/>
			</g>
		</g>
	</g>
	<g>
		<g>
			<g>
				<path class="st1" d="M144.6,174.9c0-0.1,0.1-0.1,0.2-0.1c4-3.5,9.2,2.3,9.2,2.3S149.6,181.7,144.6,174.9z"/>
			</g>
		</g>
		<g>
			<g>
				<path class="st1" d="M143.6,175.7c-0.1-0.1-0.1,0.1-0.2,0.1c-4.1,3.4,0.8,9.4,0.8,9.4S149.5,181.8,143.6,175.7z"/>
			</g>
			<g>
				<line class="st1" x1="145.2" y1="187.2" x2="148.6" y2="194.4"/>
			</g>
		</g>
	</g>
	<g>
		<g>
			<path class="st0" d="M131.8,164.5"/>
		</g>
		<g>
			<g>
				<path class="st1" d="M121.6,147c-0.1-0.1,0.2-0.2,0.3-0.3c7.5-6.6,17.2,4.4,17.2,4.4S131,159.8,121.6,147z"/>
			</g>
		</g>
		<g>
			<g>
				<path class="st1" d="M119.7,148.6c-0.1-0.1-0.2,0.2-0.3,0.2c-7.7,6.3,1.5,17.7,1.5,17.7S130.9,159.9,119.7,148.6z"/>
			</g>
			<g>
				<line class="st1" x1="120.9" y1="168.2" x2="126.8" y2="184.6"/>
			</g>
		</g>
	</g>
	<g>
		<path class="st1" d="M148.6,180.7c0-0.1,0.1,0,0.2,0c5.3-0.7,6.3,7,6.3,7S149,189.2,148.6,180.7z"/>
	</g>
	<g>
		<g>
			<path class="st0" d="M123.7,155.6"/>
		</g>
		<g>
			<g>
				<path class="st1" d="M111.4,134.6c-0.1-0.1,0.2-0.2,0.3-0.3c9-7.9,20.6,5.2,20.6,5.2S122.7,149.9,111.4,134.6z"/>
			</g>
		</g>
		<g>
			<g>
				<path class="st1" d="M109.2,136.5c-0.1-0.1-0.3,0.2-0.4,0.3c-9.3,7.6,1.8,21.2,1.8,21.2S122.5,150.1,109.2,136.5z"/>
			</g>
			<g>
				<line class="st1" x1="110.5" y1="160.1" x2="117.9" y2="181.2"/>
			</g>
		</g>
	</g>
	<g>
		<g>
			<path class="st0" d="M113.5,144.4"/>
		</g>
		<g>
			<g>
				<path class="st1" d="M98.8,119.3c-0.1-0.2,0.3-0.3,0.4-0.4c10.8-9.5,24.7,6.3,24.7,6.3S112.3,137.7,98.8,119.3z"/>
			</g>
		</g>
		<g>
			<g>
				<path class="st1" d="M96.1,121.6c-0.1-0.1-0.3,0.2-0.4,0.4c-11.1,9.1,2.2,25.4,2.2,25.4S112.1,137.9,96.1,121.6z"/>
			</g>
			<g>
				<line class="st1" x1="97.8" y1="149.9" x2="106.7" y2="175.4"/>
			</g>
		</g>
	</g>
	<g>
		<path class="st1" d="M94.7,118.2c0,0-38.2-35.8-63.9-98.9l4.5-0.4c8.6,36.9,61.3,98,61.3,98"/>
	</g>
	<path class="st1" d="M92.8,130.7c0,0,0.8-4.9,3.1-6.7c0,0,0.2-0.5,3.4,4.1"/>
	<path class="st1" d="M105,123.8c0,0-3.2-2.8-4.2-4.3c0,0,1.8-2.1,6.9-1.6"/>
	<path class="st1" d="M106.7,142.8c0,0,0.4-1.3,2.3-4.3c0,0,0.7,0.6,2.4,3"/>
	<path class="st1" d="M116.4,138c0,0-1.2-1-3-3.4c0,0,1.3-1.3,5.4-1.3"/>
	<path class="st1" d="M117.7,154.9c0,0,0-1.9,1.9-4.4c0,0,1.1,0.8,2.3,3"/>
	<path class="st1" d="M126.4,150.2c0,0-1.7-1.2-2.8-3.1c0,0,2.5-1.5,5-1"/>
	<path class="st1" d="M127.8,165c0,0,0.4-2.6,1.4-3.5c0,0,0.8,0.7,1.9,2.6"/>
	<path class="st1" d="M135.1,160.9c0,0-1.7-1.3-2.2-2.4c0,0,2.2-1.1,4-0.6"/>
	<path class="st1" d="M136.1,172.9c0,0,0.4-2.1,1.1-2.7c0,0,1,1.1,1.4,2.2"/>
	<path class="st1" d="M142,169.4c0,0-1.2-0.8-1.8-1.8c0,0,1.9-0.9,3.2-0.4"/>
	<path class="st1" d="M143,179.6c0,0-0.1-1.6,0.5-2.2c0,0,0.7,0.9,1,1.6"/>
	<path class="st1" d="M147.3,176.4c0,0-0.7-0.5-1.1-1.2c0,0,0,0,0,0c0,0,1.5-0.6,2.2-0.2"/>
	<path class="st1" d="M150.2,183.4c0,0-0.3-0.9-0.3-1.5c0,0,1.1,0.3,1.4,0.8"/>
	<path class="st2" d="M92.9,131.4c0,0,0,3.4,0.9,5.4"/>
	<path class="st2" d="M99.7,128.8c0,0,2,2.9,2.1,4.8"/>
	<path class="st2" d="M105.5,124.3c0,0,2.7,1.7,4.3,2.2"/>
	<path class="st2" d="M108.9,117.8c0,0,2.7,0.6,4.8,1.9"/>
	<path class="st2" d="M107,148.1c0,0-0.9-2.9-0.3-4.6"/>
	<path class="st2" d="M111.8,142.1c0,0,1.3,2.1,2,3.8"/>
	<path class="st2" d="M116.8,138.5c0,0,2.3,2,3.9,2"/>
	<path class="st2" d="M119.5,133.5c0,0,2.8,0.4,4.5,1.6"/>
	<path class="st2" d="M118.8,159.7c0,0-1.2-2.5-1.1-4.3"/>
	<path class="st2" d="M122.2,154.4c0,0,1.1,2.2,1.3,3.8"/>
	<path class="st2" d="M127.2,150.7c0.1,0.2,1.9,1.2,3.7,1.4"/>
	<path class="st2" d="M129.1,146.3c0,0,3.3,1.4,4.2,2.1"/>
	<path class="st2" d="M128.5,168.5c0,0-0.5-1.5-0.8-2.9"/>
	<path class="st2" d="M131.3,164.5c0,0,1.1,1.3,1,2.5"/>
	<path class="st2" d="M135.5,161.1c0,0,2,1.3,3.1,1.4"/>
	<path class="st2" d="M137.7,158c0,0,1.7,0.4,2.9,1.3"/>
	<path class="st2" d="M136.6,175.6c0,0-0.6-1.6-0.5-2.2"/>
	<path class="st2" d="M138.8,172.8c0,0,0.6,1.4,0.6,1.9"/>
	<path class="st2" d="M142.4,169.6c0,0,1.3,1,2.2,1"/>
	<path class="st2" d="M143.8,167.4c0,0,1.3,0.3,2.2,0.9"/>
	<path class="st2" d="M143.7,182.2c-0.3-0.5-0.6-2.1-0.6-2.1"/>
	<path class="st2" d="M144.9,179.8c0,0,0.4,1.5,0.3,2"/>
	<path class="st2" d="M147.7,176.5c0,0,1.2,0.7,1.9,0.8"/>
	<path class="st2" d="M148.8,175c0,0,1,0.3,1.8,1"/>
	<path class="st2" d="M150.4,183.8c0,0,0.7,1.6,1.3,1.8"/>
	<path class="st2" d="M151.7,183c0,0,1.1,1.1,1.4,2"/>
	<g>
		<line class="st1" x1="147.9" y1="161.9" x2="160.3" y2="168.2"/>
	</g>
	<g>
		<line class="st1" x1="153.5" y1="170.7" x2="162.5" y2="175.8"/>
	</g>
	<g>
		<line class="st1" x1="157.2" y1="178" x2="163.9" y2="182.2"/>
	</g>
	<g>
		<line class="st1" x1="141.4" y1="151.5" x2="156.8" y2="159.4"/>
	</g>
	<g>
		<line class="st1" x1="134.5" y1="140.2" x2="154.6" y2="150.2"/>
	</g>
	<g>
		<line class="st1" x1="126" y1="126.3" x2="150.3" y2="138.3"/>
	</g>
	<path class="st1" d="M158.6,114c0,0-89.7-35-135.8-85.1l2.8-3.7c35.5,42.4,134.1,85.6,134.1,85.6"/>
	<path class="st1" d="M71.4,57c0,0,43.5-1.7,44.2-6.2c0.8-4.9-0.4-7.5-0.4-7.5L71.4,57"/>
	<path class="st1" d="M114.1,52.4c0,0-14.9-14.4-19-14.9c-3.5-0.4,19.9,1.5,21.6,7.1c1.9,6.2,1.2,6.1-2.5,7.4"/>
	<line class="st1" x1="84.4" y1="54.2" x2="86" y2="55"/>
	<line class="st1" x1="85.7" y1="53.7" x2="87.6" y2="55"/>
	<line class="st1" x1="86.7" y1="53.3" x2="89.4" y2="54.8"/>
	<line class="st1" x1="106.5" y1="47.5" x2="111.3" y2="51.6"/>
	<line class="st1" x1="105" y1="47.9" x2="109.9" y2="52"/>
	<line class="st1" x1="103.9" y1="48.3" x2="108.5" y2="52.3"/>
	<line class="st1" x1="102.7" y1="48.6" x2="107" y2="52.4"/>
	<g>
		<g>
			<path class="st0" d="M222.8,140"/>
		</g>
		<g>
			<g>
				<path class="st1" d="M208.5,131c-0.1-0.1,0.1-0.2,0.1-0.3c3-7.8,14.4-3.4,14.4-3.4S220.3,136.9,208.5,131z"/>
			</g>
		</g>
		<g>
			<g>
				<path class="st1" d="M207.7,132.9c-0.1,0-0.1,0.2-0.1,0.3c-3.3,7.7,7.9,12.5,7.9,12.5S220.3,137,207.7,132.9z"/>
			</g>
			<g>
				<line class="st1" x1="216.1" y1="147" x2="226.4" y2="156.4"/>
			</g>
		</g>
	</g>
	<g>
		<g>
			<path class="st0" d="M230.8,142.9"/>
		</g>
		<g>
			<g>
				<path class="st1" d="M219.3,135.7c-0.1,0,0.1-0.2,0.1-0.2c2.4-6.2,11.5-2.7,11.5-2.7S228.8,140.4,219.3,135.7z"/>
			</g>
		</g>
		<g>
			<g>
				<path class="st1" d="M218.7,137.2c-0.1,0-0.1,0.2-0.1,0.2c-2.6,6.1,6.3,10,6.3,10S228.8,140.5,218.7,137.2z"/>
			</g>
			<g>
				<line class="st1" x1="226.4" y1="149.2" x2="234.3" y2="155.8"/>
			</g>
		</g>
	</g>
	<g>
		<g>
			<g>
				<path class="st1" d="M228.2,139.5c-0.1,0,0-0.1,0.1-0.2c1.9-5,9.2-2.2,9.2-2.2S235.8,143.2,228.2,139.5z"/>
			</g>
		</g>
		<g>
			<g>
				<path class="st1" d="M227.7,140.7c-0.1,0-0.1,0.1-0.1,0.2c-2.1,4.9,5.1,8,5.1,8S235.8,143.3,227.7,140.7z"/>
			</g>
			<g>
				<line class="st1" x1="234.5" y1="150.1" x2="240.8" y2="154.9"/>
			</g>
		</g>
	</g>
	<g>
		<g>
			<path class="st0" d="M212.1,136.1"/>
		</g>
		<g>
			<g>
				<path class="st1" d="M195,125.3c-0.1-0.1,0.1-0.3,0.1-0.4c3.6-9.3,17.2-4.1,17.2-4.1S209.2,132.4,195,125.3z"/>
			</g>
		</g>
		<g>
			<g>
				<path class="st1" d="M194,127.6c-0.1,0-0.1,0.2-0.2,0.4c-3.9,9.2,9.5,15,9.5,15S209.1,132.5,194,127.6z"/>
			</g>
			<g>
				<line class="st1" x1="204.1" y1="144.5" x2="216.9" y2="156.3"/>
			</g>
		</g>
	</g>
	<g>
		<path class="st1" d="M234.5,142.8c0-0.1,0.1-0.1,0.2-0.1c4.4-3.1,8.9,3.3,8.9,3.3S238.7,150.1,234.5,142.8z"/>
	</g>
	<g>
		<g>
			<path class="st0" d="M200.8,132"/>
		</g>
		<g>
			<g>
				<path class="st1" d="M180.2,119c-0.1-0.1,0.1-0.3,0.2-0.4c4.3-11.2,20.7-4.9,20.7-4.9S197.3,127.5,180.2,119z"/>
			</g>
		</g>
		<g>
			<g>
				<path class="st1" d="M179.1,121.8c-0.2,0-0.1,0.3-0.2,0.4c-4.7,11,11.4,18,11.4,18S197.2,127.7,179.1,121.8z"/>
			</g>
			<g>
				<line class="st1" x1="191.2" y1="142.1" x2="207.5" y2="157.3"/>
			</g>
		</g>
	</g>
	<g>
		<g>
			<path class="st0" d="M186.6,126.8"/>
		</g>
		<g>
			<g>
				<path class="st1" d="M161.9,111.3c-0.2-0.1,0.1-0.4,0.2-0.5c5.2-13.4,24.8-5.9,24.8-5.9S182.4,121.4,161.9,111.3z"/>
			</g>
		</g>
		<g>
			<g>
				<path class="st1" d="M160.6,114.6c-0.2-0.1-0.2,0.3-0.2,0.5c-5.7,13.2,13.7,21.5,13.7,21.5S182.3,121.6,160.6,114.6z"/>
			</g>
			<g>
				<line class="st1" x1="175.1" y1="138.9" x2="194.9" y2="157.4"/>
			</g>
		</g>
	</g>
	<path class="st1" d="M161.9,124.2c0,0-1.5-4.8-0.4-7.4c0,0,0-0.5,4.9,2"/>
	<path class="st1" d="M169.5,112.4c0,0-4.1-1-5.7-1.9c0,0,0.6-2.7,5.4-4.6"/>
	<path class="st1" d="M179.8,128.5c0,0-0.3-1.3,0.1-4.9c0,0,0.9,0.2,3.5,1.6"/>
	<path class="st1" d="M186.2,119.8c0,0-1.5-0.3-4.2-1.6c0,0,0.6-1.8,4.1-3.7"/>
	<path class="st1" d="M195.1,134.1c0,0-0.8-1.7-0.4-4.7c0,0,1.4,0.2,3.4,1.5"/>
	<path class="st1" d="M200.7,126c0,0-2-0.3-3.9-1.4c0,0,1.5-2.5,4-3.2"/>
	<path class="st1" d="M208.7,138.4c0,0-0.9-2.5-0.4-3.8c0,0,1,0.2,2.9,1.4"/>
	<path class="st1" d="M213.3,131.5c0,0-2.1-0.4-3.1-1.1c0,0,1.4-2,3.3-2.4"/>
	<path class="st1" d="M219.8,141.7c0,0-0.6-2.1-0.3-2.9c0,0,1.4,0.5,2.3,1.3"/>
	<path class="st1" d="M223.4,135.8c0,0-1.4-0.2-2.4-0.7c0,0,1.3-1.7,2.7-1.8"/>
	<path class="st1" d="M229,144.4c0,0-0.8-1.4-0.6-2.2c0,0,1.1,0.4,1.6,0.9"/>
	<path class="st1" d="M231.3,139.5c0,0-0.9-0.1-1.6-0.6c0,0,0,0,0,0c0,0,1.1-1.2,1.9-1.2"/>
	<path class="st1" d="M237.1,144.5c0,0-0.7-0.6-0.9-1.2c0,0,1.1-0.2,1.6,0"/>
	<path class="st2" d="M162.3,124.8c0,0,1.6,3,3.3,4.3"/>
	<path class="st2" d="M167.1,119.3c0,0,3.1,1.7,4.1,3.3"/>
	<path class="st2" d="M170.1,112.6c0,0,3.2,0.3,4.8-0.1"/>
	<path class="st2" d="M170.1,105.3c0,0,2.6-0.7,5.1-0.5"/>
	<path class="st2" d="M182.5,133.1c0,0-2.2-2.2-2.4-4"/>
	<path class="st2" d="M184,125.5c0,0,2.1,1.3,3.6,2.4"/>
	<path class="st2" d="M186.8,120c0,0,3,0.7,4.4,0"/>
	<path class="st2" d="M186.8,114.3c0,0,2.6-1,4.8-0.7"/>
	<path class="st2" d="M198.3,138c0,0-2.2-1.7-2.9-3.3"/>
	<path class="st2" d="M198.9,131.7c0,0,2,1.4,2.9,2.8"/>
	<path class="st2" d="M201.6,126c0.2,0.2,2.2,0.2,3.9-0.5"/>
	<path class="st2" d="M201.3,121.3c0,0,3.6-0.3,4.7,0"/>
	<path class="st2" d="M211,141.2c0,0-1.2-1.1-2-2.2"/>
	<path class="st2" d="M211.7,136.4c0,0,1.6,0.7,2,1.8"/>
	<path class="st2" d="M213.8,131.5c0,0,2.4,0.2,3.4-0.2"/>
	<path class="st2" d="M214.3,127.7c0,0,1.7-0.4,3.1-0.2"/>
	<path class="st2" d="M221.5,143.8c0,0-1.2-1.1-1.5-1.7"/>
	<path class="st2" d="M222.2,140.3c0,0,1.2,1,1.4,1.4"/>
	<path class="st2" d="M223.8,135.8c0,0,1.6,0.3,2.4-0.2"/>
	<path class="st2" d="M224.1,133.2c0,0,1.3-0.3,2.3-0.2"/>
	<path class="st2" d="M230.8,146.4c-0.5-0.3-1.5-1.5-1.5-1.5"/>
	<path class="st2" d="M230.8,143.7c0,0,1,1.1,1.2,1.6"/>
	<path class="st2" d="M231.7,139.5c0,0,1.4,0.1,2-0.2"/>
	<path class="st2" d="M232,137.6c0,0,1-0.2,2.1,0"/>
	<path class="st2" d="M237.4,144.7c0,0,1.3,1.1,2,1"/>
	<path class="st2" d="M238.3,143.3c0,0,1.5,0.5,2.2,1.1"/>
	<g>
		<line class="st1" x1="225.1" y1="126.4" x2="239" y2="126.3"/>
	</g>
	<g>
		<line class="st1" x1="234.2" y1="131.7" x2="244.5" y2="132"/>
	</g>
	<g>
		<line class="st1" x1="240.8" y1="136.4" x2="248.7" y2="137.1"/>
	</g>
	<g>
		<line class="st1" x1="214.5" y1="120.2" x2="231.9" y2="120"/>
	</g>
	<g>
		<line class="st1" x1="203.3" y1="113.4" x2="225.6" y2="112.9"/>
	</g>
	<g>
		<line class="st1" x1="189.3" y1="105" x2="216.4" y2="104.4"/>
	</g>
	<path class="st1" d="M137.2,71.4c0,0-64.6,4.1-123.6-29.8l1.6-4.3C61.9,67,137.3,68,137.3,68"/>
	<g>
		<g>
			<path class="st0" d="M206.4,59.9"/>
		</g>
		<g>
			<g>
				<path class="st1" d="M189.5,60c-0.1,0-0.1-0.2-0.1-0.3c-1.6-8.2,10.3-10.6,10.3-10.6S202.7,58.6,189.5,60z"/>
			</g>
		</g>
		<g>
			<g>
				<path class="st1" d="M189.9,62c-0.1,0,0,0.2,0,0.3c1.3,8.2,13.4,6.3,13.4,6.3S202.7,58.7,189.9,62z"/>
			</g>
			<g>
				<line class="st1" x1="204.5" y1="69.4" x2="218.2" y2="71.8"/>
			</g>
		</g>
	</g>
	<g>
		<g>
			<path class="st0" d="M214.7,58.1"/>
		</g>
		<g>
			<g>
				<path class="st1" d="M201.2,58.1c-0.1,0,0-0.2-0.1-0.3c-1.3-6.5,8.3-8.5,8.3-8.5S211.7,57,201.2,58.1z"/>
			</g>
		</g>
		<g>
			<g>
				<path class="st1" d="M201.4,59.7c-0.1,0,0,0.2,0,0.3c1.1,6.6,10.7,5,10.7,5S211.7,57.1,201.4,59.7z"/>
			</g>
			<g>
				<line class="st1" x1="214.3" y1="65.7" x2="224.6" y2="67.1"/>
			</g>
		</g>
	</g>
	<g>
		<g>
			<g>
				<path class="st1" d="M210.7,56.5c-0.1,0,0-0.1,0-0.2c-1-5.2,6.6-6.8,6.6-6.8S219.1,55.6,210.7,56.5z"/>
			</g>
		</g>
		<g>
			<g>
				<path class="st1" d="M210.9,57.8c-0.1,0,0,0.1,0,0.2c0.9,5.3,8.6,4,8.6,4S219.1,55.7,210.9,57.8z"/>
			</g>
			<g>
				<line class="st1" x1="221.6" y1="62.1" x2="229.6" y2="62.8"/>
			</g>
		</g>
	</g>
	<g>
		<g>
			<path class="st0" d="M195.3,62.3"/>
		</g>
		<g>
			<g>
				<path class="st1" d="M175,62.4c-0.1,0-0.1-0.3-0.1-0.4c-2-9.8,12.4-12.7,12.4-12.7S190.8,60.7,175,62.4z"/>
			</g>
		</g>
		<g>
			<g>
				<path class="st1" d="M175.5,64.8c-0.1,0,0,0.3,0.1,0.4c1.6,9.9,16,7.5,16,7.5S190.8,60.9,175.5,64.8z"/>
			</g>
			<g>
				<line class="st1" x1="193" y1="73.7" x2="210.1" y2="76.8"/>
			</g>
		</g>
	</g>
	<g>
		<path class="st1" d="M217.8,56c-0.1,0,0.1-0.1,0.1-0.2c2-4.9,9.2-2,9.2-2S225.3,59.9,217.8,56z"/>
	</g>
	<g>
		<g>
			<path class="st0" d="M183.5,64.9"/>
		</g>
		<g>
			<g>
				<path class="st1" d="M159.2,65c-0.2,0-0.1-0.3-0.1-0.5c-2.3-11.8,14.9-15.2,14.9-15.2S178.1,63,159.2,65z"/>
			</g>
		</g>
		<g>
			<g>
				<path class="st1" d="M159.7,67.9c-0.2,0,0,0.3,0.1,0.5c1.9,11.8,19.2,9.1,19.2,9.1S178.1,63.2,159.7,67.9z"/>
			</g>
			<g>
				<line class="st1" x1="180.8" y1="78.6" x2="202.8" y2="82.7"/>
			</g>
		</g>
	</g>
	<g>
		<g>
			<path class="st0" d="M168.8,68.1"/>
		</g>
		<g>
			<g>
				<path class="st1" d="M139.6,68.3c-0.2,0-0.1-0.4-0.1-0.6c-2.8-14.1,17.8-18.3,17.8-18.3S162.4,65.8,139.6,68.3z"/>
			</g>
		</g>
		<g>
			<g>
				<path class="st1" d="M140.3,71.8c-0.2,0,0,0.4,0.1,0.6c2.3,14.2,23.1,10.9,23.1,10.9S162.4,66.1,140.3,71.8z"/>
			</g>
			<g>
				<line class="st1" x1="165.6" y1="84.5" x2="192.2" y2="89.6"/>
			</g>
		</g>
	</g>
	<path class="st1" d="M146.5,79.2c0,0-3.9-3.2-4.2-6c0,0-0.3-0.4,5.2-0.9"/>
	<path class="st1" d="M146.6,65.1c0,0-4,1.4-5.8,1.5c0,0-0.9-2.6,2.1-6.8"/>
	<path class="st1" d="M163.9,73.2c0,0-1-1-2.6-4.2c0,0,0.8-0.3,3.8-0.5"/>
	<path class="st1" d="M164.7,62.5c0,0-1.4,0.5-4.4,0.9c0,0-0.5-1.8,1.5-5.3"/>
	<path class="st1" d="M179.9,69.8c0,0-1.6-1-2.8-3.8c0,0,1.3-0.6,3.7-0.5"/>
	<path class="st1" d="M180.2,59.9c0,0-1.9,0.9-4.1,0.9c0,0,0-2.9,1.6-4.8"/>
	<path class="st1" d="M193.7,66.1c0,0-2.1-1.6-2.3-3c0,0,1-0.4,3.2-0.4"/>
	<path class="st1" d="M193.8,57.7c0,0-2,0.8-3.2,0.7c0,0,0.1-2.4,1.5-3.8"/>
	<path class="st1" d="M204.8,62.9c0,0-1.7-1.4-1.8-2.3c0,0,1.5-0.3,2.6-0.1"/>
	<path class="st1" d="M204.6,56c0,0-1.3,0.6-2.4,0.7c0,0,0.2-2.1,1.3-2.9"/>
	<path class="st1" d="M214,60.3c0,0-1.4-0.7-1.6-1.5c0,0,1.1-0.2,1.9-0.1"/>
	<path class="st1" d="M213.4,54.9c0,0-0.8,0.4-1.6,0.3c0,0,0,0,0,0c0,0,0.3-1.6,0.9-2"/>
	<path class="st1" d="M220.9,56c0,0-0.9-0.2-1.5-0.5c0,0,0.8-0.8,1.4-0.9"/>
	<path class="st2" d="M147.1,79.5c0,0,2.9,1.7,5.1,1.9"/>
	<path class="st2" d="M148.3,72.3c0,0,3.5-0.2,5.2,0.6"/>
	<path class="st2" d="M147.3,65c0,0,2.8-1.4,4-2.6"/>
	<path class="st2" d="M143.4,58.8c0,0,1.8-2,4-3.2"/>
	<path class="st2" d="M168.7,75.6c0,0-3-0.7-4.2-2.1"/>
	<path class="st2" d="M165.9,68.4c0,0,2.4,0,4.3,0.2"/>
	<path class="st2" d="M165.3,62.3c0,0,2.9-1,3.7-2.4"/>
	<path class="st2" d="M162.3,57.5c0,0,1.7-2.2,3.7-3.1"/>
	<path class="st2" d="M184.6,71.3c0,0-2.8-0.3-4.3-1.2"/>
	<path class="st2" d="M181.8,65.7c0,0,2.5,0.1,3.9,0.8"/>
	<path class="st2" d="M181,59.4c0.3,0,2-1,3-2.5"/>
	<path class="st2" d="M178.2,55.6c0,0,2.9-2.2,3.9-2.5"/>
	<path class="st2" d="M197.1,67.2c0,0-1.6-0.3-2.9-0.8"/>
	<path class="st2" d="M195.1,62.8c0,0,1.7-0.3,2.7,0.4"/>
	<path class="st2" d="M194.2,57.5c0,0,2.1-1.1,2.8-2"/>
	<path class="st2" d="M192.6,54.1c0,0,1.2-1.3,2.5-1.8"/>
	<path class="st2" d="M207.3,63.8c0,0-1.6-0.3-2.2-0.7"/>
	<path class="st2" d="M206,60.5c0,0,1.5,0.2,1.9,0.4"/>
	<path class="st2" d="M205,55.8c0,0,1.5-0.6,1.9-1.4"/>
	<path class="st2" d="M203.8,53.5c0,0,0.9-1,1.8-1.4"/>
	<path class="st2" d="M216.6,60.9c-0.6,0-2.1-0.5-2.1-0.5"/>
	<path class="st2" d="M215.1,58.8c0,0,1.4,0.4,1.9,0.7"/>
	<path class="st2" d="M213.7,54.7c0,0,1.2-0.6,1.6-1.2"/>
	<path class="st2" d="M212.9,52.9c0,0,0.8-0.7,1.8-1.1"/>
	<path class="st2" d="M221.3,56c0,0,1.7,0.2,2.2-0.2"/>
	<path class="st2" d="M221.2,54.4c0,0,1.5-0.4,2.4-0.3"/>
	<g>
		<line class="st1" x1="201.1" y1="47.1" x2="212.7" y2="39.6"/>
	</g>
	<g>
		<line class="st1" x1="211.5" y1="46.7" x2="220.5" y2="41.5"/>
	</g>
	<g>
		<line class="st1" x1="219.7" y1="47.2" x2="226.7" y2="43.5"/>
	</g>
	<g>
		<line class="st1" x1="188.8" y1="47.6" x2="203.4" y2="38.1"/>
	</g>
	<g>
		<line class="st1" x1="175.7" y1="47.9" x2="194.3" y2="35.5"/>
	</g>
	<g>
		<line class="st1" x1="159.3" y1="48.3" x2="181.9" y2="33.3"/>
	</g>
	<path class="st2" d="M103.2,40.5c0,0,10.7,3.9,13,7"/>
	<path class="st2" d="M82.1,55c0,0,23.7-3.9,27.1-5.6"/>
	<line class="st1" x1="157.8" y1="111.2" x2="158" y2="112.4"/>
	<line class="st1" x1="156.7" y1="110.7" x2="157" y2="112"/>
	<line class="st1" x1="136" y1="69.1" x2="136.5" y2="70.1"/>
	<line class="st1" x1="134.9" y1="69.1" x2="135.7" y2="70.2"/>
	<line class="st1" x1="133.9" y1="69.1" x2="134.6" y2="70.2"/>
	<line class="st1" x1="155.5" y1="110.2" x2="156" y2="111.7"/>
	<path class="st1" d="M95.1,116.6c0,0.1-0.1,0.6-0.1,0.6"/>
	<line class="st1" x1="94.5" y1="115.9" x2="94.4" y2="116.4"/>
	<line class="st1" x1="93.9" y1="115.1" x2="93.6" y2="115.7"/>
	<line class="st1" x1="80.3" y1="55.2" x2="80.6" y2="55.6"/>
	<line class="st1" x1="81.4" y1="54.8" x2="82.1" y2="55.4"/>
	<line class="st1" x1="83.1" y1="54.4" x2="84" y2="55.2"/>
	<path class="st1" d="M55.4,71.7c0,0,11.2,42.1,7.1,44.1c-4.5,2.2-7.3,1.8-7.3,1.8L55.4,71.7"/>
	<path class="st1" d="M43.8,100.1c-1.4-3.2,7.3,18.6,13.2,18.6c6.4,0,6.2-0.7,6.4-4.6"/>
	<path class="st1" d="M63.6,113.9c0,0-18.2-10-19.8-13.7"/>
	<line class="st1" x1="56.5" y1="85" x2="57.9" y2="86.3"/>
	<line class="st1" x1="56.5" y1="86.3" x2="58.3" y2="87.8"/>
	<line class="st1" x1="56.4" y1="87.4" x2="58.6" y2="89.5"/>
	<line class="st1" x1="56.7" y1="108.1" x2="62.1" y2="111.4"/>
	<line class="st1" x1="56.6" y1="106.6" x2="62" y2="110"/>
	<line class="st1" x1="56.7" y1="105.3" x2="61.8" y2="108.6"/>
	<line class="st1" x1="56.6" y1="104.1" x2="61.6" y2="107.1"/>
	<path class="st2" d="M49.1,107c0,0,6.9,9.1,10.5,10.3"/>
	<path class="st2" d="M56.7,82.6c0,0,3.2,23.8,2.6,27.6"/>
	<line class="st1" x1="56.3" y1="80.7" x2="56.8" y2="80.9"/>
	<line class="st1" x1="56.3" y1="81.9" x2="57.1" y2="82.4"/>
	<line class="st1" x1="56.4" y1="83.7" x2="57.4" y2="84.3"/>
	<line class="st1" x1="15.9" y1="39.2" x2="16.3" y2="41.3"/>
	<line class="st1" x1="17.3" y1="39.9" x2="18" y2="42.7"/>
	<line class="st1" x1="19.2" y1="41" x2="19.7" y2="43.2"/>
	<line class="st1" x1="22.2" y1="42.9" x2="22.4" y2="44.8"/>
	<line class="st1" x1="26" y1="44.7" x2="26.5" y2="46.7"/>
	<line class="st1" x1="33.9" y1="48.7" x2="34.3" y2="50.3"/>
	<line class="st1" x1="53.6" y1="56" x2="54" y2="57.4"/>
	<line class="st1" x1="84.3" y1="63.7" x2="85" y2="65.5"/>
</g>
</svg>
