<?xml version="1.0" encoding="utf-8"?>
<!-- Generator: Adobe Illustrator 25.4.1, SVG Export Plug-In . SVG Version: 6.00 Build 0)  -->
<svg version="1.1" id="Ebene_1" xmlns="http://www.w3.org/2000/svg" xmlns:xlink="http://www.w3.org/1999/xlink" x="0px" y="0px"
	 viewBox="0 0 285.6 212.5" style="enable-background:new 0 0 285.6 212.5;" xml:space="preserve">
<style type="text/css">
	.st0{fill:none;stroke:#FFFFFF;stroke-miterlimit:10;}
	.st1{fill:none;stroke:#FFFFFF;stroke-linecap:round;stroke-linejoin:round;stroke-miterlimit:10;stroke-dasharray:0.5,2;}
</style>
<g>
	<g>
		<path class="st0" d="M140.6,29.3c12.3,8.2,16.2,1.4,16.2,1.4c3-3.2,2.1-9,2.1-9c0.3-6.9-3.8-5.4-3.8-5.4c-3.8,0.5-3.2,5-3.2,5
			c1.6,7.5-5.3,3.7-5.3,3.7c-7.3-2.2-6.1,4.1-6.1,4.1c3.4,8.7-5.5,3.9-5.5,3.9c-7.7-1.4-4.8,5-4.8,5c1,2.8-1.1,5.6-1.1,5.6
			c-1.9,2.9-0.6,4.3,2,6.1c0,0,6.6-2.5,6-8.8"/>
		<path class="st0" d="M129.9,37.3c0,0,6.5,6.4,13.4,3c0,0,4.9-2,4.4-7.6"/>
		<path class="st0" d="M151.8,21.3c0.3,2,5.2,6.4,7-1.2"/>
		<path class="st0" d="M154.7,18.5c0,0-2.3,2,0.1,3.3c0.9,0.5,2.3-0.5,2.1-2.6C156.9,18.6,155.8,17.7,154.7,18.5z"/>
	</g>
	<path class="st0" d="M141.5,31c0,0,3.1,2.5,5.8,2.8"/>
	<path class="st0" d="M141.7,32c0,0,3.6,2.7,5.6,2.6"/>
	<path class="st0" d="M130.6,39.3c0,0,3.1,2.7,6.2,2.8"/>
	<path class="st0" d="M130.8,40.3c0,0,3.1,2.6,5.9,2.3"/>
	<path class="st0" d="M152.5,24.1c0,0,3.4,3.6,6.2-0.8"/>
	<path class="st1" d="M141.3,27.5c0,0,0.7-2.7,4.8-1.6c4.1,1.1,2.5,1.1,4.5,1"/>
	<path class="st1" d="M130.6,35.2c0,0,1.1-2.1,4.1-1.2c0,0,3,1.7,4,1.5"/>
</g>
<g>
	<g>
		<path class="st0" d="M170.2,99c0,0,6.1,6,4.6,14.1c0,0,0.2,1.1,2,0.5c0,0,10-3.8,15.2,1.6c0,0,0.5,0.3-1.7,0.9c0,0-2,0.1-0.5,1.5
			c0,0,1.9,1.5-0.4,2c0,0-2.6,0.4-1,2c0,0,1.8,1.6-0.8,1.7c0,0-2.2-0.3-0.9,1.4c0,0,1.2,2.1-1.2,1.6c0,0-2.9-0.9-1.9,1.6
			c0,0,1.1,2.1-1.2,1.3c0,0-1.8-0.7-1.8,0.8c0,0,0.2,1.7-1.4,1c0,0-2.1-1.2-2.4,1.1c0,0,0.2,2.3-1.9,0.9c0,0-2.1-2.3-3.6-7.3
			c0,0-0.8-4.8-0.7-5.8c0,0-0.1-0.9-3-0.8c0,0-5.1,1.1-8.6,0.1c0,0-3.2-0.2-5.2-2.7c0,0-1.7-1.3,0.4-1.2c0,0,2.9,0.1,1.2-1.2
			c0,0-1.9-1.4,0.6-1.5c0,0,1.8,0,0.6-1.6c0,0-1.7-2.4,1.1-2.2c0,0,2.2,0.3,1.2-1.2c0,0-1.2-2.1,1.2-1.7c0,0,2.3,0.4,1.5-1.3
			c0,0-0.6-1.6,1.3-1.1c0,0,2.1,0.6,1.7-1.2c0,0-0.3-2.2,1.4-1.2c0,0,1.7,1.3,1.5-0.4C167.6,100.5,167.6,96.7,170.2,99z"/>
		<path class="st0" d="M168.9,112.7c0,0,1.1,0.8,1.7,3c0,0,1.3,2.3,4.1,3.1c0,0,4.1,0.9,4.8,0.6"/>
		<path class="st0" d="M167.2,115.7c0,0,4-0.1,9,5.7"/>
		<path class="st0" d="M173.1,112.9c0,0,0.6,2.4,3.9,2.4"/>
	</g>
	<path class="st0" d="M165.9,101.8c0,0,0.2,0.9-0.2,1.5"/>
	<path class="st0" d="M162.8,104.2c0,0,0.5,0.7,0,1.4"/>
	<path class="st0" d="M159.7,106.7c0,0,1,1.2,0.5,1.8"/>
	<path class="st0" d="M157.1,109.7c0,0,1.5,1.4,1.1,2.3"/>
	<path class="st0" d="M156.5,113.5c0,0,0.9,1,0.5,1.9"/>
	<path class="st0" d="M168.9,99.3c0,0,0,1.7-0.4,2.3"/>
	<path class="st0" d="M190.3,115c0,0-1.1-0.1-1.5,0.6"/>
	<path class="st0" d="M189.3,118.5c0,0-0.9,0.1-1.5,0.6"/>
	<path class="st0" d="M187.6,122.2c0,0-1.3-0.1-1.5,0.1"/>
	<path class="st0" d="M185.8,125.4c0,0-0.5-0.7-1.5-0.3"/>
	<path class="st0" d="M182.7,128.1c0,0-0.6-0.3-1.3-0.1"/>
	<path class="st0" d="M179.7,130c0,0-0.7-0.4-1.5-0.4"/>
	<path class="st0" d="M175.1,131.3c0,0,0.4,0.8,0.9,0.9"/>
	<path class="st0" d="M154.9,116c0,0,0.8,0.9,1.7,1.2"/>
	<path class="st0" d="M169.2,117.8c0,0,2.7,0.1,2.6,2.2"/>
	<path class="st0" d="M168.4,113.5c0,0,1.1,1.3,1.6,2.5"/>
	<path class="st0" d="M167.8,114.4c0,0,1,0.7,1.5,1.4"/>
	<path class="st0" d="M174.9,119.3c0,0,1.1,0.9,2.5,1.2"/>
	<path class="st1" d="M177.7,115.1c0,0,6.1-2.6,11.3-0.6"/>
	<path class="st1" d="M169.6,100.1c0,0,5,6.4,3.5,11.9"/>
	<path class="st0" d="M158,117.6c0,0,6.2,1,10.3,0.1"/>
	<path class="st0" d="M172.1,120.9c0,0,0.7,6.8,2.8,9.6"/>
</g>
<g>
	<g>
		<path class="st0" d="M156.3,164.1c0,0,8.6-0.2,13.3,6.5c0,0,0.9,0.7,1.8-1.1c0,0,4.2-9.8,11.7-9.8c0,0,0.5-0.1-0.5,1.9
			c0,0-1.3,1.5,0.7,1.4c0,0,2.4-0.3,1.2,1.7c0,0-1.5,2.2,0.7,2.1c0,0,2.4-0.1,0.6,1.8c0,0-1.8,1.4,0.3,1.6c0,0,2.3,0.6,0.3,1.9
			c0,0-2.7,1.4-0.2,2.4c0,0,2.3,0.7,0.2,1.8c0,0-1.8,0.8-0.7,1.8c0,0,1.4,1-0.3,1.7c0,0-2.4,0.7-0.9,2.5c0,0,1.8,1.4-0.7,2
			c0,0-3.1-0.1-7.7-2.5c0,0-4-2.8-4.7-3.5c0,0-0.8-0.6-2.7,1.6c0,0-2.8,4.4-5.9,6.3c0,0-2.4,2.1-5.6,1.9c0,0-2.1,0.4-0.6-1.1
			c0,0,2.1-2-0.1-1.7c0,0-2.3,0.4-0.7-1.5c0,0,1.2-1.3-0.7-1.5c0,0-2.9-0.4-0.8-2.4c0,0,1.7-1.3,0-1.7c0,0-2.3-0.6-0.3-2
			c0,0,1.9-1.3,0.1-2c0,0-1.6-0.7,0.1-1.7c0,0,1.9-1,0.4-2.1c0,0-1.8-1.3,0.1-1.8c0,0,2.1-0.3,0.8-1.4
			C155.5,167,152.8,164.4,156.3,164.1z"/>
		<path class="st0" d="M165.2,174.6c0,0,1.4-0.2,3.4,0.8c0,0,2.6,0.6,5.1-0.8c0,0,3.5-2.3,3.8-3.1"/>
		<path class="st0" d="M166.1,177.9c0,0,2.7-3,10.3-2.5"/>
		<path class="st0" d="M168.3,171.7c0,0,2.2,1.2,4.4-1.1"/>
	</g>
	<path class="st0" d="M155.3,169.2c0,0,0.8,0.5,0.9,1.2"/>
	<path class="st0" d="M154.9,173.1c0,0,0.9,0.1,0.9,1"/>
	<path class="st0" d="M154.5,177.1c0,0,1.6,0.1,1.6,0.9"/>
	<path class="st0" d="M154.8,181c0,0,2.1-0.1,2.4,0.8"/>
	<path class="st0" d="M157.1,184c0,0,1.4,0,1.7,1"/>
	<path class="st0" d="M155.6,165.3c0,0,1.2,1.2,1.3,1.9"/>
	<path class="st0" d="M181.7,160.8c0,0-0.9,0.7-0.7,1.5"/>
	<path class="st0" d="M183.6,164c0,0-0.5,0.7-0.6,1.5"/>
	<path class="st0" d="M185.1,167.8c0,0-1,0.9-1,1.1"/>
	<path class="st0" d="M186.1,171.3c0,0-0.9-0.1-1.3,0.8"/>
	<path class="st0" d="M185.8,175.4c0,0-0.7,0.3-1,0.9"/>
	<path class="st0" d="M185.1,178.9c0,0-0.7,0.2-1.4,0.8"/>
	<path class="st0" d="M182.9,183.1c0,0,0.9,0.2,1.3,0"/>
	<path class="st0" d="M157.8,187c0,0,1.2,0,2.1-0.4"/>
	<path class="st0" d="M169.1,177.9c0,0,2-1.8,3.4-0.3"/>
	<path class="st0" d="M165.4,175.5c0,0,1.7,0.1,2.9,0.6"/>
	<path class="st0" d="M165.6,176.6c0,0,1.2-0.2,2-0.1"/>
	<path class="st0" d="M174.1,174.9c0,0,1.5-0.2,2.6-1"/>
	<path class="st1" d="M173.1,170c0,0,2.4-6.2,7.4-8.5"/>
	<path class="st1" d="M156.6,165.4c0,0,8.1,0.9,11,5.8"/>
	<path class="st0" d="M161.1,185.9c0,0,5-3.8,7.2-7.3"/>
	<path class="st0" d="M173.4,178c0,0,5.4,4.3,8.8,4.7"/>
</g>
<g>
	<g>
		<g>
			<path class="st0" d="M160.8,54.8l-26.5,27.4c0,0-4.2,7.9,6.7,10.3l27.3-28.8C168.4,63.7,168.8,54.5,160.8,54.8z"/>
			<path class="st0" d="M160.9,54.4c0,0.1-1.5,7.2,7.5,9.2"/>
			<path class="st0" d="M155.5,60.9c0,0,2.2-0.8,5.3-2.8"/>
			<path class="st0" d="M148.1,68.9c0,0,11.3-5.7,14.1-8"/>
			<path class="st0" d="M140.1,77.1c0,0,22.5-11.5,25.5-13.8"/>
			<path class="st0" d="M134,84.5c0,0,28.3-15.4,30.8-17.1"/>
			<path class="st0" d="M134.3,87.6c0,0,18.1-9.9,22.7-12.6"/>
			<path class="st0" d="M136.1,90.1c0,0,11-5.9,14.3-8.3"/>
		</g>
		<path class="st0" d="M156.8,62.3c-3.3,1.6-5.2,2.2-5.2,2.2"/>
		<path class="st0" d="M144,72.6c0,0,6.1-2.8,8.1-3.5"/>
		<path class="st0" d="M136.7,80.6c0,0,3.8-1.8,6-2.7"/>
		<path class="st0" d="M158.5,57.8c0,0,0.4,1.7,1.1,2.3"/>
		<path class="st0" d="M157.2,59.3c0,0,0.2,1.2,0.8,1.7"/>
		<path class="st0" d="M155.7,60.6"/>
		<path class="st0" d="M155.8,60.5c0,0,0.1,0.8,0.7,1.4"/>
		<path class="st0" d="M154.6,61.9c0,0,0.4,0.7,0.8,1.2"/>
		<path class="st0" d="M153.3,63.3c0,0,0.5,0.8,1,1.1"/>
		<path class="st0" d="M152.2,64.5c0,0,0.5,0.8,0.8,0.9"/>
		<path class="st0" d="M151.3,65.4c0,0,0.6,0.7,1,0.9"/>
		<path class="st0" d="M150.2,66.5c0,0,0.7,0.7,1.1,1"/>
		<path class="st0" d="M149.1,67.6c0,0,0.6,0.8,0.9,0.9"/>
		<path class="st0" d="M147.9,68.8c0,0,0.8,0.7,1,0.9"/>
		<path class="st0" d="M146.8,69.7c0,0,0.5,0.5,0.9,0.9"/>
		<path class="st0" d="M145.9,70.7c0,0,0.2,0.5,0.8,0.9"/>
		<path class="st0" d="M144.9,71.8c0,0,0.5,0.6,0.7,0.8"/>
		<path class="st0" d="M144.1,72.7c0,0,0.4,0.6,0.6,0.7"/>
		<path class="st0" d="M143.4,73.5c0,0,0.4,0.6,0.8,0.8"/>
		<path class="st0" d="M142.5,74.4c0,0,0.5,0.6,0.7,0.8"/>
		<path class="st0" d="M141.8,75.3c0,0,0.5,0.7,0.7,0.7"/>
		<path class="st0" d="M141,76c0,0,0.5,0.7,0.8,0.9"/>
		<path class="st0" d="M139.7,77.1c0,0,0.5,0.5,0.9,0.7"/>
		<path class="st0" d="M139,78c0,0,0.5,0.4,0.8,0.6"/>
		<path class="st0" d="M138.1,79c0,0,0.7,0.6,1,0.8"/>
		<path class="st0" d="M137.2,79.7c0,0,0.7,1.1,1,1.1"/>
		<path class="st0" d="M136.3,80.9c0,0,0.5,0.7,0.7,0.9"/>
		<path class="st0" d="M135.4,81.8c0,0,0.3,0.5,0.6,0.7"/>
	</g>
	<path class="st0" d="M161.2,55.9c0,0,5.4,0,5.9,7"/>
	<path class="st0" d="M161.4,56.9c0,0,4.5,0.6,4.8,5.9"/>
	<path class="st0" d="M161.3,57.7c0,0,3.2,0.8,4.1,4.7"/>
	<path class="st0" d="M161.8,59c0,0,1.9,0.6,2.7,2.9"/>
</g>
<g>
	<g>
		<g>
			<path class="st0" d="M126.7,155.5l-31-22.2c0,0-5.6-7,4.7-11.3l32.1,23.4C132.5,145.4,134.6,154.4,126.7,155.5z"/>
			<path class="st0" d="M126.8,155.9c-0.1-0.1-2.8-6.8,5.7-10.4"/>
			<path class="st0" d="M120.3,150.5c0,0,2.3,0.3,5.7,1.8"/>
			<path class="st0" d="M111.6,144c0,0,12.2,3.5,15.3,5.3"/>
			<path class="st0" d="M102.3,137.3c0,0,24.2,7.2,27.5,9"/>
			<path class="st0" d="M95,131.2c0,0,30.7,10.1,33.3,11.3"/>
			<path class="st0" d="M94.7,128.1c0,0,19.6,6.5,24.6,8.3"/>
			<path class="st0" d="M96,125.3c0,0,11.9,3.9,15.5,5.6"/>
		</g>
		<path class="st0" d="M121.3,148.9c-3.5-1-5.5-1.3-5.5-1.3"/>
		<path class="st0" d="M106.9,141c0,0,6.5,1.7,8.6,2"/>
		<path class="st0" d="M98.3,134.6c0,0,4.1,1.1,6.4,1.5"/>
		<path class="st0" d="M123.8,153.1c0,0,0-1.7,0.7-2.5"/>
		<path class="st0" d="M122.3,151.7c0,0,0-1.2,0.4-1.9"/>
		<path class="st0" d="M120.6,150.7"/>
		<path class="st0" d="M120.7,150.8c0,0-0.1-0.8,0.4-1.5"/>
		<path class="st0" d="M119.3,149.7c0,0,0.2-0.8,0.6-1.3"/>
		<path class="st0" d="M117.7,148.6c0,0,0.3-0.9,0.8-1.3"/>
		<path class="st0" d="M116.4,147.6c0,0,0.4-0.9,0.6-1.1"/>
		<path class="st0" d="M115.3,146.8c0,0,0.5-0.8,0.8-1"/>
		<path class="st0" d="M114.1,145.9c0,0,0.5-0.8,0.9-1.2"/>
		<path class="st0" d="M112.9,145c0,0,0.5-0.9,0.7-1.1"/>
		<path class="st0" d="M111.4,144.1c0,0,0.6-0.9,0.9-1.1"/>
		<path class="st0" d="M110.2,143.4c0,0,0.4-0.6,0.7-1"/>
		<path class="st0" d="M109.1,142.6c0,0,0.1-0.5,0.6-1"/>
		<path class="st0" d="M107.9,141.7c0,0,0.4-0.7,0.5-0.9"/>
		<path class="st0" d="M107,140.9c0,0,0.3-0.6,0.5-0.8"/>
		<path class="st0" d="M106.1,140.3c0,0,0.3-0.7,0.6-0.9"/>
		<path class="st0" d="M105.1,139.6c0,0,0.4-0.7,0.6-0.9"/>
		<path class="st0" d="M104.2,138.8c0,0,0.4-0.8,0.6-0.8"/>
		<path class="st0" d="M103.3,138.2c0,0,0.4-0.8,0.7-1"/>
		<path class="st0" d="M101.9,137.5c0,0,0.4-0.6,0.7-0.9"/>
		<path class="st0" d="M101,136.6c0,0,0.4-0.5,0.7-0.8"/>
		<path class="st0" d="M99.9,135.9c0,0,0.5-0.7,0.8-1"/>
		<path class="st0" d="M98.9,135.3c0,0,0.5-1.2,0.8-1.3"/>
		<path class="st0" d="M97.9,134.3c0,0,0.3-0.8,0.5-1"/>
		<path class="st0" d="M96.8,133.6c0,0,0.2-0.6,0.5-0.8"/>
	</g>
	<path class="st0" d="M126.9,154.4c0,0,5.3-0.9,4.6-8"/>
	<path class="st0" d="M126.8,153.4c0,0,4.3-1.4,3.7-6.7"/>
	<path class="st0" d="M126.6,152.6c0,0,3-1.4,3.2-5.3"/>
	<path class="st0" d="M126.8,151.3c0,0,1.8-1,2.1-3.4"/>
</g>
<g>
	<path class="st0" d="M71.9,152.6c0,0-11.1-5.6-19.3,3c0,0-7.5,7.7-0.3,17.6c0,0,7.1,9.8,20.2,3.3"/>
	<path class="st0" d="M61.9,152.1c0,0-5.7,1.3-9,7.2c-2.3,4.1-1.6,13.1,5.2,16.6c0,0,9.6,4.8,16.8-0.9c0,0,8.2-7.4,2.3-16.9
		C75.8,155.8,72.2,149.3,61.9,152.1z"/>
	<path class="st0" d="M58.2,161.9c0,0-3.4-2.3-3.9-0.1c0,0-1.7,6.8,2.2,5.6c0,0,4.7-1.5,4.5-3.1C60.8,163.4,60.6,163.4,58.2,161.9z"
		/>
	<path class="st0" d="M59.3,155.6c0,0-3.6,1.7-0.9,3.4c0,0,2.5,2,4.8,2c0,0,1,0.1,1.3-1.5c0,0,1.7-6.9-2.6-5.2L59.3,155.6z"/>
	<path class="st0" d="M70.6,154.8c-0.5-0.4-2.9-1.3-3.1,1.7c0,0-0.8,6.2,2.2,5c0,0,5.7-2.2,3.5-4.3
		C73.3,157.2,71.4,155.3,70.6,154.8z"/>
	<path class="st0" d="M71.7,163.7c0,0-2.2,1.1-2.1,2c0,0-0.3,1.5,1.3,2.2c0,0,4.5,2.9,5.2,1.1c0,0,1-1.5,0.7-4.3
		c0,0-0.3-2.9-2.1-2.5L71.7,163.7z"/>
	<path class="st0" d="M70.5,170.7c0,0-3.9-3.4-4.3,0.3c0,0-0.5,5.1,2.1,4.6c0,0,6-1.8,4.3-3.3L70.5,170.7z"/>
	<path class="st0" d="M63.9,171c0,0,0.1-1.6-0.5-2.1c0,0-0.8-1-3,0.2c0,0-4.3,2.1-2.8,3.5c0,0,2.3,2.2,4.3,2.3c0,0,1.2,0.2,1.6-1.2
		C63.5,173.7,63.9,171.2,63.9,171z"/>
	<path class="st0" d="M65.5,163.7c0,0-1.5-0.3-1.8,1.3c0,0-0.5,2,2,1.9c0,0,2.1-0.3,1.4-2.3C66.8,164.1,66.5,163.7,65.5,163.7z"/>
	<path class="st0" d="M59.4,163.2c0,0,0,1.1-0.6,1.7c-0.9,0.8-2.7,1.7-4.5,1.2"/>
	<path class="st0" d="M63,154.4c0,0,0.9,2.7,0.3,4.3c-0.2,0.6-1.3,1.9-3.7,0.7"/>
	<path class="st0" d="M67.8,159.9c0,0,1.1,1,3.2-0.4c0,0,2-1.3,1.1-3.2"/>
	<path class="st0" d="M69.8,165.9c0,0,3.5,2.3,4.2,2.3c0,0,2.4,0.2,0.4-5.4"/>
	<path class="st0" d="M66.4,173.1c0,0,0.7,1.2,2.1,1c0,0,3.7-0.9,2.4-2.6"/>
	<path class="st0" d="M58.6,170.6c0,0-0.2,1.1,0.5,1.6c0,0,3.3,2.7,4.4-0.4"/>
	<path class="st1" d="M52.8,165.9c0,0,0.8,5.5,5.1,8.6c0,0,7.1,4,14.3,1.1"/>
	<line class="st0" x1="59.5" y1="164.2" x2="59.9" y2="164.8"/>
	<line class="st0" x1="58.9" y1="164.9" x2="59.2" y2="165.3"/>
	<line class="st0" x1="56.2" y1="166.2" x2="56.5" y2="166.7"/>
	<line class="st0" x1="70.8" y1="173" x2="71.2" y2="173.5"/>
	<line class="st0" x1="68.4" y1="174.2" x2="68.7" y2="174.7"/>
	<path class="st0" d="M69.2,173.9c0,0,0.3,0.4,0.3,0.4"/>
	<path class="st0" d="M65.9,164c0,0,0.7,2.5-1.9,1.4"/>
	<line class="st0" x1="66" y1="165.1" x2="66.5" y2="165.4"/>
	<line class="st0" x1="65.6" y1="165.5" x2="66.1" y2="165.9"/>
	<line class="st0" x1="75" y1="164" x2="75.7" y2="164.3"/>
	<line class="st0" x1="75.1" y1="164.8" x2="75.8" y2="165.2"/>
	<line class="st0" x1="75" y1="167.6" x2="75.5" y2="167.9"/>
</g>
<g>
	<path class="st0" d="M198.6,19.8c0,0-11.1-5.6-19.3,3c0,0-7.5,7.7-0.3,17.6c0,0,7.1,9.8,20.2,3.3"/>
	<path class="st0" d="M188.5,19.3c0,0-5.7,1.3-9,7.2c-2.3,4.1-1.6,13.1,5.2,16.6c0,0,9.6,4.8,16.8-0.9c0,0,8.2-7.4,2.3-16.9
		C202.4,23,198.9,16.5,188.5,19.3z"/>
	<path class="st0" d="M184.8,29.1c0,0-3.4-2.3-3.9-0.1c0,0-1.7,6.8,2.2,5.6c0,0,4.7-1.5,4.5-3.1C187.5,30.6,187.3,30.6,184.8,29.1z"
		/>
	<path class="st0" d="M186,22.8c0,0-3.6,1.7-0.9,3.4c0,0,2.5,2,4.8,2c0,0,1,0.1,1.3-1.5c0,0,1.7-6.9-2.6-5.2L186,22.8z"/>
	<path class="st0" d="M197.3,22c-0.5-0.4-2.9-1.3-3.1,1.7c0,0-0.8,6.2,2.2,5c0,0,5.7-2.2,3.5-4.3C200,24.4,198.1,22.5,197.3,22z"/>
	<path class="st0" d="M198.3,30.9c0,0-2.2,1.1-2.1,2c0,0-0.3,1.5,1.3,2.2c0,0,4.5,2.9,5.2,1.1c0,0,1-1.5,0.7-4.3
		c0,0-0.3-2.9-2.1-2.5L198.3,30.9z"/>
	<path class="st0" d="M197.2,37.9c0,0-3.9-3.4-4.3,0.3c0,0-0.5,5.1,2.1,4.6c0,0,6-1.8,4.3-3.3L197.2,37.9z"/>
	<path class="st0" d="M190.5,38.2c0,0,0.1-1.6-0.5-2.1c0,0-0.8-1-3,0.2c0,0-4.3,2.1-2.8,3.5c0,0,2.3,2.2,4.3,2.3
		c0,0,1.2,0.2,1.6-1.2C190.2,40.9,190.6,38.4,190.5,38.2z"/>
	<path class="st0" d="M192.1,30.9c0,0-1.5-0.3-1.8,1.3c0,0-0.5,2,2,1.9c0,0,2.1-0.3,1.4-2.3C193.5,31.3,193.2,30.9,192.1,30.9z"/>
	<path class="st0" d="M186.1,30.4c0,0,0,1.1-0.6,1.7c-0.9,0.8-2.7,1.7-4.5,1.2"/>
	<path class="st0" d="M189.7,21.6c0,0,0.9,2.7,0.3,4.3c-0.2,0.6-1.3,1.9-3.7,0.7"/>
	<path class="st0" d="M194.5,27.1c0,0,1.1,1,3.2-0.4c0,0,2-1.3,1.1-3.2"/>
	<path class="st0" d="M196.5,33.1c0,0,3.5,2.3,4.2,2.3c0,0,2.4,0.2,0.4-5.4"/>
	<path class="st0" d="M193.1,40.3c0,0,0.7,1.2,2.1,1c0,0,3.7-0.9,2.4-2.6"/>
	<path class="st0" d="M185.3,37.8c0,0-0.2,1.1,0.5,1.6c0,0,3.3,2.7,4.4-0.4"/>
	<path class="st1" d="M179.5,33.1c0,0,0.8,5.5,5.1,8.6c0,0,7.1,4,14.3,1.1"/>
	<line class="st0" x1="186.1" y1="31.4" x2="186.6" y2="32"/>
	<line class="st0" x1="185.6" y1="32.1" x2="185.9" y2="32.5"/>
	<line class="st0" x1="182.8" y1="33.4" x2="183.2" y2="33.9"/>
	<line class="st0" x1="197.4" y1="40.2" x2="197.9" y2="40.7"/>
	<line class="st0" x1="195.1" y1="41.4" x2="195.4" y2="41.9"/>
	<path class="st0" d="M195.9,41.1c0,0,0.3,0.4,0.3,0.4"/>
	<path class="st0" d="M192.5,31.2c0,0,0.7,2.5-1.9,1.4"/>
	<line class="st0" x1="192.7" y1="32.3" x2="193.1" y2="32.6"/>
	<line class="st0" x1="192.3" y1="32.7" x2="192.7" y2="33.1"/>
	<line class="st0" x1="201.7" y1="31.2" x2="202.3" y2="31.5"/>
	<line class="st0" x1="201.8" y1="32" x2="202.4" y2="32.4"/>
	<line class="st0" x1="201.6" y1="34.8" x2="202.2" y2="35.1"/>
</g>
</svg>
