<?xml version="1.0" encoding="utf-8"?>
<!-- Generator: Adobe Illustrator 15.1.0, SVG Export Plug-In . SVG Version: 6.00 Build 0)  -->
<!DOCTYPE svg PUBLIC "-//W3C//DTD SVG 1.1//EN" "http://www.w3.org/Graphics/SVG/1.1/DTD/svg11.dtd">
<svg version="1.1" id="Ebene_1" xmlns="http://www.w3.org/2000/svg" xmlns:xlink="http://www.w3.org/1999/xlink" x="0px" y="0px"
	 width="240.939px" height="240.939px" viewBox="0 0 240.939 240.939" enable-background="new 0 0 240.939 240.939"
	 xml:space="preserve">
<path stroke="#000" stroke-width="2" fill="none" d="M2.322,216.064V26.929c0,0,0.655-15.078,17.7-15.734h201.594c0,0,16.389-1.311,17.699,17.374V212.46
	c0,0,1.64,16.062-15.733,18.027H17.4C17.4,230.487,5.928,228.849,2.322,216.064z"/>
<!-- <rect x="2.381" y="143.948" fill="none" width="236.917" height="81.304"/> -->
<g enable-background="new    ">
	<path fill="#000" d="M57.741,171.652c-1.853,0-3.52-0.405-5.001-1.215c-1.482-0.811-2.74-1.918-3.773-3.323
		s-1.829-3.059-2.384-4.959c-0.556-1.899-0.833-3.939-0.833-6.12c0-2.409,0.278-4.614,0.833-6.614
		c0.556-2.001,1.365-3.714,2.429-5.142c1.063-1.427,2.366-2.538,3.908-3.334s3.298-1.194,5.271-1.194
		c1.816,0,3.447,0.392,4.894,1.173c1.446,0.782,2.677,1.864,3.693,3.248c1.016,1.384,1.795,3.022,2.339,4.915
		c0.543,1.894,0.815,3.951,0.815,6.174c0,2.338-0.266,4.507-0.797,6.508c-0.532,2-1.315,3.732-2.349,5.194
		c-1.034,1.463-2.307,2.61-3.818,3.442C61.454,171.236,59.713,171.652,57.741,171.652z M57.938,142.354
		c-1.554,0-2.931,0.354-4.132,1.064c-1.201,0.71-2.214,1.671-3.038,2.883c-0.825,1.212-1.449,2.632-1.874,4.259
		c-0.424,1.628-0.643,3.359-0.654,5.195c-0.012,1.75,0.176,3.424,0.564,5.022c0.389,1.6,0.974,3.012,1.757,4.238
		c0.783,1.226,1.772,2.205,2.967,2.937s2.593,1.097,4.195,1.097s3.008-0.333,4.222-1c1.213-0.667,2.226-1.592,3.039-2.775
		c0.813-1.183,1.425-2.592,1.837-4.227c0.412-1.635,0.618-3.421,0.618-5.356c0-1.807-0.182-3.521-0.546-5.142
		c-0.365-1.62-0.932-3.036-1.703-4.248s-1.754-2.173-2.949-2.883C61.045,142.708,59.611,142.354,57.938,142.354z"/>
	<path fill="#000" d="M77.459,142.892v11.615h9.394v2.604h-9.394v14.004h-2.384v-30.848h12.53v2.625H77.459z"/>
	<path fill="#000" d="M94.955,142.892v11.615h9.394v2.604h-9.394v14.004h-2.384v-30.848h12.53v2.625H94.955z"/>
	<path fill="#000" d="M112.451,171.115h-2.384v-30.848h2.384V171.115z"/>
	<path fill="#000" d="M136.419,169.974c-1.984,1.119-4.249,1.678-6.795,1.678c-1.816,0-3.466-0.384-4.947-1.15
		c-1.482-0.767-2.746-1.832-3.792-3.194c-1.046-1.362-1.853-2.982-2.42-4.861c-0.568-1.879-0.852-3.93-0.852-6.152
		c0-2.338,0.302-4.514,0.905-6.529c0.604-2.015,1.467-3.764,2.59-5.248c1.123-1.484,2.483-2.649,4.078-3.496
		c1.596-0.846,3.385-1.27,5.369-1.27c2.187,0,4.141,0.402,5.862,1.205v3.055c-1.842-1.104-3.807-1.656-5.898-1.656
		c-1.661,0-3.137,0.344-4.428,1.032s-2.379,1.646-3.263,2.872c-0.884,1.226-1.56,2.675-2.025,4.345
		c-0.466,1.671-0.699,3.496-0.699,5.475c0,1.779,0.209,3.453,0.627,5.023s1.037,2.943,1.856,4.119
		c0.818,1.176,1.837,2.108,3.056,2.797c1.22,0.688,2.636,1.032,4.249,1.032c2.474,0,4.648-0.624,6.525-1.871V169.974z"/>
	<path fill="#000" d="M144.288,171.115h-2.385v-30.848h2.385V171.115z"/>
	<path fill="#000" d="M168.577,171.115l-14.269-24.76c-0.179-0.315-0.355-0.638-0.528-0.968c-0.174-0.33-0.314-0.652-0.422-0.969
		h-0.09c0.024,0.259,0.045,0.617,0.063,1.076c0.019,0.459,0.027,1.032,0.027,1.721v23.899h-2.384v-30.848h2.635l14.036,24.459
		c0.215,0.387,0.409,0.749,0.583,1.086c0.173,0.337,0.331,0.649,0.475,0.936h0.09c-0.048-0.473-0.084-1.004-0.107-1.592
		c-0.024-0.588-0.036-1.24-0.036-1.957v-22.932h2.402v30.848H168.577z"/>
	<path fill="#000" d="M194.374,171.115l-2.833-9.121h-11.024l-2.761,9.121h-2.653l9.788-30.848h2.401l9.734,30.848H194.374z
		 M186.54,145.666c-0.084-0.272-0.171-0.588-0.26-0.946c-0.09-0.358-0.165-0.768-0.225-1.227h-0.072
		c-0.071,0.459-0.152,0.868-0.242,1.227c-0.089,0.358-0.176,0.674-0.26,0.946l-4.158,13.725h9.411L186.54,145.666z"/>
</g>
<g enable-background="new    ">
	<path fill="#000" d="M36.606,215.17l-2.833-9.12H22.749l-2.761,9.12h-2.653l9.788-30.847h2.402l9.734,30.847H36.606z
		 M28.772,189.723c-0.083-0.272-0.17-0.588-0.26-0.947c-0.09-0.358-0.165-0.767-0.224-1.226h-0.072
		c-0.072,0.459-0.152,0.867-0.242,1.226c-0.089,0.359-0.176,0.675-0.26,0.947l-4.159,13.724h9.411L28.772,189.723z"/>
	<path fill="#000" d="M43.311,215.17v-30.847h2.384v28.244H56.02v2.603H43.311z"/>
	<path fill="#000" d="M62.742,215.17h-2.384v-30.847h2.384V215.17z"/>
	<path fill="#000" d="M92.177,215.17v-21.296c0-1.09,0.072-2.847,0.215-5.271h-0.072c-0.167,0.646-0.32,1.205-0.457,1.678
		c-0.138,0.474-0.266,0.86-0.386,1.162l-8.963,23.727h-1.022l-8.981-23.576c-0.263-0.717-0.532-1.728-0.807-3.033h-0.072
		c0.048,0.66,0.081,1.413,0.099,2.259c0.018,0.847,0.027,1.785,0.027,2.818v21.532h-2.33v-30.847h2.814l8.73,23.188
		c0.179,0.488,0.355,0.986,0.529,1.495c0.173,0.51,0.332,1.051,0.475,1.624h0.108c0.167-0.573,0.319-1.097,0.457-1.57
		c0.137-0.473,0.308-0.981,0.511-1.527l8.802-23.21h2.671v30.847H92.177z"/>
	<path fill="#000" d="M101.194,215.17v-30.847h12.53v2.624h-10.146v11.315h9.394v2.581h-9.394v11.724h10.72v2.603H101.194z"/>
	<path fill="#000" d="M137.261,215.17l-14.27-24.76c-0.179-0.314-0.355-0.638-0.528-0.968c-0.173-0.329-0.313-0.652-0.421-0.968
		h-0.09c0.023,0.258,0.045,0.617,0.063,1.075c0.018,0.46,0.027,1.033,0.027,1.722v23.898h-2.384v-30.847h2.634l14.037,24.458
		c0.215,0.388,0.408,0.75,0.582,1.086c0.174,0.338,0.332,0.649,0.475,0.937h0.09c-0.047-0.474-0.084-1.004-0.107-1.592
		s-0.035-1.24-0.035-1.958v-22.931h2.402v30.847H137.261z"/>
	<path fill="#000" d="M153.753,186.948v28.223h-2.385v-28.223h-7.402v-2.624h17.209v2.624H153.753z"/>
	<path fill="#000" d="M179.298,215.17l-2.832-9.12h-11.025l-2.76,9.12h-2.653l9.788-30.847h2.401l9.733,30.847H179.298z
		 M171.464,189.723c-0.084-0.272-0.17-0.588-0.26-0.947c-0.09-0.358-0.164-0.767-0.225-1.226h-0.071
		c-0.071,0.459-0.152,0.867-0.242,1.226c-0.089,0.359-0.177,0.675-0.26,0.947l-4.159,13.724h9.412L171.464,189.723z"/>
	<path fill="#000" d="M200.003,215.17l-3.873-8.841c-0.382-0.875-0.752-1.606-1.111-2.194c-0.357-0.588-0.729-1.058-1.111-1.409
		c-0.383-0.351-0.791-0.603-1.228-0.753s-0.923-0.226-1.461-0.226h-2.833v13.423h-2.383v-30.847h7.402
		c0.969,0,1.903,0.172,2.806,0.516c0.902,0.345,1.706,0.854,2.411,1.527c0.705,0.675,1.27,1.521,1.694,2.539
		c0.424,1.018,0.636,2.201,0.636,3.549c0,1.09-0.137,2.094-0.412,3.012s-0.666,1.731-1.174,2.441s-1.123,1.313-1.847,1.807
		c-0.724,0.495-1.538,0.864-2.446,1.108v0.086c0.346,0.172,0.663,0.395,0.949,0.667c0.287,0.272,0.564,0.603,0.834,0.989
		c0.27,0.388,0.535,0.832,0.798,1.334s0.538,1.075,0.825,1.721l4.319,9.551H200.003z M188.386,186.948v12.197h4.268
		c0.859,0,1.648-0.151,2.365-0.452c0.718-0.301,1.33-0.731,1.838-1.291c0.508-0.559,0.902-1.232,1.184-2.021
		c0.28-0.789,0.421-1.678,0.421-2.668c0-1.792-0.481-3.201-1.442-4.227c-0.963-1.025-2.352-1.538-4.168-1.538H188.386z"/>
	<path fill="#000" d="M207.173,215.17v-30.847h12.53v2.624h-10.146v11.315h9.394v2.581h-9.394v11.724h10.72v2.603H207.173z"/>
</g>
<g>
	<path fill="none" stroke="#000" stroke-width="2" stroke-miterlimit="10" d="M26.939,102.577l-1.272,1.315
		c2.087,0.817,4.612,1.758,7.527,2.774l2.495-2.578C32.76,103.621,29.841,103.118,26.939,102.577z"/>
	<path fill="none" stroke="#000" stroke-width="2" stroke-miterlimit="10" d="M44.957,105.461l-3.732,3.854
		c2.169,0.677,4.469,1.362,6.904,2.052l4.755-4.917C50.24,106.146,47.596,105.82,44.957,105.461z"/>
	<path fill="none" stroke="#000" stroke-width="2" stroke-miterlimit="10" d="M52.884,106.45l-4.755,4.917
		c2.328,0.659,4.771,1.317,7.332,1.968l5.805-5.998C58.469,107.069,55.677,106.774,52.884,106.45z"/>
	<path fill="none" stroke="#000" stroke-width="2" stroke-miterlimit="10" d="M35.689,104.09l-2.495,2.578
		c2.414,0.841,5.097,1.731,8.03,2.647l3.732-3.854C41.858,105.042,38.768,104.584,35.689,104.09z"/>
	<path fill="none" stroke="#000" stroke-width="2" stroke-miterlimit="10" d="M18.517,100.9c0,0,2.516,1.187,7.149,2.994
		l1.272-1.315C24.117,102.052,21.307,101.494,18.517,100.9z"/>
	<path fill="none" stroke="#000" stroke-width="2" stroke-miterlimit="10" d="M61.265,107.338l-5.805,5.998
		c2.331,0.592,4.758,1.174,7.267,1.74l6.794-7.019C66.771,107.842,64.019,107.604,61.265,107.338z"/>
	<path fill="none" stroke="#000" stroke-width="2" stroke-miterlimit="10" d="M77.958,108.645l-7.757,8.018
		c2.946,0.584,5.99,1.141,9.129,1.657l8.853-9.146C84.789,109.033,81.378,108.856,77.958,108.645z"/>
	<path fill="none" stroke="#000" stroke-width="2" stroke-miterlimit="10" d="M88.183,109.174l-8.853,9.146
		c2.202,0.363,4.445,0.707,6.737,1.029l9.594-9.912C93.178,109.366,90.685,109.279,88.183,109.174z"/>
	<path fill="none" stroke="#000" stroke-width="2" stroke-miterlimit="10" d="M69.521,108.058l-6.794,7.019
		c2.414,0.547,4.906,1.078,7.475,1.586l7.757-8.018C75.152,108.476,72.338,108.279,69.521,108.058z"/>
	<path fill="none" stroke="#000" stroke-width="2" stroke-miterlimit="10" d="M102.58,109.596l-10.227,10.563
		c2.592,0.304,5.23,0.575,7.916,0.814l10.934-11.296C108.352,109.67,105.475,109.644,102.58,109.596z"/>
	<path fill="none" stroke="#000" stroke-width="2" stroke-miterlimit="10" d="M95.661,109.437l-9.594,9.912
		c2.063,0.29,4.158,0.562,6.287,0.812l10.227-10.563C100.284,109.558,97.976,109.502,95.661,109.437z"/>
	<path fill="none" stroke="#000" stroke-width="2" stroke-miterlimit="10" d="M111.204,109.679l-10.934,11.296
		c2.478,0.219,4.991,0.405,7.542,0.56l11.509-11.89C116.64,109.672,113.934,109.684,111.204,109.679z"/>
	<path fill="none" stroke="#000" stroke-width="2" stroke-miterlimit="10" d="M155.29,108.323l-12.594,13.013
		c3.707-0.274,7.458-0.645,11.247-1.101l12.263-12.668C162.68,107.836,159.038,108.091,155.29,108.323z"/>
	<path fill="none" stroke="#000" stroke-width="2" stroke-miterlimit="10" d="M148.024,108.74l-12.604,13.02
		c2.409-0.107,4.83-0.242,7.276-0.424l12.594-13.013C152.908,108.472,150.487,108.611,148.024,108.74z"/>
	<path fill="none" stroke="#000" stroke-width="2" stroke-miterlimit="10" d="M128.371,109.49l-12.028,12.427
		c3.234,0.09,6.519,0.123,9.849,0.095l12.436-12.846C135.263,109.295,131.843,109.406,128.371,109.49z"/>
	<path fill="none" stroke="#000" stroke-width="2" stroke-miterlimit="10" d="M119.322,109.644l-11.509,11.89
		c2.8,0.17,5.646,0.299,8.53,0.383l12.028-12.427C125.389,109.563,122.37,109.613,119.322,109.644z"/>
	<path fill="none" stroke="#000" stroke-width="2" stroke-miterlimit="10" d="M138.627,109.165l-12.436,12.846
		c3.04-0.027,6.117-0.11,9.229-0.251l12.604-13.02C144.952,108.898,141.812,109.041,138.627,109.165z"/>
	<path fill="none" stroke="#000" stroke-width="2" stroke-miterlimit="10" d="M166.206,107.568l-12.263,12.668
		c3.92-0.471,7.878-1.031,11.878-1.714l11.508-11.89C173.771,106.957,170.062,107.273,166.206,107.568z"/>
	<path fill="none" stroke="#000" stroke-width="2" stroke-miterlimit="10" d="M223.162,100.9c0,0-1.089,0.191-3.114,0.516
		l-1.467,1.514C220.107,102.271,221.635,101.598,223.162,100.9z"/>
	<path fill="none" stroke="#000" stroke-width="2" stroke-miterlimit="10" d="M199.043,104.324l-8.232,8.504
		c4.432-1.268,8.885-2.679,13.356-4.258l5.437-5.613C206.532,103.38,202.997,103.844,199.043,104.324z"/>
	<path fill="none" stroke="#000" stroke-width="2" stroke-miterlimit="10" d="M220.048,101.415
		c-2.307,0.368-5.853,0.911-10.444,1.542l-5.437,5.613c4.788-1.688,9.598-3.565,14.414-5.643L220.048,101.415z"/>
	<path fill="none" stroke="#000" stroke-width="2" stroke-miterlimit="10" d="M177.329,106.631l-11.508,11.89
		c4.342-0.742,8.727-1.622,13.144-2.637l10.085-10.419C185.375,105.861,181.457,106.253,177.329,106.631z"/>
	<path fill="none" stroke="#000" stroke-width="2" stroke-miterlimit="10" d="M189.05,105.466l-10.085,10.419
		c3.924-0.901,7.875-1.921,11.846-3.057l8.232-8.504C195.953,104.699,192.616,105.083,189.05,105.466z"/>
	<polygon fill="none" stroke="#000" stroke-width="2" stroke-miterlimit="10" points="145.38,57.378 146.048,57.378 
		148.324,55.024 	"/>
	<polygon fill="none" stroke="#000" stroke-width="2" stroke-miterlimit="10" points="222.237,57.685 217.871,54.192 
		214.488,57.685 	"/>
	<path fill="none" stroke="#000" stroke-width="2" stroke-miterlimit="10" d="M123.773,101.517
		c1.091,0.108,2.112,0.164,3.174,0.249l1.074-1.108C125.401,101.306,123.773,101.517,123.773,101.517z"/>
	<path fill="none" stroke="#000" stroke-width="2" stroke-miterlimit="10" d="M196.349,65.907l-31.354,32.39
		C186.715,91.066,193.953,75.536,196.349,65.907z"/>
	<path fill="none" stroke="#000" stroke-width="2" stroke-miterlimit="10" d="M142.182,95.22l-6.757,6.98
		c3.608,0.066,6.991-0.031,10.192-0.26l57.579-59.488l-5.604-4.484l-33.147,34.25C159.048,83.812,150.238,90.925,142.182,95.22z"/>
	<polygon fill="none" stroke="#000" stroke-width="2" stroke-miterlimit="10" points="214.488,57.685 217.871,54.192 
		212.13,49.602 204.305,57.685 	"/>
	<path fill="none" stroke="#000" stroke-width="2" stroke-miterlimit="10" d="M155.863,100.639l52.397-54.134l-5.063-4.051
		l-57.579,59.488C149.284,101.679,152.697,101.24,155.863,100.639z"/>
	<path fill="none" stroke="#000" stroke-width="2" stroke-miterlimit="10" d="M164.445,72.218l33.147-34.25l-5.013-4.012
		l-23.986,24.778C167.718,63.797,166.283,68.27,164.445,72.218z"/>
	<polygon fill="none" stroke="#000" stroke-width="2" stroke-miterlimit="10" points="161.826,57.378 188.022,30.312 
		183.654,26.819 179.452,30.174 153.121,57.378 	"/>
	<path fill="none" stroke="#000" stroke-width="2" stroke-miterlimit="10" d="M126.947,101.766
		c2.94,0.233,5.776,0.385,8.479,0.436l6.757-6.98c-5.551,2.958-10.719,4.58-14.16,5.437L126.947,101.766z"/>
	<path fill="none" stroke="#000" stroke-width="2" stroke-miterlimit="10" d="M168.839,57.378
		c-0.068,0.465-0.165,0.903-0.245,1.357l23.986-24.778l-4.559-3.646l-26.195,27.066L168.839,57.378L168.839,57.378z"/>
	<polygon fill="none" stroke="#000" stroke-width="2" stroke-miterlimit="10" points="179.452,30.174 148.324,55.024 
		146.048,57.378 153.121,57.378 	"/>
	<path fill="none" stroke="#000" stroke-width="2" stroke-miterlimit="10" d="M164.995,98.297l31.354-32.39
		c1.208-4.863,1.195-8.223,1.195-8.223h6.761l7.825-8.083l-3.869-3.098l-52.397,54.134
		C159.161,100.014,162.202,99.228,164.995,98.297z"/>
</g>
</svg>
