<?xml version="1.0" encoding="utf-8"?>
<!-- Generator: Adobe Illustrator 15.1.0, SVG Export Plug-In . SVG Version: 6.00 Build 0)  -->
<!DOCTYPE svg PUBLIC "-//W3C//DTD SVG 1.1//EN" "http://www.w3.org/Graphics/SVG/1.1/DTD/svg11.dtd">
<svg version="1.1" xmlns="http://www.w3.org/2000/svg" xmlns:xlink="http://www.w3.org/1999/xlink" x="0px" y="0px"
	 width="240.94px" height="240.94px" viewBox="0 0 240.94 240.94" enable-background="new 0 0 240.94 240.94" xml:space="preserve">
<g id="Ebene_1" display="none">
	<circle display="inline" fill="none" stroke="#FFFFFF" stroke-miterlimit="10" cx="121.057" cy="120.527" r="116.994"/>
	<g display="inline">
		<g>
			<g>
				<path fill="none" stroke="#000000" stroke-width="4" stroke-miterlimit="10" d="M173.014,164.861
					c-0.904-1.672-4.848-8.373-12.226-11.899l0.071,0.04c-4.26-2.276-9.126-3.571-14.296-3.571
					c-16.785,0-30.392,13.606-30.392,30.392s13.606,30.392,30.392,30.392c16.784,0,30.392-13.606,30.392-30.392
					C176.955,174.381,175.519,169.279,173.014,164.861z"/>
				<circle fill="none" stroke="#000000" stroke-width="4" stroke-miterlimit="10" cx="146.563" cy="179.822" r="8.283"/>
			</g>
		</g>
		<g>
			<path fill="none" stroke="#000000" stroke-width="4" stroke-miterlimit="10" d="M114.624,73.794
				c-2.678-0.918-5.4-1.361-8.082-1.387c3.001-12.706-4.072-25.857-16.681-30.181c-13.423-4.6-28.033,2.552-32.633,15.975
				c-2.461,7.175-1.56,14.688,1.861,20.832c-7.107,2.539-13.036,8.168-15.673,15.862c-4.601,13.423,2.551,28.033,15.974,32.633
				c1.608,0.553,3.236,0.93,4.861,1.153l37.597,81.45l12.846-87.763c7.208-2.5,13.236-8.166,15.902-15.942
				C135.197,93.004,128.046,78.395,114.624,73.794z"/>
		</g>
		<g>
			<polygon fill="#FFFFFF" stroke="#000000" stroke-width="4" stroke-miterlimit="10" points="210.394,97.684 181.98,97.684 
				181.98,69.271 168.831,69.271 168.831,97.684 140.418,97.684 140.418,110.834 168.831,110.834 168.831,139.246 181.98,139.246 
				181.98,110.834 210.394,110.834 			"/>
			<g>
				<path fill="none" stroke="#000000" stroke-miterlimit="10" d="M181.217,91.051c-6.956,6.614-13.816,13.328-20.571,20.146"/>
				<path fill="none" stroke="#000000" stroke-miterlimit="10" d="M180.922,88.059c-7.333,7.851-15.023,15.355-22.707,22.861"/>
				<path fill="none" stroke="#000000" stroke-miterlimit="10" d="M181.536,84.156c-8.751,9.002-17.591,17.915-26.523,26.736"/>
				<path fill="none" stroke="#000000" stroke-miterlimit="10" d="M163.576,98.359c-4.011,4.012-8.022,8.022-12.035,12.034"/>
				<path fill="none" stroke="#000000" stroke-miterlimit="10" d="M181.459,80.476c-4.125,4.126-8.252,8.253-12.377,12.378"/>
				<path fill="none" stroke="#000000" stroke-miterlimit="10" d="M159.558,98.855c-3.872,3.871-7.742,7.742-11.611,11.612"/>
				<path fill="none" stroke="#000000" stroke-miterlimit="10" d="M181.993,76.42c-4.274,4.274-8.549,8.549-12.823,12.823"/>
				<path fill="none" stroke="#000000" stroke-miterlimit="10" d="M156.844,98.282c-4.127,4.126-8.255,8.254-12.381,12.381"/>
				<path fill="none" stroke="#000000" stroke-miterlimit="10" d="M182.175,72.951c-4.312,4.312-8.625,8.625-12.938,12.937"/>
				<path fill="none" stroke="#000000" stroke-miterlimit="10" d="M153.746,97.623c-4.539,4.538-9.076,9.076-13.616,13.615"/>
				<path fill="none" stroke="#000000" stroke-miterlimit="10" d="M181.554,69.815c-4.011,4.011-8.021,8.021-12.029,12.029"/>
				<path fill="none" stroke="#000000" stroke-miterlimit="10" d="M150.114,97.849c-3.235,3.235-6.473,6.473-9.708,9.709"/>
				<path fill="none" stroke="#000000" stroke-miterlimit="10" d="M178.6,69.365c-3.057,3.055-6.114,6.112-9.171,9.17"/>
				<path fill="none" stroke="#000000" stroke-miterlimit="10" d="M146.955,98.075c-2.12,2.118-4.239,4.237-6.358,6.356"/>
				<path fill="none" stroke="#000000" stroke-miterlimit="10" d="M175.562,69.467c-2.322,2.323-4.645,4.646-6.967,6.968"/>
				<path fill="none" stroke="#000000" stroke-miterlimit="10" d="M144.46,97.75c-1.237,1.238-2.476,2.477-3.714,3.715"/>
				<path fill="none" stroke="#000000" stroke-miterlimit="10" d="M173.317,68.893c-1.688,1.689-3.378,3.378-5.067,5.067"/>
				<path fill="none" stroke="#000000" stroke-miterlimit="10" d="M182.017,123.008c-4.173,4.173-8.345,8.345-12.518,12.518"/>
				<path fill="none" stroke="#000000" stroke-miterlimit="10" d="M206.588,98.438c-4.172,4.172-8.346,8.344-12.518,12.518"/>
				<path fill="none" stroke="#000000" stroke-miterlimit="10" d="M182.339,119.398c-4.151,4.151-8.302,8.303-12.454,12.454"/>
				<path fill="none" stroke="#000000" stroke-miterlimit="10" d="M203.555,98.183c-4.151,4.151-8.303,8.302-12.453,12.452"/>
				<path fill="none" stroke="#000000" stroke-miterlimit="10" d="M181.735,116.707c-4.12,4.061-8.238,8.124-12.334,12.209"/>
				<path fill="none" stroke="#000000" stroke-miterlimit="10" d="M200.434,98.137c-4.225,4.26-8.482,8.486-12.75,12.701"/>
				<path fill="none" stroke="#000000" stroke-miterlimit="10" d="M197.598,97.094c-9.42,9.421-18.839,18.839-28.259,28.26"/>
				<path fill="none" stroke="#000000" stroke-miterlimit="10" d="M193.305,97.865c-7.786,7.93-15.956,15.468-23.891,23.245"/>
				<path fill="none" stroke="#000000" stroke-miterlimit="10" d="M190.37,97.513c-6.302,7.122-13.177,13.698-20.077,20.23"/>
				<path fill="none" stroke="#000000" stroke-miterlimit="10" d="M185.575,98.551c-4.864,5.159-9.958,10.097-15.069,15.013"/>
				<path fill="none" stroke="#000000" stroke-miterlimit="10" d="M183.241,97.479c-4.98,4.397-9.656,9.124-14.238,13.932"/>
				<path fill="none" stroke="#000000" stroke-miterlimit="10" d="M181.965,95.82c-4.625,4.811-9.287,9.583-13.985,14.321"/>
				<path fill="none" stroke="#000000" stroke-miterlimit="10" d="M181.4,93.566c-5.819,5.193-11.234,10.816-16.594,16.476"/>
				<path fill="none" stroke="#000000" stroke-miterlimit="10" d="M181.857,134.907c-1.227,1.227-2.452,2.453-3.679,3.68"/>
				<path fill="none" stroke="#000000" stroke-miterlimit="10" d="M210.834,105.932c-1.84,1.841-3.68,3.679-5.519,5.519"/>
				<path fill="none" stroke="#000000" stroke-miterlimit="10" d="M182.034,131.672c-2.287,2.245-4.579,4.484-6.879,6.718"/>
				<path fill="none" stroke="#000000" stroke-miterlimit="10" d="M210.51,103.046c-2.68,2.759-5.37,5.507-8.067,8.246"/>
				<path fill="none" stroke="#000000" stroke-miterlimit="10" d="M181.879,128.975c-3.344,3.279-6.705,6.542-10.082,9.789"/>
				<path fill="none" stroke="#000000" stroke-miterlimit="10" d="M210.668,99.955c-3.548,3.679-7.114,7.336-10.701,10.977"/>
				<path fill="none" stroke="#000000" stroke-miterlimit="10" d="M181.863,126.19c-3.959,3.894-7.938,7.768-11.938,11.618"/>
				<path fill="none" stroke="#000000" stroke-miterlimit="10" d="M209.395,98.45c-4.012,4.141-8.047,8.261-12.103,12.36"/>
			</g>
		</g>
	</g>
</g>
<g id="Ebene_2" display="none">
	<g display="inline">
		<polyline fill="none" stroke="#000000" stroke-width="4" stroke-miterlimit="10" points="42.929,190.213 68.949,164.165 
			87.371,178.208 197.616,84.147 		"/>
		<polyline fill="none" stroke="#000000" stroke-width="4" stroke-miterlimit="10" points="189.012,82.173 202.739,77.454 
			201.661,91.829 		"/>
	</g>
	<circle display="inline" fill="none" stroke="#FFFFFF" stroke-miterlimit="10" cx="120.683" cy="120.194" r="116.994"/>
	<g display="inline">
		<path fill="#FFFFFF" stroke="#000000" stroke-width="4" stroke-miterlimit="10" d="M169.875,122.613
			c0-26.743-21.68-48.424-48.424-48.424c-26.742,0-48.424,21.681-48.424,48.424c0,13.198,5.283,25.161,13.846,33.896
			c6.064,8.65,15.455,26.367,16.033,53.68h17.688h15.969c0,0,1.922-32.159,17.928-52.177
			C163.955,149.173,169.875,136.585,169.875,122.613z"/>
		
			<line fill="#FFFFFF" stroke="#000000" stroke-width="2" stroke-miterlimit="10" x1="151.814" y1="128.655" x2="169.705" y2="128.623"/>
		
			<line fill="#FFFFFF" stroke="#000000" stroke-width="2" stroke-miterlimit="10" x1="104.881" y1="128.623" x2="137.615" y2="128.623"/>
		
			<line fill="#FFFFFF" stroke="#000000" stroke-width="2" stroke-miterlimit="10" x1="73.543" y1="128.623" x2="92.088" y2="128.623"/>
		
			<line fill="#FFFFFF" stroke="#000000" stroke-width="2" stroke-miterlimit="10" x1="121.451" y1="153.607" x2="121.451" y2="182.874"/>
		
			<line fill="#FFFFFF" stroke="#000000" stroke-width="2" stroke-miterlimit="10" x1="121.451" y1="107.416" x2="121.451" y2="140.214"/>
		
			<line fill="#FFFFFF" stroke="#000000" stroke-width="2" stroke-miterlimit="10" x1="121.451" y1="74.189" x2="121.451" y2="94.301"/>
		<path fill="#FFFFFF" stroke="#000000" stroke-width="2" stroke-miterlimit="10" d="M91.961,128.623
			c1.373,0,2.762,2.216,0.471,6.01c-1.91,3.167-6.635,13.195,5.494,13.737c3.277,0.146,11.283-0.592,7.9-10.475
			c-0.754-2.199-5.002-9.272-0.709-9.272"/>
		<path fill="#FFFFFF" stroke="#000000" stroke-width="2" stroke-miterlimit="10" d="M121.469,93.673c0,0,0.418,4.202-5.297,1.98
			c0,0-12.912-6.719-13.781,6.311c-0.191,2.89,0.545,9.023,8.629,7.728c2.807-0.45,10.449-5.377,10.449-2.222"/>
		<path fill="#FFFFFF" stroke="#000000" stroke-width="2" stroke-miterlimit="10" d="M137.471,128.623
			c1.207-0.032,2.533-1.872,1.754-3.735c0,0-7.213-12.621,4.186-14.359c0,0,8.205-0.47,8.178,4.894
			c-0.012,2.214-0.465,4.912-1.996,8.629c-0.486,1.182-0.773,4.572,2.223,4.604"/>
		<path fill="#FFFFFF" stroke="#000000" stroke-width="2" stroke-miterlimit="10" d="M121.451,140.125c0,0,0.033,2.487,2.576,0.99
			c0,0,9.531-6.954,14.553,1.932c0,0,5.076,11.469-7.469,11.591c-1.668,0.017-2.641-0.193-6.182-2.512c0,0-3.541-2.006-3.477,1.986"
			/>
		
			<line fill="#FFFFFF" stroke="#000000" stroke-width="4" stroke-miterlimit="10" x1="98.914" y1="182.843" x2="141.543" y2="182.843"/>
		<line fill="#FFFFFF" stroke="#000000" stroke-miterlimit="10" x1="101.195" y1="187.021" x2="123.361" y2="187.021"/>
		<line fill="#FFFFFF" stroke="#000000" stroke-miterlimit="10" x1="101.195" y1="200.188" x2="123.361" y2="200.188"/>
		<line fill="#FFFFFF" stroke="#000000" stroke-miterlimit="10" x1="100.695" y1="203.188" x2="116.195" y2="203.188"/>
		<line fill="#FFFFFF" stroke="#000000" stroke-miterlimit="10" x1="101.195" y1="189.521" x2="130.695" y2="189.521"/>
		<path fill="none" stroke="#000000" stroke-width="0.5" stroke-miterlimit="10" d="M129.07,80.063c0,0,17.938,3.75,26.25,15.75
			c0,0,11.875,14.125,7.875,39.876"/>
		<path fill="none" stroke="#000000" stroke-width="0.5" stroke-miterlimit="10" d="M137.32,87.688c0,0,11.25,4,19.375,18.625"/>
		
			<line fill="#FFFFFF" stroke="#000000" stroke-width="4" stroke-miterlimit="10" x1="44.445" y1="83.688" x2="60.945" y2="95.938"/>
		
			<line fill="#FFFFFF" stroke="#000000" stroke-width="4" stroke-miterlimit="10" x1="65.445" y1="57.188" x2="79.195" y2="73.938"/>
		
			<line fill="#FFFFFF" stroke="#000000" stroke-width="4" stroke-miterlimit="10" x1="103.945" y1="63.188" x2="100.695" y2="41.188"/>
		
			<line fill="#FFFFFF" stroke="#000000" stroke-width="4" stroke-miterlimit="10" x1="133.945" y1="63.688" x2="146.445" y2="40.688"/>
		
			<line fill="#FFFFFF" stroke="#000000" stroke-width="4" stroke-miterlimit="10" x1="164.445" y1="79.188" x2="176.945" y2="62.688"/>
	</g>
</g>
<g id="Ebene_3">
	<circle fill="none" stroke="#FFFFFF" stroke-miterlimit="10" cx="120.683" cy="120.194" r="116.994"/>
	<g>
		<polygon fill="none" stroke="#000000" stroke-width="4" stroke-miterlimit="10" points="84.94,84.967 122.079,128.114 
			159.94,84.87 143.146,62.96 102.315,62.96 		"/>
		<line fill="none" stroke="#000000" stroke-width="4" stroke-miterlimit="10" x1="85.23" y1="84.87" x2="159.651" y2="84.87"/>
		<polyline fill="none" stroke="#000000" stroke-width="4" stroke-miterlimit="10" points="118.156,62.887 106.888,84.967 
			122.355,125.291 137.993,84.967 127.966,62.996 		"/>
		<g>
			<g>
				<path fill="none" stroke="#000000" stroke-width="4" stroke-miterlimit="10" d="M75.069,179.659
					c0,0-18.203-17.203-21.621-25.483c-3.453-8.365-3.572-35.907-3.572-35.907s-0.65-4.995,2.823-8.978
					c3.725-4.267,17.302-5.14,17.062,6.95c0,0-1.62,17.285,0.53,22.974c0.827,2.188,4.422,6.697,6.226,8.204
					c0.761,0.635,3.746,2.977,3.09,0.579c-1.38-5.03-7.735-17.14-0.676-19.884c0,0,3.959-2.414,10.617,3.765
					c0,0,11.523,13.89,14.189,19.546c3.308,7.014,5.792,28.234,5.792,28.234H75.069z"/>
				
					<rect x="69.567" y="179.948" fill="none" stroke="#000000" stroke-width="4" stroke-miterlimit="10" width="46.912" height="21.043"/>
			</g>
			<g>
				<path fill="none" stroke="#000000" stroke-width="4" stroke-miterlimit="10" d="M169.811,179.852
					c0,0,18.202-17.202,21.622-25.483c3.453-8.364,3.57-35.907,3.57-35.907s0.652-4.995-2.823-8.977
					c-3.724-4.267-17.302-5.14-17.062,6.95c0,0,1.62,17.284-0.53,22.973c-0.826,2.188-4.422,6.697-6.226,8.204
					c-0.76,0.636-3.746,2.978-3.088,0.579c1.379-5.029,7.735-17.138,0.675-19.883c0,0-3.958-2.414-10.618,3.764
					c0,0-11.521,13.891-14.189,19.547c-3.307,7.014-5.791,28.233-5.791,28.233H169.811z"/>
				
					<rect x="128.4" y="180.141" fill="none" stroke="#000000" stroke-width="4" stroke-miterlimit="10" width="46.912" height="21.043"/>
			</g>
		</g>
	</g>
	<path fill="none" stroke="#000000" stroke-miterlimit="10" d="M180.125,112.75c0,0,7.875-1.625,9.875,5.25c0,0-0.5,24.5-1.25,29.75
		c0,0-1.25,7.75-15,20.25"/>
	<path fill="none" stroke="#000000" stroke-width="2" stroke-miterlimit="10" d="M153.751,58.917l-0.334,1.916l-2.75,0.25l2.5,1.917
		l-0.5,3.333l2-2.5c0,0,2.501,1.666,2.834,1.75s-0.917-2.25-0.917-2.25l1.667-1.416l-2.917-1.084L153.751,58.917z"/>
	<polyline fill="none" stroke="#000000" stroke-width="0.5" stroke-miterlimit="10" points="133.084,66.333 141.251,66.25 
		151.917,81.25 	"/>
	<polyline fill="none" stroke="#000000" stroke-width="0.5" stroke-miterlimit="10" points="120.001,65.834 126.084,65.917 
		132.917,81.334 	"/>
	<polyline fill="none" stroke="#000000" stroke-width="0.5" stroke-miterlimit="10" points="103.667,65.584 113.751,65.501 
		105.167,81.917 	"/>
	<line fill="none" stroke="#000000" stroke-width="0.5" stroke-miterlimit="10" x1="153.584" y1="87.417" x2="129.251" y2="115.5"/>
	<line fill="none" stroke="#000000" stroke-width="0.5" stroke-miterlimit="10" x1="132.917" y1="88" x2="122.501" y2="116.25"/>
	
		<line fill="none" stroke="#000000" stroke-width="0.5" stroke-miterlimit="10" x1="104.334" y1="88.333" x2="115.584" y2="115.583"/>
	<path fill="none" stroke="#000000" stroke-miterlimit="10" d="M55.833,112.334c0,0,7.075-2.639,8.167,0.854
		c1.042,3.333,0.684,4.524,0.375,15.938c-0.25,9.25,0.008,18.302,11.125,24.5"/>
	<path fill="none" stroke="#000000" stroke-miterlimit="10" d="M79.292,133.251c0,0,4.389-2.437,8.625,3.041
		c3.416,4.417,10.386,13.508,12.208,17.958c2.143,5.23,4.5,12.625,4.5,21.5"/>
	<path fill="none" stroke="#000000" stroke-miterlimit="10" d="M159.167,133.75c0,0,6.417-4.583,5.333,2.667
		c-0.522,3.491-4.167,12.833-4.167,12.833"/>
</g>
</svg>
