<?xml version="1.0" encoding="utf-8"?>
<!-- Generator: Adobe Illustrator 15.1.0, SVG Export Plug-In . SVG Version: 6.00 Build 0)  -->
<!DOCTYPE svg PUBLIC "-//W3C//DTD SVG 1.1//EN" "http://www.w3.org/Graphics/SVG/1.1/DTD/svg11.dtd">
<svg version="1.1" xmlns="http://www.w3.org/2000/svg" xmlns:xlink="http://www.w3.org/1999/xlink" x="0px" y="0px"
	 width="107.72px" height="51.02px" viewBox="0 0 107.72 51.02" enable-background="new 0 0 107.72 51.02" xml:space="preserve">
<g id="Ebene_1" display="none">
	<line display="inline" fill="none" x1="20.669" y1="23.069" x2="20.669" y2="26.686"/>
	<path display="inline" fill="none" d="M28.112,18.996c-0.008-0.075-0.022-0.149-0.029-0.224c-0.101-1.1-0.103-2.238,0.004-3.366"/>
	<line display="inline" fill="none" x1="20.669" y1="39.818" x2="20.669" y2="44.901"/>
	<path display="inline" fill="none" d="M32.465,27.632c-0.79-0.676-1.489-1.491-2.089-2.393"/>
	<line display="inline" fill="none" x1="20.669" y1="35.269" x2="20.669" y2="39.818"/>
	<path display="inline" fill="none" d="M30.376,25.239c-0.556-0.835-1.023-1.745-1.392-2.694"/>
	<line display="inline" fill="none" x1="20.669" y1="31.136" x2="20.669" y2="35.269"/>
	<path display="inline" fill="none" d="M95.232,15.749l-2.454,2.535C93.956,18.011,94.889,17.022,95.232,15.749z"/>
	<path display="inline" fill="none" d="M39.667,38.583l-1.082,1.118C38.974,39.446,39.341,39.083,39.667,38.583z"/>
	<path display="inline" fill="none" d="M68.942,18.975l-3.619,3.739C67.142,22.477,68.606,20.821,68.942,18.975z"/>
	<path display="inline" fill="none" d="M28.984,22.545c-0.445-1.15-0.742-2.354-0.872-3.549"/>
	<line display="inline" fill="none" x1="20.669" y1="26.686" x2="20.669" y2="31.136"/>
	<path display="inline" fill="none" d="M64.891,12.366c-2.68,0-3.727,2.174-3.919,4.205l4.063-4.196
		C64.984,12.374,64.941,12.366,64.891,12.366z"/>
	<polygon display="inline" fill="none" stroke="#000000" stroke-miterlimit="10" points="13.948,46.762 18.868,46.762 
		20.669,44.901 20.669,39.818 	"/>
	<polygon display="inline" fill="none" stroke="#000000" stroke-miterlimit="10" points="20.669,35.269 13.169,43.017 
		13.169,46.762 13.948,46.762 20.669,39.818 	"/>
	<polygon display="inline" fill="none" stroke="#000000" stroke-miterlimit="10" points="20.669,26.686 13.169,34.435 
		13.169,38.885 20.669,31.136 	"/>
	<polygon display="inline" fill="none" stroke="#000000" stroke-miterlimit="10" points="20.669,23.069 13.169,30.818 
		13.169,34.435 20.669,26.686 	"/>
	<polygon display="inline" fill="none" stroke="#000000" stroke-miterlimit="10" points="20.669,13.927 13.169,21.675 
		13.169,26.169 20.669,18.421 	"/>
	<polygon display="inline" fill="none" stroke="#000000" stroke-miterlimit="10" points="20.669,31.136 13.169,38.885 
		13.169,43.017 20.669,35.269 	"/>
	<polygon display="inline" fill="none" stroke="#000000" stroke-miterlimit="10" points="20.669,18.421 13.169,26.169 
		13.169,30.818 20.669,23.069 	"/>
	<polygon display="inline" fill="none" stroke="#000000" stroke-miterlimit="10" points="20.669,46.762 20.669,44.901 
		18.868,46.762 	"/>
	<polygon display="inline" fill="none" stroke="#000000" stroke-miterlimit="10" points="20.669,6.649 8.297,19.431 8.669,19.762 
		13.169,15.074 13.169,17.67 20.669,9.921 	"/>
	<polygon display="inline" fill="none" stroke="#000000" stroke-miterlimit="10" points="20.669,5.762 17.667,5.762 6.222,17.587 
		8.297,19.431 20.669,6.649 	"/>
	<polygon display="inline" fill="none" stroke="#000000" stroke-miterlimit="10" points="20.669,9.921 13.169,17.67 13.169,21.675 
		20.669,13.927 	"/>
	<polygon display="inline" fill="none" stroke="#000000" stroke-miterlimit="10" points="13.169,5.762 4.169,15.762 6.222,17.587 
		17.667,5.762 	"/>
	<path display="inline" fill="none" stroke="#000000" stroke-miterlimit="10" d="M97.839,33.398c0,0.127-0.011,0.251-0.017,0.377
		l5.318-5.495c-0.397-1.065-0.917-2.059-1.535-2.964l-4.604,4.757C97.529,31.044,97.839,32.18,97.839,33.398z"/>
	<path display="inline" fill="none" stroke="#000000" stroke-miterlimit="10" d="M100.289,10.524l-5.057,5.225
		c-0.344,1.273-1.276,2.262-2.454,2.535L80.356,31.118c-0.115,0.743-0.195,1.5-0.195,2.28c0,0.597,0.047,1.18,0.115,1.756
		l20.784-21.474C100.96,12.563,100.689,11.504,100.289,10.524z"/>
	<path display="inline" fill="none" stroke="#000000" stroke-miterlimit="10" d="M91.656,27.013l9.045-9.345
		c0.261-0.938,0.405-1.935,0.405-2.971c0-0.343-0.016-0.683-0.046-1.017L80.276,35.154c0.12,1.021,0.343,2.003,0.657,2.937
		l5.52-5.702C86.864,29.493,89.007,27.245,91.656,27.013z"/>
	<path display="inline" fill="none" stroke="#000000" stroke-miterlimit="10" d="M97.001,30.073l4.604-4.757
		c-0.552-0.807-1.19-1.532-1.89-2.181l-4.636,4.789C95.865,28.46,96.523,29.196,97.001,30.073z"/>
	<path display="inline" fill="none" stroke="#000000" stroke-miterlimit="10" d="M92.106,26.987c1.091,0,2.106,0.347,2.974,0.938
		l4.636-4.789c-0.448-0.416-0.916-0.807-1.416-1.146c1.104-1.174,1.938-2.655,2.401-4.321l-9.045,9.345
		C91.806,27,91.954,26.987,92.106,26.987z"/>
	<path display="inline" fill="none" stroke="#000000" stroke-miterlimit="10" d="M83.531,17.745L95.502,5.378
		c-1.049-0.479-2.193-0.747-3.396-0.747c-0.111,0-0.22,0.015-0.33,0.019l-8.605,8.891c-0.038,0.38-0.063,0.766-0.063,1.157
		C83.107,15.761,83.257,16.784,83.531,17.745z"/>
	<path display="inline" fill="none" stroke="#000000" stroke-miterlimit="10" d="M104.053,33.398c0-0.313-0.036-0.614-0.055-0.921
		L90.33,46.599c0.581,0.097,1.171,0.163,1.776,0.163c1.008,0,1.981-0.155,2.916-0.418l8.396-8.674
		C103.823,36.327,104.053,34.894,104.053,33.398z"/>
	<path display="inline" fill="none" stroke="#000000" stroke-miterlimit="10" d="M95.386,14.697c0,0.368-0.063,0.717-0.153,1.052
		l5.057-5.225c-0.511-1.252-1.243-2.361-2.143-3.274l-4.244,4.386C94.794,12.29,95.386,13.415,95.386,14.697z"/>
	<path display="inline" fill="none" stroke="#000000" stroke-miterlimit="10" d="M103.141,28.28l-5.318,5.495
		c-0.175,3.367-2.66,6.035-5.716,6.035c-0.04,0-0.079-0.006-0.12-0.007l-5.311,5.486c1.127,0.646,2.356,1.091,3.654,1.309
		l13.668-14.121C103.907,31.001,103.627,29.584,103.141,28.28z"/>
	<path display="inline" fill="none" stroke="#000000" stroke-miterlimit="10" d="M84.997,20.836l4.248-4.39
		c-0.256-0.521-0.414-1.111-0.414-1.749c0-2.023,1.468-3.664,3.277-3.664c0.663,0,1.277,0.224,1.794,0.603l4.244-4.386
		c-0.772-0.784-1.663-1.425-2.645-1.872L83.531,17.745C83.854,18.878,84.359,19.917,84.997,20.836z"/>
	<path display="inline" fill="none" stroke="#000000" stroke-miterlimit="10" d="M83.171,13.54l8.605-8.891
		C87.309,4.831,83.673,8.647,83.171,13.54z"/>
	<path display="inline" fill="none" stroke="#000000" stroke-miterlimit="10" d="M103.418,37.67l-8.396,8.674
		C98.968,45.234,102.13,41.94,103.418,37.67z"/>
	<path display="inline" fill="none" stroke="#000000" stroke-miterlimit="10" d="M92.108,18.362c-1.24,0-2.307-0.779-2.863-1.916
		l-4.248,4.39c0.282,0.407,0.583,0.798,0.917,1.153c-2.888,1.967-4.958,5.264-5.558,9.129l12.422-12.834
		C92.562,18.335,92.338,18.362,92.108,18.362z"/>
	<path display="inline" fill="none" stroke="#000000" stroke-miterlimit="10" d="M88.756,38.593l-4.604,4.756
		c0.761,0.762,1.606,1.416,2.523,1.941l5.311-5.486C90.781,39.776,89.669,39.331,88.756,38.593z"/>
	<path display="inline" fill="none" stroke="#000000" stroke-miterlimit="10" d="M86.992,36.281l-4.648,4.803
		c0.524,0.831,1.133,1.588,1.809,2.265l4.604-4.756C88.015,37.993,87.408,37.202,86.992,36.281z"/>
	<path display="inline" fill="none" stroke="#000000" stroke-miterlimit="10" d="M86.375,33.398c0-0.345,0.031-0.681,0.078-1.01
		l-5.52,5.702c0.358,1.069,0.831,2.074,1.41,2.993l4.648-4.803C86.601,35.414,86.375,34.437,86.375,33.398z"/>
	<path display="inline" fill="none" stroke="#000000" stroke-miterlimit="10" d="M41,32l0.001,0.133
		c0.026,3.158-0.525,5.21-1.334,6.45l7.694-7.949c-0.029-1.748-0.043-3.462-0.053-5.151L41,32z"/>
	<path display="inline" fill="none" stroke="#000000" stroke-miterlimit="10" d="M40.985,28.992L41,32l6.309-6.518
		c-0.007-1.179-0.016-2.341-0.024-3.485l-7.039,7.272C40.497,29.188,40.744,29.097,40.985,28.992z"/>
	<path display="inline" fill="none" stroke="#000000" stroke-miterlimit="10" d="M37.698,29.675c0.874,0,1.735-0.142,2.547-0.405
		l7.039-7.272c-0.005-0.676-0.009-1.357-0.018-2.02c0.031-0.324,0.049-0.65,0.049-0.975c0-0.507-0.013-1.045-0.035-1.595
		L35.682,29.391C36.326,29.571,36.998,29.675,37.698,29.675z"/>
	<path display="inline" fill="none" stroke="#000000" stroke-miterlimit="10" d="M37.698,5.46c-6.393,0-9.132,4.857-9.611,9.946
		l9.626-9.945C37.708,5.461,37.703,5.46,37.698,5.46z"/>
	<path display="inline" fill="none" stroke="#000000" stroke-miterlimit="10" d="M28.39,36.925l-0.014,0.014
		c-0.027,1.668,0.117,3.044,0.393,4.188l4.067-4.201H28.39z"/>
	<path display="inline" fill="none" stroke="#000000" stroke-miterlimit="10" d="M28.083,18.772
		c0.007,0.074,0.021,0.148,0.029,0.224L40.797,5.891c-0.902-0.271-1.919-0.429-3.084-0.43l-9.626,9.945
		C27.98,16.534,27.982,17.673,28.083,18.772z"/>
	<path display="inline" fill="none" stroke="#000000" stroke-miterlimit="10" d="M33.708,36.925h-0.872l-4.067,4.201
		c0.239,0.995,0.577,1.814,0.994,2.484l4.645-4.799C33.981,38.269,33.716,37.609,33.708,36.925z"/>
	<polygon display="inline" fill="none" stroke="#000000" stroke-miterlimit="10" points="28.376,36.925 28.376,36.938 28.39,36.925 
			"/>
	<path display="inline" fill="none" stroke="#000000" stroke-miterlimit="10" d="M34.407,38.812l-4.645,4.799
		c0.729,1.169,1.694,1.892,2.77,2.344l6.053-6.253C37.123,40.66,35.362,40.03,34.407,38.812z"/>
	<path display="inline" fill="none" stroke="#000000" stroke-miterlimit="10" d="M38.292,46.758C44.61,46.936,47,40.55,47.386,35.83
		L36.85,46.716C37.342,46.735,37.826,46.745,38.292,46.758z"/>
	<path display="inline" fill="none" stroke="#000000" stroke-miterlimit="10" d="M47.361,30.634l-7.694,7.949
		c-0.326,0.5-0.693,0.863-1.082,1.118l-6.053,6.253c1.349,0.565,2.868,0.706,4.317,0.762L47.386,35.83
		c0.053-0.645,0.07-1.261,0.053-1.822C47.403,32.874,47.38,31.749,47.361,30.634z"/>
	<path display="inline" fill="none" stroke="#000000" stroke-miterlimit="10" d="M34.665,20.809l-4.289,4.431
		c0.6,0.901,1.299,1.717,2.089,2.393l4.766-4.924C36.121,22.542,35.255,21.817,34.665,20.809z"/>
	<path display="inline" fill="none" stroke="#000000" stroke-miterlimit="10" d="M41.829,18.184c0,2.281-1.848,4.584-4.129,4.584
		c-0.165,0-0.314-0.036-0.47-0.06l-4.766,4.924c0.953,0.814,2.035,1.426,3.217,1.759L47.28,17.408
		c-0.06-1.438-0.222-2.984-0.583-4.481l-4.871,5.032C41.827,18.034,41.829,18.111,41.829,18.184z"/>
	<path display="inline" fill="none" stroke="#000000" stroke-miterlimit="10" d="M34.665,20.809
		c-0.471-0.804-0.776-1.771-0.881-2.765c-0.015-0.138-0.024-0.28-0.031-0.426l-4.769,4.927c0.368,0.949,0.836,1.859,1.392,2.694
		L34.665,20.809z"/>
	<path display="inline" fill="none" stroke="#000000" stroke-miterlimit="10" d="M41.826,17.959l4.871-5.032
		c-0.278-1.149-0.68-2.259-1.246-3.262l-4.4,4.546C41.673,15.341,41.813,16.784,41.826,17.959z"/>
	<path display="inline" fill="none" stroke="#000000" stroke-miterlimit="10" d="M28.984,22.545l4.769-4.927
		c-0.1-2.245,0.796-5.252,3.947-5.252c0.379,0,0.714,0.045,1.027,0.112l4.902-5.065c-0.773-0.661-1.708-1.186-2.833-1.522
		L28.112,18.996C28.242,20.19,28.539,21.395,28.984,22.545z"/>
	<path display="inline" fill="none" stroke="#000000" stroke-miterlimit="10" d="M41.051,14.211l4.4-4.546
		c-0.479-0.846-1.073-1.613-1.821-2.252l-4.902,5.065C39.864,12.724,40.591,13.378,41.051,14.211z"/>
	<path display="inline" fill="none" stroke="#000000" stroke-miterlimit="10" d="M65.483,46.758c5.691,0.16,8.19-5.005,8.912-9.481
		l-9.17,9.475C65.312,46.753,65.398,46.755,65.483,46.758z"/>
	<path display="inline" fill="none" stroke="#000000" stroke-miterlimit="10" d="M55.598,13.408l7.551-7.802
		C58.756,6.298,56.448,9.597,55.598,13.408z"/>
	<path display="inline" fill="none" stroke="#000000" stroke-miterlimit="10" d="M55.566,36.925
		c-0.002,0.142,0.001,0.274,0.001,0.412l0.398-0.412H55.566z"/>
	<path display="inline" fill="none" stroke="#000000" stroke-miterlimit="10" d="M74.06,13.688l-5.117,5.286
		c-0.336,1.847-1.801,3.502-3.619,3.739l-5.148,5.32c0.908,0.676,1.918,1.174,3.011,1.432l11.301-11.675
		C74.446,16.488,74.331,15.078,74.06,13.688z"/>
	<path display="inline" fill="none" stroke="#000000" stroke-miterlimit="10" d="M74.51,27.065l-6.358,6.569
		c-0.382,6.661-3.731,7.325-5.744,5.935l-4.774,4.933c0.795,0.866,1.762,1.392,2.802,1.71l14.14-14.607
		C74.543,30.073,74.521,28.556,74.51,27.065z"/>
	<path display="inline" fill="none" stroke="#000000" stroke-miterlimit="10" d="M60.899,36.925h-0.362l-4.472,4.619
		c0.362,1.28,0.905,2.237,1.567,2.958l4.774-4.933C61.533,38.965,60.911,37.978,60.899,36.925z"/>
	<path display="inline" fill="none" stroke="#000000" stroke-miterlimit="10" d="M68.191,32.133c0.005,0.535-0.013,1.028-0.04,1.502
		l6.358-6.569c-0.012-1.544-0.021-3.057-0.03-4.546l-6.304,6.513L68.191,32.133z"/>
	<path display="inline" fill="none" stroke="#000000" stroke-miterlimit="10" d="M64.891,22.768c-1.325,0-2.335-0.789-3.008-1.915
		l-4.288,4.431c0.722,1.073,1.591,2.015,2.58,2.751l5.148-5.32C65.18,22.732,65.039,22.768,64.891,22.768z"/>
	<path display="inline" fill="none" stroke="#000000" stroke-miterlimit="10" d="M55.966,36.925l-0.398,0.412
		c0,1.688,0.178,3.076,0.498,4.207l4.472-4.619H55.966z"/>
	<path display="inline" fill="none" stroke="#000000" stroke-miterlimit="10" d="M68.176,28.992v0.04l6.304-6.513
		c-0.006-0.854-0.011-1.708-0.021-2.542c0.031-0.324,0.048-0.65,0.048-0.975c0-0.389-0.008-0.797-0.02-1.212L63.186,29.466
		c0.549,0.13,1.116,0.209,1.704,0.209C66.034,29.675,67.159,29.435,68.176,28.992z"/>
	<path display="inline" fill="none" stroke="#000000" stroke-miterlimit="10" d="M68.267,14.257l4.4-4.546
		c-0.596-1.067-1.379-2.009-2.41-2.731l-5.223,5.396C66.721,12.419,67.702,13.202,68.267,14.257z"/>
	<path display="inline" fill="none" stroke="#000000" stroke-miterlimit="10" d="M69.021,18.184c0,0.265-0.03,0.529-0.078,0.791
		l5.117-5.286c-0.273-1.398-0.716-2.765-1.393-3.978l-4.4,4.546C68.907,15.452,69.021,16.988,69.021,18.184z"/>
	<path display="inline" fill="none" stroke="#000000" stroke-miterlimit="10" d="M60.975,18.044
		c-0.048-0.457-0.051-0.96-0.003-1.473l-5.063,5.232c0.401,1.232,0.974,2.417,1.687,3.479l4.288-4.431
		C61.396,20.04,61.081,19.058,60.975,18.044z"/>
	<path display="inline" fill="none" stroke="#000000" stroke-miterlimit="10" d="M55.273,18.772
		c0.093,1.013,0.311,2.036,0.635,3.031l5.063-5.232c0.192-2.031,1.239-4.205,3.919-4.205c0.051,0,0.094,0.008,0.144,0.009
		l5.223-5.396c-0.987-0.693-2.196-1.188-3.686-1.398L55.205,17.324C55.211,17.812,55.229,18.296,55.273,18.772z"/>
	<path display="inline" fill="none" stroke="#000000" stroke-miterlimit="10" d="M74.629,34.008
		c-0.025-0.808-0.039-1.604-0.055-2.403l-14.14,14.607c1.548,0.475,3.255,0.5,4.791,0.539l9.17-9.475
		C74.585,36.104,74.659,34.978,74.629,34.008z"/>
	<path display="inline" fill="none" stroke="#000000" stroke-miterlimit="10" d="M66.571,5.581C66.043,5.507,65.489,5.46,64.89,5.46
		c-0.618,0-1.189,0.061-1.741,0.146l-7.551,7.802c-0.285,1.277-0.41,2.606-0.393,3.916L66.571,5.581z"/>
</g>
<g id="Ebene_2" display="none">
	<path display="inline" fill="none" stroke="#000000" stroke-linejoin="bevel" stroke-miterlimit="10" d="M96.33,38.519l-0.99,1.023
		C95.742,39.27,96.068,38.919,96.33,38.519z"/>
	<path display="inline" fill="none" stroke="#000000" stroke-linejoin="bevel" stroke-miterlimit="10" d="M18.563,5.417
		l-5.358,5.535c1.327-0.108,2.722,0.332,3.778,1.303l4.571-4.723C20.728,6.679,19.73,5.944,18.563,5.417z"/>
	<path display="inline" fill="none" stroke="#000000" stroke-linejoin="bevel" stroke-miterlimit="10" d="M21.554,7.532
		l-4.571,4.723c0.871,0.798,1.514,1.953,1.694,3.472l5.007-5.173C23.16,9.515,22.454,8.461,21.554,7.532z"/>
	<polygon display="inline" fill="none" stroke="#000000" stroke-linejoin="bevel" stroke-miterlimit="10" points="26.99,46.875 
		26.99,44.059 24.264,46.875 	"/>
	<path display="inline" fill="none" stroke="#000000" stroke-linejoin="bevel" stroke-miterlimit="10" d="M3.24,12.382l0.392,0.357
		l7.512-7.761C5.33,6.596,3.24,12.382,3.24,12.382z"/>
	<path display="inline" fill="none" stroke="#000000" stroke-linejoin="bevel" stroke-miterlimit="10" d="M15.891,4.666
		L5.994,14.893l1.381,1.26c0,0,2.206-4.209,4.838-5.013c0.321-0.098,0.655-0.16,0.992-0.188l5.358-5.535
		C17.756,5.053,16.872,4.785,15.891,4.666z"/>
	<path display="inline" fill="none" stroke="#000000" stroke-linejoin="bevel" stroke-miterlimit="10" d="M15.783,4.647
		c-1.759-0.193-3.298-0.042-4.64,0.331l-7.512,7.761l2.362,2.153l9.897-10.227C15.854,4.661,15.821,4.651,15.783,4.647z"/>
	<path display="inline" fill="none" stroke="#000000" stroke-linejoin="bevel" stroke-miterlimit="10" d="M19.646,31.128
		c0.821-1.45,1.526-2.743,2.132-3.924L5.717,43.798v3.077h1.451l6.8-7.024L19.646,31.128z"/>
	<polygon display="inline" fill="none" stroke="#000000" stroke-linejoin="bevel" stroke-miterlimit="10" points="23.159,40.447 
		16.938,46.875 20.764,46.875 26.99,40.499 	"/>
	<path display="inline" fill="none" stroke="#000000" stroke-linejoin="bevel" stroke-miterlimit="10" d="M24.884,14.75
		c0-0.006-0.001-0.014-0.001-0.02l-7.338,7.582c-0.781,1.756-2.01,3.985-3.928,7.016l-4.234,5.96l15.293-15.801
		C24.949,17.952,24.998,16.45,24.884,14.75z"/>
	<polygon display="inline" fill="none" stroke="#000000" stroke-linejoin="bevel" stroke-miterlimit="10" points="17.848,40.447 
		11.626,46.875 16.938,46.875 23.159,40.447 	"/>
	<polygon display="inline" fill="none" stroke="#000000" stroke-linejoin="bevel" stroke-miterlimit="10" points="26.986,40.447 
		20.764,46.875 24.264,46.875 26.99,44.059 26.99,40.447 	"/>
	<path display="inline" fill="none" stroke="#000000" stroke-linejoin="bevel" stroke-miterlimit="10" d="M23.684,10.554
		l-5.007,5.173c0.001,0.008,0.003,0.015,0.004,0.023c0.21,1.819,0.259,3.425-1.136,6.563l7.338-7.582
		C24.878,13.738,24.499,12.167,23.684,10.554z"/>
	<path display="inline" fill="none" stroke="#000000" stroke-linejoin="bevel" stroke-miterlimit="10" d="M24.676,19.487
		L9.383,35.288l-3.666,5.159v3.351l16.061-16.594C23.389,24.064,24.277,21.737,24.676,19.487z"/>
	<polygon display="inline" fill="none" stroke="#000000" stroke-linejoin="bevel" stroke-miterlimit="10" points="13.58,40.447 
		13.968,39.851 7.168,46.875 11.626,46.875 17.848,40.447 	"/>
	<path display="inline" fill="none" stroke="#000000" stroke-linejoin="bevel" stroke-miterlimit="10" d="M52.563,22.088
		l-5.25,5.424c-0.127,1.868-0.458,3.606-0.951,5.116l6.383-6.596c0-0.072,0.006-0.142,0.006-0.214
		C52.75,24.544,52.679,23.302,52.563,22.088z"/>
	<path display="inline" fill="none" stroke="#000000" stroke-linejoin="bevel" stroke-miterlimit="10" d="M35.036,28.177
		c-0.073-0.764-0.115-1.551-0.115-2.358c0-1.122,0.081-2.203,0.22-3.237l-5.512,5.694c0.104,1.684,0.321,3.301,0.626,4.842
		L35.036,28.177z"/>
	<path display="inline" fill="none" stroke="#000000" stroke-linejoin="bevel" stroke-miterlimit="10" d="M52.745,26.032
		l-6.383,6.596c-1.113,3.4-3.03,5.651-5.213,5.651c-0.079,0-0.156-0.018-0.234-0.023l-5.717,5.905
		c0.76,0.839,1.569,1.537,2.428,2.042l14.777-15.267C52.613,29.36,52.736,27.724,52.745,26.032z"/>
	<path display="inline" fill="none" stroke="#000000" stroke-linejoin="bevel" stroke-miterlimit="10" d="M38.266,36.858
		l-4.802,4.961c0.536,0.876,1.116,1.658,1.733,2.342l5.717-5.905C39.961,38.185,39.063,37.692,38.266,36.858z"/>
	<path display="inline" fill="none" stroke="#000000" stroke-linejoin="bevel" stroke-miterlimit="10" d="M36.544,34.188
		l-4.563,4.713c0.444,1.057,0.94,2.031,1.482,2.918l4.802-4.961C37.615,36.176,37.035,35.267,36.544,34.188z"/>
	<path display="inline" fill="none" stroke="#000000" stroke-linejoin="bevel" stroke-miterlimit="10" d="M50.806,37.668
		l-9.198,9.503C45.447,46.894,48.807,43.199,50.806,37.668z"/>
	<path display="inline" fill="none" stroke="#000000" stroke-linejoin="bevel" stroke-miterlimit="10" d="M35.618,31.529
		l-4.588,4.739c0.281,0.925,0.603,1.8,0.952,2.633l4.563-4.713C36.18,33.388,35.868,32.498,35.618,31.529z"/>
	<path display="inline" fill="none" stroke="#000000" stroke-linejoin="bevel" stroke-miterlimit="10" d="M38.845,4.849
		c-2.409,0.895-4.54,3.178-6.157,6.361"/>
	<path display="inline" fill="none" stroke="#000000" stroke-linejoin="bevel" stroke-miterlimit="10" d="M37.625,46.203
		c1.111,0.652,2.295,1.011,3.523,1.011c0.155,0,0.306-0.031,0.459-0.043l9.198-9.503c0.732-2.025,1.272-4.3,1.597-6.731
		L37.625,46.203z"/>
	<path display="inline" fill="none" stroke="#000000" stroke-linejoin="bevel" stroke-miterlimit="10" d="M47.23,23.147l4.757-4.914
		c-0.205-0.993-0.442-1.955-0.722-2.871l-4.586,4.738C46.925,21.052,47.113,22.073,47.23,23.147z"/>
	<path display="inline" fill="none" stroke="#000000" stroke-linejoin="bevel" stroke-miterlimit="10" d="M30.254,33.117
		c0.215,1.094,0.471,2.149,0.775,3.151l4.588-4.739c-0.27-1.041-0.469-2.165-0.582-3.353L30.254,33.117z"/>
	<path display="inline" fill="none" stroke="#000000" stroke-linejoin="bevel" stroke-miterlimit="10" d="M46.679,20.101
		l4.586-4.738c-0.308-1.011-0.659-1.969-1.049-2.869l-4.569,4.721C46.055,18.07,46.404,19.04,46.679,20.101z"/>
	<path display="inline" fill="none" stroke="#000000" stroke-linejoin="bevel" stroke-miterlimit="10" d="M47.377,25.818
		c0,0.575-0.026,1.138-0.064,1.693l5.25-5.424c-0.127-1.333-0.322-2.619-0.576-3.854l-4.757,4.914
		C47.325,24.009,47.377,24.9,47.377,25.818z"/>
	<path display="inline" fill="none" stroke="#000000" stroke-linejoin="bevel" stroke-miterlimit="10" d="M29.546,25.818
		c0,0.832,0.032,1.649,0.082,2.457l5.512-5.694c0.714-5.309,3.129-9.222,6.009-9.222c0.76,0,1.484,0.286,2.158,0.784l4.989-5.154
		c-0.651-0.942-1.359-1.752-2.112-2.423l-16.58,17.129C29.567,24.394,29.546,25.102,29.546,25.818z"/>
	<path display="inline" fill="none" stroke="#000000" stroke-linejoin="bevel" stroke-miterlimit="10" d="M43.424,4.841
		c-0.736-0.27-1.496-0.417-2.275-0.417c-0.789,0-1.559,0.148-2.304,0.425l-6.157,6.361c-1.049,2.065-1.875,4.512-2.416,7.219
		L43.424,4.841z"/>
	<path display="inline" fill="none" stroke="#000000" stroke-linejoin="bevel" stroke-miterlimit="10" d="M45.647,17.214
		l4.569-4.721c-0.563-1.303-1.209-2.476-1.92-3.504l-4.989,5.154C44.202,14.806,45,15.861,45.647,17.214z"/>
	<path display="inline" fill="none" stroke="#000000" stroke-linejoin="bevel" stroke-miterlimit="10" d="M29.604,23.695
		l16.58-17.129c-0.867-0.772-1.789-1.37-2.76-1.726L30.272,18.429C29.938,20.1,29.703,21.858,29.604,23.695z"/>
	<path display="inline" fill="none" stroke="#000000" stroke-linecap="square" stroke-linejoin="bevel" stroke-miterlimit="10" d="
		M75.74,40.399l-6.385,6.596C71.865,46.117,74.084,43.743,75.74,40.399z"/>
	<path display="inline" fill="none" stroke="#000000" stroke-linejoin="bevel" stroke-miterlimit="10" d="M58.826,11.167
		l5.877-6.072C62.42,6.013,60.391,8.17,58.826,11.167z"/>
	<path display="inline" fill="none" stroke="#000000" stroke-linejoin="bevel" stroke-miterlimit="10" d="M61.527,31.187
		l-4.609,4.762c0.26,0.909,0.559,1.771,0.883,2.597l4.549-4.699C62.021,33.038,61.746,32.143,61.527,31.187z"/>
	<path display="inline" fill="none" stroke="#000000" stroke-linejoin="bevel" stroke-miterlimit="10" d="M60.953,25.988
		c0-1.509,0.141-2.948,0.387-4.286l-5.717,5.905c0.066,1.591,0.217,3.136,0.459,4.609l4.9-5.063
		C60.965,26.77,60.953,26.382,60.953,25.988z"/>
	<path display="inline" fill="none" stroke="#000000" stroke-linejoin="bevel" stroke-miterlimit="10" d="M69.17,4.93
		c-0.646-0.206-1.309-0.336-1.988-0.336c-0.852,0-1.68,0.181-2.479,0.501l-5.877,6.072c-1.037,1.989-1.867,4.346-2.428,6.957
		L69.17,4.93z"/>
	<path display="inline" fill="none" stroke="#000000" stroke-linejoin="bevel" stroke-miterlimit="10" d="M60.982,27.153l-4.9,5.063
		c0.215,1.302,0.496,2.548,0.836,3.731l4.609-4.762C61.24,29.938,61.049,28.583,60.982,27.153z"/>
	<path display="inline" fill="none" stroke="#000000" stroke-linejoin="bevel" stroke-miterlimit="10" d="M55.709,22.971
		l16.08-16.614c-0.826-0.661-1.705-1.135-2.619-1.427L56.398,18.124C56.068,19.661,55.838,21.284,55.709,22.971z"/>
	<path display="inline" fill="none" stroke="#000000" stroke-linejoin="bevel" stroke-miterlimit="10" d="M78.596,22.266
		l-5.25,5.425c-0.186,2.698-0.797,5.121-1.701,6.98l7.102-7.338c0.016-0.447,0.037-0.891,0.037-1.345
		C78.783,24.716,78.713,23.478,78.596,22.266z"/>
	<path display="inline" fill="none" stroke="#000000" stroke-linejoin="bevel" stroke-miterlimit="10" d="M55.58,25.988
		c0,0.547,0.021,1.083,0.043,1.619l5.717-5.905c0.875-4.766,3.156-8.173,5.842-8.173c0.566,0,1.113,0.165,1.635,0.448l5.15-5.32
		c-0.678-0.901-1.402-1.682-2.178-2.301l-16.08,16.614C55.633,23.96,55.58,24.962,55.58,25.988z"/>
	<path display="inline" fill="none" stroke="#000000" stroke-linejoin="bevel" stroke-miterlimit="10" d="M75.74,40.399
		c0.988-1.998,1.773-4.337,2.297-6.918L64.969,46.984c0.717,0.255,1.455,0.399,2.213,0.399c0.744,0,1.469-0.142,2.174-0.389"/>
	<path display="inline" fill="none" stroke="#000000" stroke-linejoin="bevel" stroke-miterlimit="10" d="M67.182,38.449
		c-1.039,0-2.016-0.517-2.877-1.417l-4.803,4.963c0.684,1.118,1.436,2.099,2.25,2.896l6.395-6.607
		C67.832,38.383,67.512,38.449,67.182,38.449z"/>
	<path display="inline" fill="none" stroke="#000000" stroke-linejoin="bevel" stroke-miterlimit="10" d="M62.35,33.846
		l-4.549,4.699c0.498,1.262,1.068,2.417,1.701,3.45l4.803-4.963C63.549,36.243,62.883,35.157,62.35,33.846z"/>
	<path display="inline" fill="none" stroke="#000000" stroke-linejoin="bevel" stroke-miterlimit="10" d="M78.746,27.333
		l-7.102,7.338c-0.92,1.891-2.135,3.189-3.498,3.613l-6.395,6.607c0.996,0.974,2.076,1.686,3.217,2.093l13.068-13.503
		C78.43,31.548,78.674,29.485,78.746,27.333z"/>
	<path display="inline" fill="none" stroke="#000000" stroke-linejoin="bevel" stroke-miterlimit="10" d="M71.242,16.554
		l4.605-4.757c-0.564-1.169-1.193-2.222-1.881-3.14l-5.15,5.32C69.725,14.472,70.549,15.359,71.242,16.554z"/>
	<path display="inline" fill="none" stroke="#000000" stroke-linejoin="bevel" stroke-miterlimit="10" d="M73.41,25.988
		c0,0.579-0.025,1.145-0.064,1.702l5.25-5.425c-0.148-1.557-0.379-3.061-0.699-4.481l-4.719,4.873
		C73.326,23.72,73.41,24.833,73.41,25.988z"/>
	<path display="inline" fill="none" stroke="#000000" stroke-linejoin="bevel" stroke-miterlimit="10" d="M73.178,22.657
		l4.719-4.873c-0.215-0.95-0.473-1.855-0.756-2.73l-4.566,4.719C72.834,20.67,73.037,21.637,73.178,22.657z"/>
	<path display="inline" fill="none" stroke="#000000" stroke-linejoin="bevel" stroke-miterlimit="10" d="M72.574,19.772
		l4.566-4.719c-0.375-1.162-0.809-2.251-1.293-3.257l-4.605,4.757C71.771,17.467,72.223,18.554,72.574,19.772z"/>
	<path display="inline" fill="none" stroke="#000000" stroke-linejoin="bevel" stroke-miterlimit="10" d="M89.184,35.808
		l-4.65,4.806c0.35,1.104,0.834,2.146,1.492,3.063l4.445-4.592C89.648,38.235,89.311,36.994,89.184,35.808z"/>
	<path display="inline" fill="none" stroke="#000000" stroke-linejoin="bevel" stroke-miterlimit="10" d="M89.111,34.321
		c0-2.281,1.848-4.584,4.129-4.584c0.541,0,1.027,0.138,1.465,0.367l4.447-4.595c-0.77-0.786-1.645-1.429-2.6-1.893L83.779,36.815
		c0.127,1.269,0.363,2.565,0.754,3.798l4.65-4.806C89.129,35.288,89.111,34.779,89.111,34.321z"/>
	<path display="inline" fill="none" stroke="#000000" stroke-linejoin="bevel" stroke-miterlimit="10" d="M96.723,32.624
		l4.363-4.508c-0.541-0.961-1.189-1.847-1.934-2.606l-4.447,4.595C95.627,30.591,96.309,31.519,96.723,32.624z"/>
	<path display="inline" fill="none" stroke="#000000" stroke-linejoin="bevel" stroke-miterlimit="10" d="M93.24,40.139
		c-1.277,0-2.156-0.419-2.77-1.054l-4.445,4.592c0.732,1.021,1.682,1.881,2.916,2.475l6.398-6.609
		C94.789,39.913,94.1,40.139,93.24,40.139z"/>
	<path display="inline" fill="none" stroke="#000000" stroke-linejoin="bevel" stroke-miterlimit="10" d="M102.926,35.502
		L91.836,46.96c0.447,0.051,0.91,0.085,1.406,0.085c0.811,0,1.549-0.095,2.244-0.242l6.914-7.143
		C102.758,38.317,102.92,36.902,102.926,35.502z"/>
	<path display="inline" fill="none" stroke="#000000" stroke-linejoin="bevel" stroke-miterlimit="10" d="M102.4,39.66l-6.914,7.143
		C99.342,45.989,101.492,43.084,102.4,39.66z"/>
	<path display="inline" fill="none" stroke="#000000" stroke-linejoin="bevel" stroke-miterlimit="10" d="M97.156,34.461
		c0.133,1.261-0.057,2.874-0.826,4.058l6.256-6.465c-0.301-1.367-0.811-2.713-1.5-3.938l-4.363,4.508
		C96.941,33.203,97.09,33.827,97.156,34.461z"/>
	<path display="inline" fill="none" stroke="#000000" stroke-linejoin="bevel" stroke-miterlimit="10" d="M102.857,33.732
		c-0.051-0.559-0.146-1.12-0.271-1.679l-6.256,6.465c-0.262,0.4-0.588,0.751-0.99,1.023l-6.398,6.609
		c0.832,0.398,1.787,0.681,2.895,0.809l11.09-11.458C102.928,34.906,102.91,34.313,102.857,33.732z"/>
	<path display="inline" fill="none" stroke="#000000" stroke-linejoin="bevel" stroke-miterlimit="10" d="M88.547,6.78
		c-1.221,0.729-2.184,1.787-2.924,3.021"/>
	<path display="inline" fill="none" stroke="#000000" stroke-linejoin="bevel" stroke-miterlimit="10" d="M102.564,15.58
		c0.018-1.025-0.031-1.937-0.135-2.757l-2.668,2.757H102.564z"/>
	<path display="inline" fill="none" stroke="#000000" stroke-linejoin="bevel" stroke-miterlimit="10" d="M96.801,14.096
		l4.621-4.773c-0.684-1.298-1.629-2.112-2.699-2.628l-5.549,5.734C94.59,12.046,96.086,12.868,96.801,14.096z"/>
	<path display="inline" fill="none" stroke="#000000" stroke-linejoin="bevel" stroke-miterlimit="10" d="M83.502,18.497
		c0.041,1.291,0.066,2.568,0.086,3.834l7.168-7.406c0.611-1.486,1.496-2.248,2.418-2.496l5.549-5.734
		c-1.291-0.622-2.766-0.812-4.197-0.886l-11,11.364C83.502,17.635,83.49,18.083,83.502,18.497z"/>
	<path display="inline" fill="none" stroke="#000000" stroke-linejoin="bevel" stroke-miterlimit="10" d="M94.525,5.809
		c-0.643-0.033-1.275-0.045-1.877-0.062c-1.619-0.045-4.102,1.033-4.102,1.033l-2.924,3.021c-1.355,2.258-1.975,5.057-2.098,7.371
		L94.525,5.809z"/>
	<path display="inline" fill="none" stroke="#000000" stroke-linejoin="bevel" stroke-miterlimit="10" d="M90.756,14.925
		l-7.168,7.406c0.027,1.823,0.039,3.608,0.049,5.367l6.307-6.518l-0.004-0.809C89.92,17.948,90.24,16.18,90.756,14.925z"/>
	<path display="inline" fill="none" stroke="#000000" stroke-linejoin="bevel" stroke-miterlimit="10" d="M97.232,15.58h2.529
		l2.668-2.757c-0.18-1.444-0.529-2.593-1.008-3.501l-4.621,4.773C97.064,14.55,97.227,15.056,97.232,15.58z"/>
	<path display="inline" fill="none" stroke="#000000" stroke-linejoin="bevel" stroke-miterlimit="10" d="M89.955,23.513
		l-0.012-2.332l-6.307,6.518c0.008,1.529,0.018,3.038,0.033,4.507l9.049-9.348C91.756,22.919,90.816,23.138,89.955,23.513z"/>
	<path display="inline" fill="none" stroke="#000000" stroke-linejoin="bevel" stroke-miterlimit="10" d="M93.242,22.83
		c-0.176,0-0.35,0.017-0.523,0.027l-9.049,9.348c0.002,0.106,0.002,0.217,0.004,0.322c-0.031,0.324-0.049,0.65-0.049,0.975
		c0,1.022,0.037,2.154,0.154,3.313l12.773-13.198C95.535,23.123,94.428,22.83,93.242,22.83z"/>
</g>
<g id="Ebene_3">
	<path fill="none" stroke="#000000" stroke-linejoin="bevel" stroke-miterlimit="10" d="M29.848,25.113
		c-0.001-0.068-0.006-0.134-0.006-0.202c0-1.868,0.143-3.67,0.387-5.397"/>
	<polyline fill="none" stroke="#000000" stroke-linejoin="bevel" stroke-miterlimit="10" points="18.901,31.218 13.263,39.879 
		15.556,39.879 	"/>
	<path fill="none" stroke="#000000" stroke-linejoin="bevel" stroke-miterlimit="10" d="M22.915,23.561
		c-0.825,1.943-1.985,4.176-3.585,6.999l-0.429,0.658"/>
	<path fill="none" stroke="#000000" stroke-linejoin="bevel" stroke-miterlimit="10" d="M30.229,19.514
		c0.222-1.564,0.529-3.063,0.926-4.467"/>
	<path fill="none" stroke="#000000" stroke-linejoin="bevel" stroke-miterlimit="10" d="M30.184,29.988
		c-0.207-1.566-0.328-3.194-0.336-4.875"/>
	
		<line fill="none" stroke="#000000" stroke-linejoin="bevel" stroke-miterlimit="10" x1="15.556" y1="39.879" x2="20.611" y2="39.879"/>
	<polygon fill="none" stroke="#000000" stroke-linejoin="bevel" stroke-miterlimit="10" points="72.092,10.556 64.592,18.305 
		64.592,23.792 72.092,16.043 	"/>
	<polygon fill="none" stroke="#000000" stroke-linejoin="bevel" stroke-miterlimit="10" points="72.092,16.043 64.592,23.792 
		64.592,27.59 72.092,19.842 	"/>
	<polygon fill="none" stroke="#000000" stroke-linejoin="bevel" stroke-miterlimit="10" points="72.092,19.842 64.592,27.59 
		64.592,31.206 72.092,23.457 	"/>
	<polygon fill="none" stroke="#000000" stroke-linejoin="bevel" stroke-miterlimit="10" points="67.605,46.307 72.053,46.307 
		72.092,46.267 72.092,41.673 	"/>
	<polygon fill="none" stroke="#000000" stroke-linejoin="bevel" stroke-miterlimit="10" points="64.592,5.307 55.592,15.307 
		57.211,16.746 68.283,5.307 	"/>
	<polygon fill="none" stroke="#000000" stroke-linejoin="bevel" stroke-miterlimit="10" points="72.092,46.307 72.092,46.267 
		72.053,46.307 	"/>
	<polygon fill="none" stroke="#000000" stroke-linejoin="bevel" stroke-miterlimit="10" points="72.092,36.59 64.592,44.338 
		64.592,46.307 67.605,46.307 72.092,41.673 	"/>
	<polygon fill="none" stroke="#000000" stroke-linejoin="bevel" stroke-miterlimit="10" points="72.092,32.04 64.592,39.789 
		64.592,44.338 72.092,36.59 	"/>
	<polygon fill="none" stroke="#000000" stroke-linejoin="bevel" stroke-miterlimit="10" points="72.092,5.951 72.092,5.307 
		68.283,5.307 57.211,16.746 59.592,18.863 	"/>
	<polygon fill="none" stroke="#000000" stroke-linejoin="bevel" stroke-miterlimit="10" points="60.092,19.307 64.592,14.619 
		64.592,18.305 72.092,10.556 72.092,5.951 59.592,18.863 	"/>
	<polygon fill="none" stroke="#000000" stroke-linejoin="bevel" stroke-miterlimit="10" points="72.092,23.457 64.592,31.206 
		64.592,35.656 72.092,27.907 	"/>
	<polygon fill="none" stroke="#000000" stroke-linejoin="bevel" stroke-miterlimit="10" points="72.092,27.907 64.592,35.656 
		64.592,39.789 72.092,32.04 	"/>
	<path fill="none" stroke="#000000" stroke-linejoin="bevel" stroke-miterlimit="10" d="M82.039,13.18l8.701-8.99
		C86.205,4.327,82.504,8.211,82.039,13.18z"/>
	<path fill="none" stroke="#000000" stroke-linejoin="bevel" stroke-miterlimit="10" d="M82.402,17.254L94.352,4.91
		c-1.041-0.47-2.174-0.734-3.365-0.734c-0.082,0-0.164,0.012-0.246,0.014l-8.701,8.99c-0.033,0.35-0.051,0.703-0.051,1.063
		C81.988,15.293,82.135,16.303,82.402,17.254z"/>
	<path fill="none" stroke="#000000" stroke-linejoin="bevel" stroke-miterlimit="10" d="M94.266,14.242
		c0,2.024-1.469,3.665-3.277,3.665c-0.248,0-0.488-0.037-0.721-0.096L79.666,28.764c-0.391,1.317-0.625,2.715-0.625,4.18
		c0,0.497,0.029,0.987,0.076,1.471l20.785-21.476c-0.16-1.394-0.576-2.694-1.193-3.849l-4.49,4.638
		C94.24,13.897,94.266,14.066,94.266,14.242z"/>
	<path fill="none" stroke="#000000" stroke-linejoin="bevel" stroke-miterlimit="10" d="M83.666,20.08l4.295-4.437
		c-0.158-0.433-0.25-0.905-0.25-1.401c0-2.023,1.469-3.664,3.277-3.664c0.535,0,1.033,0.157,1.479,0.411l4.309-4.451
		c-0.721-0.678-1.537-1.228-2.424-1.628L82.402,17.254C82.691,18.276,83.121,19.228,83.666,20.08z"/>
	<path fill="none" stroke="#000000" stroke-linejoin="bevel" stroke-miterlimit="10" d="M94.219,13.728l4.49-4.638
		c-0.518-0.966-1.168-1.83-1.934-2.552l-4.309,4.451C93.398,11.52,94.066,12.525,94.219,13.728z"/>
	<path fill="none" stroke="#000000" stroke-linejoin="bevel" stroke-miterlimit="10" d="M96.137,30.141l4.643-4.797
		c-0.658-1.052-1.432-2.004-2.324-2.805l-4.662,4.816C94.807,27.994,95.625,28.967,96.137,30.141z"/>
	<path fill="none" stroke="#000000" stroke-linejoin="bevel" stroke-miterlimit="10" d="M93.793,27.355l4.662-4.816
		c-0.404-0.364-0.83-0.701-1.275-1.005c0.881-0.937,1.59-2.069,2.076-3.334l-8.074,8.343C92.129,26.579,93.016,26.867,93.793,27.355
		z"/>
	<path fill="none" stroke="#000000" stroke-linejoin="bevel" stroke-miterlimit="10" d="M79.666,28.764l10.602-10.952
		c-1.047-0.264-1.902-1.082-2.307-2.168l-4.295,4.437c0.336,0.523,0.713,1.012,1.129,1.454
		C82.393,23.169,80.566,25.729,79.666,28.764z"/>
	<path fill="none" stroke="#000000" stroke-linejoin="bevel" stroke-miterlimit="10" d="M90.986,39.355
		c-1.061,0-2.053-0.329-2.906-0.893l-4.662,4.817c0.92,0.845,1.959,1.532,3.078,2.042l6-6.198
		C92.014,39.271,91.51,39.355,90.986,39.355z"/>
	<path fill="none" stroke="#000000" stroke-linejoin="bevel" stroke-miterlimit="10" d="M102.895,33.796l-12.1,12.5
		c0.064,0.001,0.127,0.011,0.191,0.011c2.139,0,4.141-0.637,5.877-1.737l4.039-4.172C102.051,38.49,102.758,36.229,102.895,33.796z"
		/>
	<path fill="none" stroke="#000000" stroke-linejoin="bevel" stroke-miterlimit="10" d="M100.902,40.397l-4.039,4.172
		C98.48,43.544,99.867,42.116,100.902,40.397z"/>
	<path fill="none" stroke="#000000" stroke-linejoin="bevel" stroke-miterlimit="10" d="M96.719,32.943
		c0,0.764-0.125,1.493-0.344,2.172l5.984-6.184c-0.365-1.293-0.9-2.498-1.58-3.588l-4.643,4.797
		C96.506,30.988,96.719,31.938,96.719,32.943z"/>
	<path fill="none" stroke="#000000" stroke-linejoin="bevel" stroke-miterlimit="10" d="M85.787,35.627l-4.676,4.831
		c0.645,1.06,1.422,2.011,2.307,2.822l4.662-4.817C87.08,37.803,86.277,36.814,85.787,35.627z"/>
	<path fill="none" stroke="#000000" stroke-linejoin="bevel" stroke-miterlimit="10" d="M90.986,26.532
		c0.066,0,0.131,0.009,0.195,0.011l8.074-8.343c0.469-1.215,0.73-2.551,0.73-3.958c0-0.442-0.033-0.876-0.084-1.304L79.117,34.414
		c0.127,1.301,0.418,2.548,0.855,3.709l5.295-5.471C85.406,29.25,87.912,26.532,90.986,26.532z"/>
	<path fill="none" stroke="#000000" stroke-linejoin="bevel" stroke-miterlimit="10" d="M85.256,32.943
		c0-0.098,0.008-0.193,0.012-0.291l-5.295,5.471c0.311,0.824,0.693,1.605,1.139,2.335l4.676-4.831
		C85.449,34.811,85.256,33.903,85.256,32.943z"/>
	<path fill="none" stroke="#000000" stroke-linejoin="bevel" stroke-miterlimit="10" d="M102.934,32.943
		c0-1.402-0.215-2.743-0.574-4.012l-5.984,6.184c-0.627,1.951-2.074,3.459-3.879,4.009l-6,6.198
		c1.332,0.604,2.781,0.946,4.299,0.974l12.1-12.5C102.91,33.513,102.934,33.231,102.934,32.943z"/>
	<path fill="none" stroke="#000000" stroke-linejoin="bevel" stroke-miterlimit="10" d="M24.569,17.258L12.928,29.284L5.401,39.879
		v1.776l17.514-18.095C23.917,21.199,24.417,19.267,24.569,17.258z"/>
	<path fill="none" stroke="#000000" stroke-linejoin="bevel" stroke-miterlimit="10" d="M24.568,14.182
		c0-0.466-0.089-1.065-0.262-1.734l-6.03,6.229c-0.438,2.093-1.724,4.949-4.975,10.084l-0.373,0.524l11.641-12.026
		C24.643,16.273,24.64,15.269,24.568,14.182z"/>
	<polygon fill="none" stroke="#000000" stroke-linejoin="bevel" stroke-miterlimit="10" points="25.853,39.879 19.631,46.307 
		24.029,46.307 26.673,43.575 26.673,39.879 	"/>
	<polygon fill="none" stroke="#000000" stroke-linejoin="bevel" stroke-miterlimit="10" points="20.611,39.879 14.389,46.307 
		19.631,46.307 25.853,39.879 	"/>
	<polygon fill="none" stroke="#000000" stroke-linejoin="bevel" stroke-miterlimit="10" points="15.556,39.879 9.334,46.307 
		14.389,46.307 20.611,39.879 	"/>
	<path fill="none" stroke="#000000" stroke-linejoin="bevel" stroke-miterlimit="10" d="M22.977,9.27l-4.802,4.961
		c0.082,0.302,0.15,0.614,0.189,0.951c0.129,1.112,0.194,2.146-0.089,3.494l6.03-6.229C24.055,11.482,23.621,10.369,22.977,9.27z"/>
	<path fill="none" stroke="#000000" stroke-linejoin="bevel" stroke-miterlimit="10" d="M15.466,4.079
		c-1.13-0.124-2.167-0.104-3.122,0.024l-8.381,8.658l2.032,1.854L16.09,4.187C15.882,4.15,15.682,4.103,15.466,4.079z"/>
	<path fill="none" stroke="#000000" stroke-linejoin="bevel" stroke-miterlimit="10" d="M2.923,11.813l1.04,0.948l8.381-8.658
		C5.374,5.036,2.923,11.813,2.923,11.813z"/>
	<path fill="none" stroke="#000000" stroke-linejoin="bevel" stroke-miterlimit="10" d="M21.224,6.948l-4.572,4.725
		c0.689,0.627,1.233,1.48,1.523,2.558l4.802-4.961C22.506,8.463,21.924,7.668,21.224,6.948z"/>
	<path fill="none" stroke="#000000" stroke-linejoin="bevel" stroke-miterlimit="10" d="M16.09,4.187L5.996,14.615l1.063,0.969
		c0,0,2.206-4.209,4.838-5.013c0.544-0.166,1.121-0.226,1.698-0.189l5.14-5.311C17.945,4.657,17.058,4.359,16.09,4.187z"/>
	<path fill="none" stroke="#000000" stroke-linejoin="bevel" stroke-miterlimit="10" d="M18.734,5.071l-5.14,5.311
		c1.097,0.067,2.188,0.5,3.058,1.291l4.572-4.725C20.517,6.221,19.69,5.572,18.734,5.071z"/>
	<polygon fill="none" stroke="#000000" stroke-linejoin="bevel" stroke-miterlimit="10" points="26.673,46.307 26.673,43.575 
		24.029,46.307 	"/>
	<polygon fill="none" stroke="#000000" stroke-linejoin="bevel" stroke-miterlimit="10" points="13.263,39.879 18.901,31.218 
		5.401,45.166 5.401,46.307 9.334,46.307 15.556,39.879 	"/>
	<path fill="none" stroke="#000000" stroke-linejoin="bevel" stroke-miterlimit="10" d="M19.33,30.56
		c1.6-2.823,2.76-5.056,3.585-6.999L5.401,41.655v3.511l13.5-13.948L19.33,30.56z"/>
	<path fill="none" stroke="#000000" stroke-linejoin="bevel" stroke-miterlimit="10" d="M47.673,24.911
		c0,0.6-0.028,1.185-0.069,1.762l5.26-5.435c-0.133-1.415-0.34-2.78-0.616-4.086l-4.745,4.902
		C47.61,22.974,47.673,23.927,47.673,24.911z"/>
	<path fill="none" stroke="#000000" stroke-linejoin="bevel" stroke-miterlimit="10" d="M47.502,22.055l4.745-4.902
		c-0.263-1.244-0.587-2.427-0.966-3.545l-4.559,4.71C47.079,19.454,47.344,20.711,47.502,22.055z"/>
	<path fill="none" stroke="#000000" stroke-linejoin="bevel" stroke-miterlimit="10" d="M46.723,18.317l4.559-4.71
		c-0.461-1.36-0.992-2.628-1.602-3.761l-4.684,4.838C45.688,15.647,46.275,16.886,46.723,18.317z"/>
	<path fill="none" stroke="#000000" stroke-linejoin="bevel" stroke-miterlimit="10" d="M38.286,45.482
		c1.005,0.524,2.063,0.824,3.159,0.824c0.532,0,1.052-0.089,1.564-0.217l7.433-7.68c0.99-2.241,1.73-4.863,2.165-7.724
		L38.286,45.482z"/>
	<path fill="none" stroke="#000000" stroke-linejoin="bevel" stroke-miterlimit="10" d="M35.696,29.709l-4.617,4.771
		c0.323,1.191,0.705,2.314,1.14,3.366l4.557-4.709C36.329,32.125,35.96,30.974,35.696,29.709z"/>
	<path fill="none" stroke="#000000" stroke-linejoin="bevel" stroke-miterlimit="10" d="M44.997,14.685l4.684-4.838
		c-0.628-1.167-1.334-2.185-2.092-3.062l-5.544,5.728C43.136,12.722,44.143,13.496,44.997,14.685z"/>
	<path fill="none" stroke="#000000" stroke-linejoin="bevel" stroke-miterlimit="10" d="M35.219,24.786
		c0.012-2.214,0.313-4.284,0.829-6.079l-6.2,6.406c0.008,1.681,0.129,3.309,0.336,4.875L35.219,24.786z"/>
	<path fill="none" stroke="#000000" stroke-linejoin="bevel" stroke-miterlimit="10" d="M46.366,32.528l6.66-6.881
		c0.005-0.246,0.021-0.487,0.021-0.736c0-1.255-0.07-2.478-0.183-3.673l-5.26,5.435C47.449,28.859,47.012,30.861,46.366,32.528z"/>
	<path fill="none" stroke="#000000" stroke-linejoin="bevel" stroke-miterlimit="10" d="M50.442,38.41l-7.433,7.68
		C45.998,45.345,48.626,42.521,50.442,38.41z"/>
	<path fill="none" stroke="#000000" stroke-linejoin="bevel" stroke-miterlimit="10" d="M36.775,33.138l-4.557,4.709
		c0.466,1.128,0.989,2.167,1.565,3.104l4.811-4.97C37.901,35.266,37.286,34.298,36.775,33.138z"/>
	<path fill="none" stroke="#000000" stroke-linejoin="bevel" stroke-miterlimit="10" d="M41.445,37.372
		c-1.028,0-1.996-0.507-2.851-1.391l-4.811,4.97c0.599,0.973,1.248,1.836,1.946,2.566l5.974-6.172
		C41.617,37.354,41.532,37.372,41.445,37.372z"/>
	<path fill="none" stroke="#000000" stroke-linejoin="bevel" stroke-miterlimit="10" d="M35.219,24.786l-5.035,5.202
		c0.209,1.573,0.509,3.076,0.895,4.492l4.617-4.771c-0.308-1.477-0.479-3.097-0.479-4.798
		C35.216,24.869,35.219,24.828,35.219,24.786z"/>
	<path fill="none" stroke="#000000" stroke-linejoin="bevel" stroke-miterlimit="10" d="M53.026,25.647l-6.66,6.881
		c-1.09,2.813-2.765,4.661-4.662,4.817l-5.974,6.172c0.798,0.835,1.653,1.495,2.556,1.965l14.321-14.796
		C52.851,29.075,52.994,27.389,53.026,25.647z"/>
	<path fill="none" stroke="#000000" stroke-linejoin="bevel" stroke-miterlimit="10" d="M44.818,4.441
		c-0.822-0.46-1.686-0.738-2.574-0.851L31.155,15.047c-0.396,1.404-0.704,2.902-0.926,4.467L44.818,4.441z"/>
	<path fill="none" stroke="#000000" stroke-linejoin="bevel" stroke-miterlimit="10" d="M29.842,24.911
		c0,0.068,0.005,0.134,0.006,0.202l6.2-6.406c1.075-3.734,3.087-6.255,5.396-6.255c0.202,0,0.402,0.022,0.6,0.061l5.544-5.728
		c-0.857-0.989-1.783-1.791-2.771-2.344L30.229,19.514C29.985,21.241,29.842,23.043,29.842,24.911z"/>
	<path fill="none" stroke="#000000" stroke-linejoin="bevel" stroke-miterlimit="10" d="M41.445,3.517
		c-4.478,0-8.354,4.683-10.29,11.53L42.244,3.591C41.979,3.558,41.714,3.517,41.445,3.517z"/>
</g>
</svg>
